<svg xmlns="http://www.w3.org/2000/svg" xmlns:xlink="http://www.w3.org/1999/xlink" style="enable-background:new 0 0 1024 1024" x="0" y="0" version="1.1" viewBox="0 0 1024 1024" xml:space="preserve"><style type="text/css">.st2{fill:url(#SVGID_1_)}.st7{fill:url(#SVGID_6_)}.st8{fill:url(#SVGID_7_)}.st9{fill:url(#SVGID_8_)}.st10{fill:url(#SVGID_9_)}.st11{fill:url(#SVGID_10_)}.st12{fill:url(#SVGID_11_)}.st13{fill:url(#SVGID_12_)}.st14{fill:url(#SVGID_13_)}.st15{fill:url(#SVGID_14_)}.st16{fill:url(#SVGID_15_)}.st17{fill:url(#SVGID_16_)}.st18{fill:url(#SVGID_17_)}.st19{fill:url(#SVGID_18_)}.st20{fill:url(#SVGID_19_)}.st21{fill:url(#SVGID_20_)}.st22{fill:url(#SVGID_21_)}</style><g id="_x34_03"><linearGradient id="SVGID_1_" x1="512" x2="512" y1="762.474" y2="822.465" gradientUnits="userSpaceOnUse"><stop style="stop-color:#e8e8e8" offset="0"/><stop style="stop-color:#f8f8f8;stop-opacity:.5" offset=".6"/><stop style="stop-color:#fff;stop-opacity:0" offset="1"/></linearGradient><path d="M735.24,822.46c0-16.56-99.95-59.99-223.24-59.99s-223.24,43.43-223.24,59.99H735.24z" class="st2"/><g><linearGradient id="SVGID_2_" x1="361.267" x2="361.267" y1="211.806" y2="374.691" gradientUnits="userSpaceOnUse"><stop style="stop-color:#e8e8e8" offset="0"/><stop style="stop-color:#f9f9f9;stop-opacity:.1" offset=".6"/><stop style="stop-color:#fff;stop-opacity:0" offset="1"/></linearGradient><path d="M490.07,316.8c0-25.47-20.42-46.17-45.78-46.63c0.65-3.18,1-6.47,1-9.84 c0-26.8-21.73-48.53-48.53-48.53c-18.02,0-33.73,9.83-42.1,24.41c-5.16-2.26-10.85-3.52-16.84-3.52 c-17.85,0-33.08,11.12-39.19,26.81c-2.71-0.39-5.47-0.6-8.29-0.6c-31.97,0-57.89,25.92-57.89,57.89 c0,31.97,25.92,57.89,57.89,57.89c12.99,0,24.98-4.28,34.64-11.5h113.44c1.64,0.17,3.3,0.27,4.99,0.27c1.69,0,3.35-0.09,4.99-0.27 l0,0l0,0C471.83,360.7,490.07,340.88,490.07,316.8z" style="fill:url(#SVGID_2_)"/><linearGradient id="SVGID_3_" x1="599.607" x2="599.607" y1="199.806" y2="412.185" gradientUnits="userSpaceOnUse"><stop style="stop-color:#e8e8e8" offset="0"/><stop style="stop-color:#f6f6f6;stop-opacity:.1" offset=".8"/><stop style="stop-color:#fff;stop-opacity:0" offset="1"/></linearGradient><path d="M791.54,336.24c0-35.03-28.4-63.43-63.43-63.43c-4.51,0-8.91,0.48-13.15,1.37 c-7.38-42.25-44.22-74.38-88.59-74.38c-32.19,0-60.41,16.92-76.31,42.34c-3.05-0.43-6.16-0.67-9.33-0.67 c-26.26,0-48.95,15.28-59.67,37.43c-2.17-0.21-4.36-0.33-6.58-0.33c-36.89,0-66.8,29.91-66.8,66.8c0,36.89,29.91,66.8,66.8,66.8 c14.82,0,28.5-4.83,39.58-13h206.23c2.56,0.32,5.17,0.49,7.82,0.49c2.62,0,5.2-0.18,7.74-0.49h0.32v-0.04 C767.39,395.18,791.54,368.54,791.54,336.24z" style="fill:url(#SVGID_3_)"/></g><g><linearGradient id="SVGID_4_" x1="437.486" x2="497.032" y1="766.967" y2="500.284" gradientUnits="userSpaceOnUse"><stop style="stop-color:#d4490b" offset="0"/><stop style="stop-color:#f2822b" offset="1"/></linearGradient><path d="M557.15,440.95c-9.8-3.14-20.3-4.67-31.18-4.29c-0.81,0.03-1.62,0.07-2.42,0.12 c-0.27,0.02-0.54,0.04-0.8,0.06c-0.54,0.04-1.07,0.07-1.6,0.12c-0.32,0.03-0.64,0.06-0.96,0.09c-0.48,0.05-0.96,0.09-1.43,0.15 c-0.34,0.04-0.68,0.08-1.02,0.12c-0.35,0.04-0.71,0.08-1.06,0.13c-0.08,0.01-0.17,0.03-0.25,0.04c-0.81,0.11-1.61,0.23-2.41,0.37 c-0.1,0.02-0.2,0.03-0.29,0.05c-0.9,0.15-1.79,0.32-2.68,0.49c-0.27,0.05-0.54,0.11-0.81,0.17c-0.62,0.13-1.24,0.26-1.86,0.4 c-0.32,0.07-0.64,0.15-0.96,0.23c-0.57,0.14-1.15,0.28-1.71,0.43c-0.32,0.08-0.64,0.17-0.96,0.25c-0.6,0.16-1.19,0.33-1.78,0.5 c-0.28,0.08-0.56,0.16-0.83,0.24c-0.83,0.25-1.66,0.51-2.49,0.79c-0.03,0.01-0.06,0.02-0.08,0.03c-0.85,0.28-1.7,0.58-2.54,0.89 c-0.27,0.1-0.53,0.2-0.8,0.3c-0.58,0.22-1.16,0.44-1.73,0.67c-0.13,0.05-0.26,0.1-0.39,0.15c-0.2,0.08-0.4,0.17-0.6,0.25 c-0.44,0.18-0.88,0.36-1.32,0.55c-0.34,0.14-0.68,0.29-1.01,0.44c-0.43,0.19-0.87,0.39-1.3,0.58c-0.33,0.15-0.67,0.31-1,0.46 c-0.43,0.2-0.86,0.41-1.29,0.62c-0.33,0.16-0.65,0.32-0.98,0.48c-0.43,0.22-0.87,0.44-1.3,0.67c-0.31,0.16-0.62,0.32-0.93,0.49 c-0.45,0.24-0.9,0.49-1.34,0.74c-0.29,0.16-0.57,0.32-0.86,0.48c-0.49,0.28-0.98,0.57-1.47,0.86c-0.23,0.14-0.46,0.27-0.69,0.41 c-0.72,0.43-1.43,0.87-2.14,1.32c-0.04,0.03-0.08,0.05-0.12,0.08c-0.66,0.42-1.32,0.86-1.98,1.3c-0.03,0.02-0.06,0.04-0.09,0.06 c-0.14,0.1-0.28,0.2-0.42,0.29c-0.57,0.39-1.13,0.78-1.69,1.18c-0.26,0.18-0.51,0.37-0.76,0.55c-0.47,0.34-0.95,0.69-1.42,1.04 c-0.27,0.2-0.53,0.4-0.8,0.61c-0.46,0.36-0.92,0.72-1.38,1.08c-0.25,0.2-0.5,0.39-0.74,0.59c-0.52,0.42-1.04,0.86-1.56,1.29 c-0.17,0.14-0.34,0.28-0.5,0.42c-0.68,0.58-1.35,1.17-2.01,1.76c-0.16,0.15-0.32,0.29-0.48,0.44c-0.5,0.46-1,0.92-1.49,1.38 c-0.23,0.22-0.45,0.44-0.68,0.66c-0.42,0.41-0.84,0.82-1.26,1.24c-0.24,0.23-0.47,0.47-0.7,0.71c-0.41,0.42-0.82,0.85-1.23,1.28 c-0.14,0.15-0.29,0.3-0.44,0.45c-0.08,0.09-0.16,0.17-0.24,0.26c-0.28,0.3-0.56,0.61-0.84,0.92c-0.27,0.29-0.53,0.59-0.8,0.88 c-0.27,0.31-0.54,0.62-0.82,0.93c-0.26,0.3-0.52,0.6-0.78,0.9c-0.27,0.32-0.53,0.64-0.8,0.96c-0.25,0.3-0.51,0.61-0.76,0.92 c-0.26,0.32-0.52,0.65-0.78,0.98c-0.25,0.31-0.49,0.62-0.74,0.93c-0.25,0.33-0.51,0.66-0.76,1c-0.24,0.32-0.48,0.63-0.71,0.95 c-0.25,0.34-0.49,0.68-0.73,1.01c-0.23,0.32-0.46,0.64-0.69,0.97c-0.24,0.34-0.47,0.68-0.71,1.03c-0.22,0.33-0.45,0.66-0.67,0.99 c-0.23,0.35-0.46,0.7-0.69,1.05c-0.22,0.33-0.43,0.66-0.65,1c-0.22,0.35-0.44,0.71-0.66,1.07c-0.21,0.34-0.42,0.68-0.63,1.02 c-0.22,0.36-0.43,0.72-0.64,1.09c-0.2,0.34-0.4,0.68-0.6,1.03c-0.21,0.37-0.41,0.73-0.62,1.1c-0.19,0.35-0.39,0.7-0.58,1.05 c-0.2,0.37-0.4,0.74-0.59,1.12c-0.19,0.35-0.37,0.7-0.56,1.06c-0.19,0.38-0.38,0.76-0.57,1.14c-0.18,0.36-0.36,0.71-0.53,1.07 c-0.18,0.38-0.36,0.77-0.54,1.15c-0.17,0.36-0.34,0.72-0.51,1.09c-0.18,0.39-0.35,0.78-0.52,1.17c-0.16,0.37-0.32,0.73-0.48,1.1 c-0.17,0.39-0.33,0.79-0.49,1.19c-0.15,0.37-0.31,0.73-0.45,1.1c-0.16,0.4-0.31,0.8-0.47,1.2c-0.14,0.37-0.29,0.74-0.43,1.12 c-0.15,0.4-0.29,0.81-0.44,1.21c-0.13,0.38-0.27,0.75-0.4,1.13c-0.14,0.41-0.28,0.82-0.41,1.23c-0.13,0.38-0.25,0.75-0.38,1.13 c-0.13,0.41-0.26,0.82-0.38,1.24c-0.12,0.39-0.24,0.77-0.35,1.16c-0.12,0.41-0.24,0.83-0.35,1.25c-0.11,0.39-0.22,0.77-0.33,1.16 c-0.11,0.42-0.22,0.85-0.33,1.27c-0.1,0.39-0.2,0.77-0.3,1.16c-0.1,0.43-0.2,0.86-0.3,1.29c-0.09,0.39-0.18,0.78-0.27,1.17 c-0.09,0.43-0.18,0.87-0.27,1.31c-0.08,0.39-0.16,0.78-0.24,1.17c-0.09,0.45-0.16,0.9-0.25,1.35c-0.07,0.38-0.14,0.76-0.21,1.15 c-0.08,0.46-0.14,0.91-0.22,1.37c-0.06,0.38-0.12,0.76-0.18,1.14c-0.07,0.46-0.12,0.92-0.18,1.38c-0.05,0.39-0.11,0.77-0.15,1.16 c-0.06,0.47-0.1,0.95-0.15,1.42c-0.04,0.38-0.08,0.75-0.12,1.13c-0.05,0.5-0.08,1-0.12,1.5c-0.03,0.36-0.06,0.71-0.09,1.07 c-0.04,0.52-0.06,1.05-0.09,1.58c-0.02,0.33-0.04,0.67-0.06,1c-0.03,0.58-0.04,1.17-0.06,1.75c-0.01,0.28-0.02,0.56-0.03,0.84 c-0.02,0.87-0.02,1.74-0.02,2.61l0.66,157.79c0.02,4.76,3.01,8.73,7.13,10.05l14.28,3.9c-4.12-1.32-7.99-4.89-8.01-9.66 l-0.66-157.79c0-0.87,0-1.74,0.02-2.61c0.01-0.28,0.02-0.56,0.03-0.84c0.02-0.58,0.03-1.17,0.06-1.75c0.02-0.34,0.04-0.67,0.06-1 c0.03-0.53,0.05-1.05,0.09-1.58c0.02-0.36,0.06-0.71,0.09-1.07c0.04-0.5,0.08-1,0.12-1.5c0.04-0.38,0.08-0.75,0.12-1.13 c0.05-0.47,0.1-0.95,0.15-1.42c0.05-0.39,0.1-0.77,0.15-1.16c0.06-0.46,0.12-0.92,0.18-1.38c0.05-0.38,0.12-0.76,0.18-1.14 c0.07-0.46,0.14-0.92,0.21-1.37c0.06-0.38,0.14-0.76,0.21-1.15c0.08-0.45,0.16-0.9,0.25-1.35c0.08-0.39,0.16-0.78,0.24-1.17 c0.09-0.44,0.18-0.87,0.27-1.31c0.09-0.39,0.18-0.78,0.27-1.17c0.1-0.43,0.19-0.86,0.3-1.29c0.09-0.39,0.2-0.77,0.3-1.16 c0.11-0.42,0.21-0.85,0.33-1.27c0.1-0.39,0.22-0.78,0.33-1.16c0.12-0.42,0.23-0.83,0.35-1.25c0.11-0.39,0.24-0.77,0.35-1.16 c0.13-0.41,0.25-0.83,0.38-1.24c0.12-0.38,0.25-0.76,0.38-1.13c0.14-0.41,0.27-0.82,0.41-1.23c0.13-0.38,0.27-0.75,0.4-1.13 c0.15-0.41,0.29-0.81,0.44-1.21c0.14-0.37,0.29-0.74,0.43-1.12c0.15-0.4,0.31-0.8,0.47-1.2c0.15-0.37,0.3-0.73,0.45-1.1 c0.16-0.4,0.33-0.8,0.49-1.19c0.16-0.37,0.32-0.73,0.48-1.09c0.17-0.39,0.34-0.78,0.52-1.17c0.17-0.36,0.34-0.72,0.51-1.09 c0.18-0.38,0.36-0.77,0.54-1.15c0.17-0.36,0.35-0.71,0.53-1.07c0.19-0.38,0.38-0.76,0.57-1.14c0.18-0.35,0.37-0.7,0.55-1.06 c0.2-0.37,0.39-0.75,0.59-1.12c0.19-0.35,0.38-0.7,0.58-1.04c0.21-0.37,0.41-0.74,0.62-1.1c0.2-0.34,0.4-0.68,0.6-1.03 c0.21-0.36,0.43-0.73,0.64-1.09c0.21-0.34,0.42-0.68,0.63-1.02c0.22-0.36,0.44-0.71,0.66-1.06c0.21-0.34,0.43-0.67,0.65-1 c0.23-0.35,0.45-0.7,0.69-1.05c0.22-0.33,0.45-0.66,0.67-0.99c0.24-0.34,0.47-0.69,0.71-1.03c0.23-0.33,0.46-0.65,0.7-0.97 c0.24-0.34,0.48-0.68,0.73-1.01c0.24-0.32,0.48-0.64,0.71-0.95c0.25-0.33,0.5-0.67,0.75-0.99c0.24-0.31,0.49-0.63,0.74-0.94 c0.26-0.32,0.51-0.65,0.77-0.97c0.25-0.31,0.51-0.62,0.76-0.92c0.26-0.32,0.53-0.64,0.79-0.95c0.26-0.3,0.52-0.6,0.78-0.9 c0.27-0.31,0.54-0.62,0.81-0.93c0.26-0.3,0.53-0.59,0.8-0.88c0.28-0.31,0.56-0.61,0.84-0.91c0.22-0.24,0.45-0.48,0.68-0.72 c0.41-0.43,0.82-0.85,1.23-1.27c0.23-0.24,0.47-0.47,0.7-0.71c0.42-0.42,0.84-0.83,1.26-1.24c0.23-0.22,0.45-0.44,0.68-0.66 c0.49-0.47,0.99-0.93,1.49-1.39c0.16-0.15,0.32-0.29,0.48-0.44c0.66-0.6,1.33-1.18,2.01-1.76c0.16-0.14,0.33-0.27,0.49-0.41 c0.52-0.44,1.04-0.87,1.57-1.3c0.24-0.2,0.49-0.39,0.74-0.59c0.46-0.37,0.92-0.73,1.39-1.08c0.26-0.2,0.53-0.4,0.79-0.6 c0.47-0.35,0.94-0.7,1.42-1.05c0.25-0.18,0.5-0.37,0.76-0.55c0.56-0.4,1.12-0.79,1.69-1.17c0.17-0.12,0.35-0.24,0.52-0.36 c0.65-0.44,1.31-0.87,1.97-1.29c0.04-0.03,0.08-0.05,0.12-0.08c0.71-0.45,1.42-0.89,2.14-1.32c0.23-0.14,0.46-0.27,0.69-0.41 c0.49-0.29,0.98-0.58,1.48-0.86c0.28-0.16,0.57-0.32,0.85-0.47c0.45-0.25,0.89-0.5,1.35-0.74c0.31-0.16,0.62-0.32,0.93-0.49 c0.43-0.23,0.87-0.45,1.31-0.67c0.32-0.16,0.64-0.32,0.97-0.48c0.43-0.21,0.86-0.42,1.3-0.63c0.33-0.16,0.66-0.31,1-0.46 c0.43-0.2,0.87-0.39,1.3-0.58c0.34-0.15,0.67-0.29,1.01-0.44c0.44-0.19,0.88-0.37,1.32-0.55c0.33-0.13,0.65-0.27,0.98-0.4 c0.58-0.23,1.15-0.45,1.74-0.67c0.26-0.1,0.53-0.2,0.79-0.3c0.84-0.31,1.69-0.61,2.54-0.89c0.02-0.01,0.04-0.01,0.06-0.02 c0.83-0.28,1.67-0.54,2.51-0.79c0.28-0.08,0.55-0.16,0.83-0.24c0.59-0.17,1.19-0.34,1.79-0.5c0.32-0.09,0.64-0.17,0.96-0.25 c0.57-0.15,1.15-0.29,1.72-0.43c0.32-0.08,0.64-0.15,0.96-0.23c0.62-0.14,1.25-0.28,1.87-0.41c0.27-0.06,0.53-0.11,0.8-0.17 c0.89-0.18,1.79-0.34,2.68-0.49c0.1-0.02,0.2-0.03,0.29-0.05c0.8-0.13,1.61-0.25,2.41-0.37c0.44-0.06,0.88-0.11,1.32-0.17 c0.34-0.04,0.68-0.09,1.02-0.12c0.48-0.05,0.96-0.1,1.43-0.15c0.32-0.03,0.64-0.07,0.96-0.09c0.53-0.05,1.07-0.08,1.6-0.12 c0.27-0.02,0.54-0.04,0.8-0.06c0.8-0.05,1.61-0.09,2.42-0.12c10.89-0.38,21.38,1.15,31.18,4.29L557.15,440.95z" style="fill:url(#SVGID_4_)"/><g><linearGradient id="SVGID_5_" x1="440.766" x2="638.364" y1="502.614" y2="699.524" gradientUnits="userSpaceOnUse"><stop style="stop-color:#fee38d" offset="0"/><stop style="stop-color:#f25c19" offset="1"/></linearGradient><path d="M539.37,440.33c53.34-1.86,97.18,42.05,97.41,97.58l0.66,157.79 c0.03,5.99-4.65,11.04-10.4,11.24l-173.08,6.04c-5.75,0.2-10.47-4.53-10.5-10.51l-0.66-157.79 C442.57,489.15,486.03,442.19,539.37,440.33z" style="fill:url(#SVGID_5_)"/></g><g><g><linearGradient id="SVGID_6_" x1="364.131" x2="406.313" y1="613.68" y2="613.68" gradientUnits="userSpaceOnUse"><stop style="stop-color:#a5a5a5" offset="0"/><stop style="stop-color:#bfbfbf" offset="1"/></linearGradient><polygon points="376.13 616.13 364.13 612.28 394.31 611.23 406.31 615.08" class="st7"/></g><g><linearGradient id="SVGID_7_" x1="321.719" x2="321.719" y1="660.928" y2="710.939" gradientUnits="userSpaceOnUse"><stop style="stop-color:#a5a5a5" offset="0"/><stop style="stop-color:#bfbfbf" offset="1"/></linearGradient><polygon points="327.82 710.94 315.82 707.09 315.62 660.93 327.62 664.78" class="st8"/></g><g><linearGradient id="SVGID_8_" x1="321.189" x2="321.189" y1="500.582" y2="617.831" gradientUnits="userSpaceOnUse"><stop style="stop-color:#a5a5a5" offset="0"/><stop style="stop-color:#bfbfbf" offset="1"/></linearGradient><polygon points="327.43 617.83 315.43 613.98 314.95 500.58 326.95 504.43" class="st9"/></g><g><linearGradient id="SVGID_9_" x1="225.547" x2="327.426" y1="617.477" y2="617.477" gradientUnits="userSpaceOnUse"><stop style="stop-color:#a5a5a5" offset="0"/><stop style="stop-color:#bfbfbf" offset="1"/></linearGradient><polygon points="237.55 620.97 225.55 617.12 315.43 613.98 327.43 617.83" class="st10"/></g><linearGradient id="SVGID_10_" x1="226.533" x2="322.953" y1="591.253" y2="458.173" gradientUnits="userSpaceOnUse"><stop style="stop-color:#a5a5a5" offset="0"/><stop style="stop-color:#d1d1d1" offset="1"/></linearGradient><polygon points="375.41 443.84 363.41 439.99 299.26 442.23 170.97 609.87 171.2 665.97 183.2 669.82 182.97 613.72 311.26 446.08" class="st11"/><linearGradient id="SVGID_11_" x1="239.977" x2="404.326" y1="517.668" y2="681.315" gradientUnits="userSpaceOnUse"><stop style="stop-color:#ebebeb" offset="0"/><stop style="stop-color:#c5c5c7" offset="1"/></linearGradient><path d="M375.41,443.84l0.72,172.29l30.18-1.05l0.2,46.94l-30.18,1.05l0.19,46.16l-48.7,1.7l-0.19-46.16 l-144.42,5.04l-0.23-56.1l128.29-167.64L375.41,443.84z M327.43,617.83l-0.47-113.4l-89.4,116.54L327.43,617.83" class="st12"/></g><g><linearGradient id="SVGID_12_" x1="799.426" x2="674.718" y1="614.112" y2="686.112" gradientUnits="userSpaceOnUse"><stop style="stop-color:#a5a5a5" offset="0"/><stop style="stop-color:#bfbfbf" offset=".919"/></linearGradient><path d="M792.99,650.67c0.18-0.2,0.36-0.41,0.53-0.62c0.14-0.18,0.28-0.36,0.42-0.54c0.16-0.21,0.33-0.42,0.49-0.64 c0.14-0.19,0.27-0.38,0.4-0.56c0.15-0.22,0.3-0.44,0.45-0.67c0.13-0.2,0.25-0.39,0.37-0.59c0.14-0.23,0.28-0.46,0.41-0.7 c0.12-0.2,0.23-0.41,0.34-0.62c0.13-0.24,0.25-0.48,0.37-0.73c0.11-0.21,0.21-0.43,0.31-0.64c0.12-0.25,0.23-0.51,0.34-0.76 c0.1-0.22,0.19-0.44,0.28-0.67c0.1-0.26,0.2-0.53,0.3-0.79c0.08-0.23,0.17-0.46,0.25-0.69c0.09-0.27,0.18-0.55,0.27-0.82 c0.07-0.24,0.15-0.48,0.22-0.72c0.08-0.28,0.16-0.57,0.23-0.86c0.06-0.24,0.13-0.49,0.19-0.74c0.07-0.3,0.13-0.6,0.2-0.9 c0.05-0.25,0.11-0.5,0.16-0.75c0.06-0.31,0.11-0.63,0.16-0.95c0.04-0.25,0.09-0.5,0.12-0.76c0.05-0.33,0.09-0.67,0.13-1.01 c0.03-0.25,0.07-0.5,0.09-0.75c0.04-0.36,0.07-0.73,0.1-1.09c0.02-0.24,0.04-0.48,0.06-0.73c0.03-0.41,0.04-0.84,0.06-1.26 c0.01-0.21,0.02-0.41,0.03-0.62c0.02-0.64,0.03-1.28,0.03-1.94c-0.05-13.06-3.81-21.95-11.26-26.65 c-1.22-0.76-2.68-1.42-4.36-1.96l-8.04-2.58c1.69,0.54,3.14,1.19,4.36,1.96c7.45,4.71,11.21,13.59,11.26,26.65 c0,0.65-0.01,1.3-0.03,1.94c-0.01,0.21-0.02,0.41-0.03,0.62c-0.02,0.42-0.03,0.84-0.06,1.26c-0.02,0.25-0.04,0.49-0.06,0.73 c-0.03,0.36-0.06,0.73-0.1,1.09c-0.03,0.26-0.06,0.51-0.09,0.76c-0.04,0.34-0.08,0.68-0.13,1.01c-0.04,0.26-0.08,0.51-0.12,0.76 c-0.05,0.32-0.1,0.64-0.16,0.95c-0.05,0.25-0.1,0.5-0.16,0.75c-0.06,0.3-0.13,0.61-0.2,0.91c-0.06,0.25-0.12,0.49-0.19,0.73 c-0.08,0.29-0.15,0.58-0.23,0.86c-0.07,0.24-0.14,0.48-0.22,0.72c-0.09,0.28-0.17,0.55-0.27,0.83c-0.08,0.23-0.16,0.46-0.25,0.69 c-0.1,0.27-0.2,0.53-0.3,0.79c-0.09,0.23-0.18,0.45-0.28,0.67c-0.11,0.26-0.22,0.51-0.34,0.76c-0.1,0.22-0.2,0.43-0.31,0.64 c-0.12,0.25-0.25,0.49-0.38,0.73c-0.11,0.21-0.22,0.41-0.34,0.62c-0.13,0.24-0.27,0.47-0.41,0.7c-0.12,0.2-0.24,0.4-0.37,0.59 c-0.15,0.23-0.3,0.45-0.45,0.67c-0.13,0.19-0.26,0.38-0.4,0.56c-0.16,0.22-0.32,0.43-0.49,0.64c-0.14,0.18-0.28,0.36-0.42,0.54 c-0.17,0.21-0.35,0.41-0.53,0.62c-0.15,0.17-0.29,0.34-0.45,0.5c-0.3,0.33-0.61,0.65-0.93,0.96c-0.32,0.31-0.66,0.61-1.02,0.91 c-0.12,0.1-0.24,0.19-0.37,0.28c-0.25,0.19-0.51,0.39-0.77,0.57c-0.22,0.15-0.44,0.3-0.67,0.44c-0.12,0.08-0.24,0.15-0.36,0.23 c-0.33,0.2-0.67,0.39-1.03,0.58c-0.04,0.02-0.08,0.05-0.13,0.07c-0.4,0.21-0.82,0.41-1.25,0.6c-0.13,0.06-0.27,0.11-0.4,0.17 c-0.31,0.13-0.63,0.27-0.95,0.4c-0.14,0.06-0.29,0.11-0.43,0.16c-0.32,0.12-0.65,0.24-0.99,0.35c-0.15,0.05-0.3,0.1-0.46,0.15 c-0.4,0.13-0.81,0.26-1.23,0.38c-0.09,0.03-0.17,0.05-0.26,0.08c-0.51,0.14-1.04,0.28-1.57,0.41c-0.15,0.04-0.3,0.07-0.45,0.1 c-0.4,0.09-0.81,0.18-1.23,0.27c-0.19,0.04-0.38,0.08-0.57,0.11c-0.42,0.08-0.85,0.16-1.29,0.24c-0.17,0.03-0.33,0.06-0.5,0.09 c-0.6,0.1-1.21,0.19-1.84,0.28c-0.39,0.05-0.81,0.1-1.21,0.15c-0.31,0.04-0.62,0.08-0.94,0.11c-0.44,0.05-0.9,0.09-1.35,0.13 c-0.3,0.03-0.6,0.06-0.91,0.08c-0.53,0.04-1.07,0.08-1.61,0.11c-0.25,0.02-0.49,0.04-0.74,0.05c-0.8,0.05-1.62,0.08-2.46,0.11 l-96.63,3.37l8.04,2.58l96.63-3.37c0.84-0.03,1.65-0.07,2.46-0.11c0.25-0.01,0.48-0.03,0.73-0.05c0.55-0.03,1.09-0.07,1.62-0.11 c0.31-0.02,0.6-0.06,0.9-0.08c0.45-0.04,0.91-0.08,1.35-0.13c0.31-0.03,0.61-0.07,0.91-0.11c0.41-0.05,0.83-0.1,1.24-0.15 c0.02,0,0.03,0,0.05-0.01c0.61-0.08,1.2-0.17,1.78-0.27c0.17-0.03,0.34-0.06,0.51-0.09c0.43-0.07,0.86-0.15,1.28-0.23 c0.19-0.04,0.38-0.08,0.57-0.11c0.42-0.09,0.83-0.18,1.23-0.27c0.15-0.03,0.3-0.07,0.45-0.1c0.54-0.13,1.06-0.27,1.57-0.41 c0.09-0.03,0.18-0.05,0.27-0.08c0.42-0.12,0.83-0.25,1.23-0.38c0.16-0.05,0.31-0.1,0.46-0.16c0.34-0.11,0.66-0.23,0.99-0.35 c0.15-0.05,0.29-0.11,0.44-0.16c0.08-0.03,0.16-0.06,0.24-0.09c0.24-0.1,0.47-0.2,0.71-0.3c0.14-0.06,0.28-0.12,0.41-0.18 c0.43-0.19,0.85-0.39,1.25-0.6c0.04-0.02,0.09-0.05,0.13-0.07c0.35-0.19,0.7-0.38,1.03-0.58c0.13-0.08,0.24-0.15,0.37-0.23 c0.17-0.11,0.35-0.22,0.52-0.33c0.05-0.03,0.1-0.07,0.15-0.11c0.27-0.19,0.53-0.38,0.78-0.57c0.12-0.09,0.25-0.18,0.36-0.28 c0.36-0.29,0.7-0.59,1.02-0.91c0.27-0.26,0.54-0.54,0.8-0.81c0.05-0.05,0.09-0.1,0.13-0.15 C792.7,651.01,792.84,650.84,792.99,650.67z" class="st13"/><linearGradient id="SVGID_13_" x1="800.968" x2="724.139" y1="508.716" y2="545.774" gradientUnits="userSpaceOnUse"><stop style="stop-color:#a5a5a5" offset="0"/><stop style="stop-color:#bfbfbf" offset=".919"/></linearGradient><path d="M792.98,542.32c0.15-0.18,0.3-0.36,0.45-0.55c0.13-0.17,0.27-0.34,0.4-0.51c0.14-0.19,0.28-0.38,0.42-0.58 c0.12-0.18,0.25-0.35,0.37-0.54c0.13-0.2,0.26-0.41,0.39-0.61c0.11-0.19,0.23-0.37,0.34-0.56c0.12-0.21,0.24-0.43,0.36-0.65 c0.11-0.2,0.21-0.39,0.31-0.59c0.11-0.22,0.22-0.45,0.33-0.68c0.1-0.2,0.19-0.41,0.28-0.62c0.1-0.23,0.2-0.47,0.3-0.71 c0.09-0.21,0.17-0.42,0.26-0.64c0.09-0.25,0.18-0.5,0.27-0.75c0.08-0.22,0.15-0.44,0.23-0.66c0.08-0.26,0.16-0.52,0.24-0.79 c0.07-0.23,0.14-0.45,0.2-0.69c0.07-0.27,0.14-0.55,0.21-0.83c0.06-0.23,0.12-0.47,0.17-0.71c0.06-0.29,0.12-0.58,0.18-0.88 c0.05-0.24,0.1-0.48,0.14-0.72c0.05-0.3,0.1-0.61,0.15-0.92c0.04-0.25,0.08-0.49,0.11-0.74c0.04-0.32,0.08-0.65,0.11-0.97 c0.03-0.25,0.06-0.49,0.08-0.74c0.03-0.35,0.06-0.71,0.09-1.07c0.02-0.24,0.04-0.47,0.05-0.71c0.02-0.4,0.04-0.82,0.05-1.23 c0.01-0.2,0.02-0.4,0.03-0.61c0.02-0.62,0.02-1.26,0.02-1.9c-0.05-11.49-3.46-19.73-10.24-24.72c-1.75-1.41-3.7-2.46-5.84-3.14 l-8.04-2.58c2.14,0.69,4.09,1.73,5.84,3.14c6.78,4.99,10.19,13.23,10.24,24.72c0,0.64,0,1.28-0.02,1.9 c-0.01,0.21-0.02,0.41-0.03,0.61c-0.02,0.41-0.03,0.82-0.05,1.23c-0.01,0.24-0.04,0.47-0.05,0.7c-0.03,0.36-0.05,0.72-0.09,1.08 c-0.02,0.25-0.06,0.49-0.08,0.73c-0.04,0.33-0.07,0.66-0.12,0.98c-0.03,0.25-0.08,0.49-0.11,0.74c-0.05,0.31-0.09,0.62-0.15,0.92 c-0.04,0.25-0.09,0.49-0.14,0.73c-0.06,0.29-0.11,0.58-0.18,0.87c-0.05,0.24-0.11,0.47-0.17,0.71c-0.07,0.28-0.13,0.56-0.21,0.83 c-0.06,0.23-0.13,0.46-0.2,0.69c-0.08,0.26-0.15,0.53-0.24,0.79c-0.07,0.23-0.15,0.45-0.23,0.67c-0.09,0.25-0.17,0.5-0.27,0.75 c-0.08,0.22-0.17,0.43-0.26,0.64c-0.1,0.24-0.19,0.48-0.3,0.71c-0.09,0.21-0.19,0.41-0.28,0.62c-0.11,0.23-0.22,0.46-0.33,0.68 c-0.1,0.2-0.21,0.4-0.31,0.59c-0.12,0.22-0.24,0.43-0.36,0.65c-0.11,0.19-0.23,0.38-0.34,0.56c-0.13,0.21-0.26,0.41-0.39,0.61 c-0.12,0.18-0.24,0.36-0.37,0.54c-0.14,0.2-0.28,0.39-0.42,0.58c-0.13,0.17-0.26,0.34-0.4,0.51c-0.15,0.19-0.3,0.37-0.45,0.55 c-0.14,0.16-0.28,0.32-0.42,0.48c-0.24,0.26-0.47,0.52-0.72,0.76c-0.28,0.29-0.59,0.56-0.91,0.83c-0.11,0.09-0.23,0.17-0.34,0.26 c-0.23,0.18-0.46,0.35-0.7,0.52c-0.31,0.21-0.62,0.42-0.96,0.62c0,0,0,0-0.01,0c-0.35,0.21-0.72,0.4-1.1,0.59 c-0.12,0.06-0.24,0.12-0.36,0.18c-0.28,0.13-0.56,0.26-0.85,0.39c-0.14,0.06-0.28,0.12-0.43,0.18c-0.32,0.13-0.64,0.26-0.97,0.38 c-0.12,0.04-0.23,0.09-0.35,0.13c-0.45,0.16-0.92,0.32-1.41,0.47c-0.1,0.03-0.2,0.06-0.31,0.09c-0.4,0.12-0.8,0.23-1.22,0.35 c-0.17,0.04-0.34,0.09-0.51,0.13c-0.38,0.1-0.76,0.19-1.15,0.28c-0.17,0.04-0.35,0.08-0.52,0.12c-0.51,0.11-1.04,0.22-1.58,0.32 c-0.05,0.01-0.1,0.02-0.15,0.03c-0.59,0.11-1.21,0.21-1.83,0.31c-0.18,0.03-0.37,0.05-0.56,0.08c-0.41,0.06-0.83,0.12-1.26,0.17 c-0.45,0.06-0.91,0.11-1.37,0.16c-0.33,0.04-0.66,0.08-0.99,0.11c-0.49,0.05-0.99,0.09-1.5,0.14c-0.33,0.03-0.65,0.06-0.99,0.09 c-0.57,0.04-1.15,0.08-1.74,0.12c-0.29,0.02-0.58,0.04-0.88,0.06c-0.89,0.05-1.8,0.09-2.74,0.12l-75.34,2.63l8.04,2.58 l75.34-2.63c0.94-0.03,1.85-0.07,2.74-0.12c0.3-0.02,0.58-0.04,0.87-0.06c0.59-0.04,1.18-0.07,1.74-0.12 c0.33-0.03,0.65-0.06,0.98-0.08c0.51-0.04,1.02-0.09,1.51-0.14c0.33-0.03,0.66-0.07,0.98-0.11c0.46-0.05,0.92-0.11,1.37-0.17 c0.14-0.02,0.29-0.03,0.43-0.05c0.28-0.04,0.55-0.08,0.83-0.12c0.19-0.03,0.38-0.05,0.56-0.08c0.63-0.1,1.24-0.2,1.83-0.31 c0.05-0.01,0.1-0.02,0.15-0.03c0.54-0.1,1.06-0.21,1.58-0.32c0.18-0.04,0.35-0.08,0.52-0.12c0.39-0.09,0.78-0.18,1.15-0.28 c0.17-0.04,0.35-0.09,0.51-0.13c0.42-0.11,0.82-0.23,1.21-0.34c0.1-0.03,0.21-0.06,0.31-0.09c0.48-0.15,0.95-0.31,1.41-0.47 c0.12-0.04,0.23-0.09,0.35-0.13c0.23-0.08,0.46-0.17,0.67-0.25c0.1-0.04,0.2-0.09,0.3-0.13c0.14-0.06,0.29-0.12,0.43-0.18 c0.29-0.13,0.57-0.26,0.85-0.39c0.12-0.06,0.24-0.12,0.36-0.18c0.38-0.19,0.75-0.39,1.1-0.59c0,0,0,0,0,0 c0.3-0.18,0.59-0.36,0.86-0.54c0.04-0.02,0.06-0.05,0.1-0.07c0.25-0.17,0.48-0.34,0.7-0.52c0.11-0.09,0.23-0.17,0.34-0.26 c0.32-0.27,0.63-0.54,0.91-0.83c0.17-0.17,0.33-0.34,0.49-0.51c0.08-0.08,0.15-0.17,0.23-0.26 C792.7,542.64,792.84,542.48,792.98,542.32z" class="st14"/><g><linearGradient id="SVGID_14_" x1="640.153" x2="842.538" y1="475.007" y2="676.687" gradientUnits="userSpaceOnUse"><stop style="stop-color:#ebebeb" offset="0"/><stop style="stop-color:#c5c5c7" offset="1"/></linearGradient><path d="M772.16,444.3c14.86-0.26,24.38-0.2,28.55,0.18c4.17,0.38,8.73,1.53,13.7,3.44 c11.73,4.56,21.01,13.37,27.81,26.46c6.81,12.05,10.24,25.12,10.3,39.23c0.1,24.29-9.84,43.59-29.83,57.88 c20.11,14.45,30.22,35.13,30.33,62.04c0.1,24.82-7.93,43.52-24.09,56.11c-7.19,5.73-14.99,9.73-23.43,11.98 c-8.44,2.25-21.11,3.68-38,4.27l-99.33,3.47l-0.19-46.25l96.63-3.37c13.29-0.46,22.28-3,27-7.61c5.83-5.68,8.72-13.89,8.68-24.6 c-0.05-13.06-3.81-21.95-11.26-26.65c-4.74-2.97-12.98-4.24-24.68-3.84l-75.34,2.63l-0.19-46.25l75.34-2.63 c14.19-0.5,23.41-2.91,27.67-7.23c5.16-5.15,7.72-12.94,7.67-23.4c-0.05-11.49-3.46-19.73-10.24-24.72 c-2.48-2-5.36-3.27-8.63-3.82c-3.27-0.53-8.84-0.67-16.72-0.39l-96.63,3.37l-0.2-46.63L772.16,444.3z" class="st15"/></g><linearGradient id="SVGID_15_" x1="659.053" x2="810.731" y1="468.088" y2="468.088" gradientUnits="userSpaceOnUse"><stop style="stop-color:#bdbdbd" offset=".006"/><stop style="stop-color:#d1d1d1" offset="1"/></linearGradient><path d="M802.69,444.05c-3.56-1.14-6.9-1.86-10.02-2.14c-4.17-0.38-13.69-0.44-28.55-0.18l-105.07,3.67l0.2,46.63 l8.04,2.58l-0.2-46.63l105.07-3.67c14.86-0.26,24.38-0.2,28.55,0.18c3.12,0.29,6.46,1,10.02,2.14L802.69,444.05z" class="st16"/><g><linearGradient id="SVGID_16_" x1="664.07" x2="664.07" y1="709.364" y2="660.539" gradientUnits="userSpaceOnUse"><stop style="stop-color:#ccc" offset="0"/><stop style="stop-color:#cdcdcf" offset="1"/></linearGradient><polygon points="668.19 709.36 660.15 706.79 659.95 660.54 667.99 663.12" class="st17"/></g><g><linearGradient id="SVGID_17_" x1="684.897" x2="684.897" y1="550.85" y2="599.675" gradientUnits="userSpaceOnUse"><stop style="stop-color:#b8b8b8" offset="0"/><stop style="stop-color:#bfbfbf" offset="1"/></linearGradient><polygon points="689.01 599.68 680.97 597.1 680.78 550.85 688.82 553.43" class="st18"/></g></g><g><linearGradient id="SVGID_18_" x1="468.479" x2="480.602" y1="601.248" y2="572.82" gradientUnits="userSpaceOnUse"><stop style="stop-color:#de6900" offset="0"/><stop style="stop-color:#faae44" offset=".723"/></linearGradient><path d="M467.11,592.81c0.04-0.31,0.07-0.62,0.13-0.92c0.04-0.19,0.09-0.37,0.13-0.55c0.06-0.27,0.12-0.54,0.2-0.8 c0.06-0.2,0.13-0.38,0.2-0.57c0.08-0.24,0.16-0.49,0.25-0.73c0.08-0.2,0.17-0.38,0.26-0.57c0.1-0.22,0.19-0.45,0.31-0.67 c0.1-0.19,0.21-0.37,0.31-0.55c0.12-0.21,0.23-0.43,0.36-0.63c0.11-0.18,0.24-0.34,0.36-0.51c0.14-0.2,0.27-0.4,0.42-0.59 c0.13-0.16,0.27-0.32,0.4-0.47c0.16-0.18,0.31-0.37,0.47-0.55c0.07-0.08,0.15-0.14,0.22-0.22c0.27-0.28,0.55-0.55,0.84-0.81 c0.13-0.11,0.27-0.22,0.4-0.33c0.25-0.2,0.51-0.4,0.77-0.59c0.16-0.11,0.32-0.22,0.49-0.33c0.22-0.14,0.44-0.27,0.67-0.4 c0.18-0.1,0.36-0.2,0.54-0.29c0.23-0.12,0.47-0.23,0.71-0.33c0.18-0.08,0.36-0.16,0.55-0.23c0.33-0.13,0.67-0.24,1.01-0.34 c0.14-0.04,0.28-0.09,0.42-0.13c0.49-0.13,0.98-0.23,1.49-0.3c0.44-0.06,0.88-0.1,1.33-0.12c1.52-0.05,2.99,0.16,4.35,0.6 l-4.19-1.34c-1.37-0.44-2.83-0.65-4.35-0.6c-0.44,0.02-0.87,0.05-1.3,0.11c-0.01,0-0.02,0-0.03,0.01c-0.5,0.07-1,0.17-1.49,0.3 c-0.14,0.04-0.28,0.09-0.42,0.13c-0.34,0.1-0.68,0.21-1.01,0.34c-0.06,0.02-0.13,0.04-0.2,0.07c-0.12,0.05-0.23,0.11-0.34,0.16 c-0.24,0.1-0.48,0.21-0.71,0.33c-0.18,0.09-0.36,0.19-0.54,0.29c-0.23,0.13-0.45,0.26-0.67,0.4c-0.09,0.06-0.19,0.11-0.28,0.17 c-0.07,0.05-0.14,0.11-0.21,0.16c-0.27,0.19-0.52,0.38-0.77,0.59c-0.13,0.11-0.27,0.21-0.4,0.32c-0.29,0.26-0.57,0.53-0.84,0.81 c-0.06,0.06-0.13,0.12-0.19,0.18c-0.01,0.01-0.02,0.03-0.03,0.04c-0.16,0.17-0.31,0.36-0.46,0.54c-0.14,0.16-0.28,0.32-0.41,0.48 c-0.15,0.19-0.28,0.39-0.41,0.59c-0.12,0.17-0.25,0.34-0.36,0.52c-0.13,0.21-0.24,0.42-0.37,0.64c-0.1,0.18-0.21,0.36-0.31,0.54 c-0.11,0.22-0.21,0.46-0.31,0.69c-0.08,0.19-0.17,0.37-0.25,0.55c-0.1,0.24-0.17,0.49-0.26,0.74c-0.06,0.19-0.14,0.37-0.19,0.56 c-0.08,0.26-0.13,0.53-0.19,0.8c-0.04,0.19-0.1,0.37-0.13,0.55c-0.06,0.3-0.09,0.61-0.13,0.92c-0.02,0.16-0.05,0.32-0.07,0.48 c-0.04,0.47-0.07,0.95-0.06,1.44c0.03,6.14,3.84,11.21,9.13,12.91l4.19,1.34c-5.29-1.7-9.1-6.77-9.13-12.91 c0-0.48,0.02-0.96,0.06-1.44C467.06,593.12,467.09,592.97,467.11,592.81z" class="st19"/><linearGradient id="SVGID_19_" x1="465.267" x2="492.863" y1="568.045" y2="615.843" gradientUnits="userSpaceOnUse"><stop style="stop-color:#f2ca4d" offset=".078"/><stop style="stop-color:#f25c19" offset="1"/></linearGradient><path d="M480.34,580.28c7.42-0.26,13.45,5.78,13.48,13.5c0.03,7.72-5.95,14.18-13.36,14.44 c-7.42,0.26-13.45-5.78-13.48-13.5C466.95,587,472.93,580.54,480.34,580.28z" class="st20"/></g><g><linearGradient id="SVGID_20_" x1="478.348" x2="519.333" y1="593.497" y2="593.497" gradientUnits="userSpaceOnUse"><stop style="stop-color:#ffcb8f" offset=".017"/><stop style="stop-color:#ff9869" offset="1"/></linearGradient><path d="M517.24,588.76c-0.39-0.13-0.81-0.19-1.25-0.17l-33.76,1.18c-0.13,0-0.25,0.02-0.37,0.03 c-0.06,0.01-0.11,0.03-0.17,0.05c-0.19,0.03-0.37,0.08-0.55,0.14c-0.06,0.02-0.13,0.03-0.19,0.05c-0.04,0.02-0.07,0.04-0.11,0.06 c-0.14,0.06-0.28,0.14-0.41,0.22c-0.07,0.04-0.15,0.07-0.22,0.12c-0.02,0.02-0.04,0.04-0.07,0.06c-0.2,0.14-0.38,0.3-0.55,0.47 c-0.03,0.03-0.06,0.05-0.09,0.08c0,0-0.01,0.01-0.01,0.01c-0.1,0.11-0.19,0.24-0.28,0.36c-0.07,0.09-0.14,0.17-0.2,0.27 c-0.09,0.14-0.15,0.29-0.22,0.43c-0.05,0.09-0.1,0.18-0.14,0.27c-0.07,0.16-0.11,0.34-0.15,0.51c-0.02,0.09-0.06,0.17-0.08,0.26 c-0.05,0.27-0.08,0.54-0.08,0.82c0.01,1.79,1.12,3.27,2.66,3.76l2.1,0.67c-1.54-0.49-2.65-1.97-2.66-3.76 c0-0.28,0.03-0.56,0.08-0.82c0.02-0.09,0.05-0.16,0.07-0.25c0.05-0.18,0.09-0.36,0.16-0.53c0.04-0.1,0.1-0.18,0.14-0.28 c0.07-0.14,0.13-0.29,0.22-0.43c0.06-0.1,0.14-0.18,0.2-0.27c0.09-0.12,0.17-0.24,0.27-0.35c0.03-0.03,0.07-0.06,0.1-0.09 c0.17-0.17,0.35-0.33,0.55-0.47c0.09-0.06,0.19-0.12,0.28-0.17c0.13-0.08,0.27-0.16,0.41-0.22c0.1-0.04,0.2-0.07,0.3-0.11 c0.18-0.06,0.36-0.11,0.54-0.14c0.18-0.03,0.36-0.07,0.54-0.08l33.76-1.18c0.44-0.02,0.86,0.05,1.25,0.17L517.24,588.76z" class="st21"/><linearGradient id="SVGID_21_" x1="446.681" x2="528.031" y1="581.31" y2="600.12" gradientUnits="userSpaceOnUse"><stop style="stop-color:#fee38d" offset=".011"/><stop style="stop-color:#f25c19" offset="1"/></linearGradient><path d="M518.08,589.26c2.14-0.07,3.92,1.7,3.93,3.93c0.01,2.25-1.75,4.13-3.89,4.21l-33.76,1.18 c-2.14,0.07-3.91-1.69-3.91-3.93c-0.01-2.23,1.74-4.13,3.88-4.21L518.08,589.26z" class="st22"/></g></g></g></svg>