<svg xmlns="http://www.w3.org/2000/svg" xmlns:xlink="http://www.w3.org/1999/xlink" style="enable-background:new 0 0 1024 1024" x="0" y="0" version="1.1" viewBox="0 0 1024 1024" xml:space="preserve"><style type="text/css">.st2{fill:url(#SVGID_1_)}.st7{fill:url(#SVGID_6_)}.st8{fill:url(#SVGID_7_)}.st9{fill:url(#SVGID_8_)}.st10{fill:url(#SVGID_9_)}.st11{fill:url(#SVGID_10_)}.st12{fill:url(#SVGID_11_)}.st13{fill:url(#SVGID_12_)}.st14{fill:url(#SVGID_13_)}.st15{fill:url(#SVGID_14_)}.st16{fill:url(#SVGID_15_)}.st17{fill:url(#SVGID_16_)}.st18{fill:url(#SVGID_17_)}.st19{fill:url(#SVGID_18_)}</style><g id="_x34_04_1_"><linearGradient id="SVGID_1_" x1="512" x2="512" y1="762.474" y2="822.465" gradientUnits="userSpaceOnUse"><stop style="stop-color:#e8e8e8" offset="0"/><stop style="stop-color:#f8f8f8;stop-opacity:.5" offset=".6"/><stop style="stop-color:#fff;stop-opacity:0" offset="1"/></linearGradient><path d="M735.24,822.46c0-16.56-99.95-59.99-223.24-59.99s-223.24,43.43-223.24,59.99H735.24z" class="st2"/><g><linearGradient id="SVGID_2_" x1="361.267" x2="361.267" y1="211.806" y2="374.691" gradientUnits="userSpaceOnUse"><stop style="stop-color:#e8e8e8" offset="0"/><stop style="stop-color:#f9f9f9;stop-opacity:.1" offset=".6"/><stop style="stop-color:#fff;stop-opacity:0" offset="1"/></linearGradient><path d="M490.07,316.8c0-25.47-20.42-46.17-45.78-46.63c0.65-3.18,1-6.47,1-9.84 c0-26.8-21.73-48.53-48.53-48.53c-18.02,0-33.73,9.83-42.1,24.41c-5.16-2.26-10.85-3.52-16.84-3.52 c-17.85,0-33.08,11.12-39.19,26.81c-2.71-0.39-5.47-0.6-8.29-0.6c-31.97,0-57.89,25.92-57.89,57.89 c0,31.97,25.92,57.89,57.89,57.89c12.99,0,24.98-4.28,34.64-11.5h113.44c1.64,0.17,3.3,0.27,4.99,0.27c1.69,0,3.35-0.09,4.99-0.27 l0,0l0,0C471.83,360.7,490.07,340.88,490.07,316.8z" style="fill:url(#SVGID_2_)"/><linearGradient id="SVGID_3_" x1="599.607" x2="599.607" y1="199.806" y2="412.185" gradientUnits="userSpaceOnUse"><stop style="stop-color:#e8e8e8" offset="0"/><stop style="stop-color:#f6f6f6;stop-opacity:.1" offset=".8"/><stop style="stop-color:#fff;stop-opacity:0" offset="1"/></linearGradient><path d="M791.54,336.24c0-35.03-28.4-63.43-63.43-63.43c-4.51,0-8.91,0.48-13.15,1.37 c-7.38-42.25-44.22-74.38-88.59-74.38c-32.19,0-60.41,16.92-76.31,42.34c-3.05-0.43-6.16-0.67-9.33-0.67 c-26.26,0-48.95,15.28-59.67,37.43c-2.17-0.21-4.36-0.33-6.58-0.33c-36.89,0-66.8,29.91-66.8,66.8c0,36.89,29.91,66.8,66.8,66.8 c14.82,0,28.5-4.83,39.58-13h206.23c2.56,0.32,5.17,0.49,7.82,0.49c2.62,0,5.2-0.18,7.74-0.49h0.32v-0.04 C767.39,395.18,791.54,368.54,791.54,336.24z" style="fill:url(#SVGID_3_)"/></g><g><g><linearGradient id="SVGID_4_" x1="448.486" x2="644.655" y1="508.578" y2="681.737" gradientUnits="userSpaceOnUse"><stop style="stop-color:#fee38d" offset="0"/><stop style="stop-color:#f25c19" offset=".847"/></linearGradient><path d="M430.43,529.81c-6.97,14.13-10.9,30.02-10.9,46.83c0,58.58,47.48,106.06,106.06,106.06 s106.06-47.48,106.06-106.06c0-58.58-47.48-106.06-106.06-106.06C483.84,470.58,447.73,494.73,430.43,529.81" style="fill:url(#SVGID_4_)"/><g><defs><circle id="SVGID_1073_" cx="525.6" cy="576.71" r="106.06"/></defs><clipPath id="SVGID_5_"><use style="overflow:visible" xlink:href="#SVGID_1073_"/></clipPath><circle cx="609.56" cy="630.99" r="31.85" style="clip-path:url(#SVGID_5_);fill:#e34e0b"/><circle cx="570.28" cy="503.68" r="10.71" style="clip-path:url(#SVGID_5_);fill:#f27a44"/><circle cx="505.13" cy="677.15" r="14.13" style="clip-path:url(#SVGID_5_);fill:#e34e0b"/><path d="M431.02,524.9c-4.66,0-9.04,1.12-12.95,3.05 c-9.66,4.78-16.32,14.71-16.32,26.21c0,16.16,13.1,29.26,29.26,29.26c16.06,0,29.08-12.94,29.25-28.96c0-0.1,0.02-0.2,0.02-0.3 C460.28,538,447.18,524.9,431.02,524.9z" style="clip-path:url(#SVGID_5_);fill:#ffa35c"/><circle cx="527.41" cy="558.46" r="16.23" style="clip-path:url(#SVGID_5_);fill:#ff8a30"/><path d="M431.02,524.9c-4.66,0-9.04,1.12-12.95,3.05 c20.4-2.09,33.24,3.82,42.19,26.51c0-0.1,0.02-0.2,0.02-0.3C460.28,538,447.18,524.9,431.02,524.9z" style="clip-path:url(#SVGID_5_);fill:#fa8e3c"/><path d="M569.21,493.03c-5.41,0.54-9.64,5.1-9.64,10.65 c0,1.27,0.23,2.48,0.64,3.61C560.81,497.93,564.44,495.55,569.21,493.03z" style="clip-path:url(#SVGID_5_);fill:#f26729"/><path d="M622.78,602.02c-4.03-1.84-8.5-2.87-13.22-2.87 c-17.59,0-31.85,14.26-31.85,31.85c0,5.45,1.37,10.57,3.78,15.06C576.33,611.21,599.64,599.14,622.78,602.02z" style="clip-path:url(#SVGID_5_);fill:#d4490b"/><path d="M501.85,663.42c-6.22,1.48-10.84,7.06-10.84,13.73 c0,1.16,0.15,2.28,0.42,3.35C492.92,673.72,496.25,667.4,501.85,663.42z" style="clip-path:url(#SVGID_5_);fill:#d4490b"/><path d="M524.85,542.45c-7.75,1.23-13.67,7.92-13.67,16.01 c0,1.15,0.12,2.28,0.35,3.36C512.93,553.45,517.94,546.04,524.85,542.45z" style="clip-path:url(#SVGID_5_);fill:#ff7d19"/></g><g><linearGradient id="SVGID_6_" x1="422.851" x2="628.336" y1="679.453" y2="473.969" gradientUnits="userSpaceOnUse"><stop style="stop-color:#ffa533" offset=".179"/><stop style="stop-color:#f25c19" offset=".682"/></linearGradient><path d="M668.63,515.95c-5.45-12.82-25.73-16.32-60.29-10.41c-1.38,0.24-2.12,0.37-3.54,0.64 c3.53,3.87,5.93,7.28,8.7,11.18c30.86-4.8,42.18,0.07,43.63,3.48c1.53,3.61-2.62,14.82-27.91,33.92 c-22.78,17.2-55.27,35.14-91.48,50.53c-36.21,15.38-71.68,26.31-99.87,30.77c-31.31,4.95-42.26,0.16-43.79-3.46 c-1.45-3.42,2.62-14.8,27.77-33.81c0,0-1.75-8.41-1.99-13.96c-0.92,0.68-2.07,1.41-2.93,2.04 c-28.24,20.77-39.79,37.8-34.35,50.61c3.73,8.78,14.45,13.19,31.98,13.19c7.26,0,15.69-0.76,25.26-2.27 c29.17-4.61,65.68-15.84,102.81-31.61c37.13-15.77,70.55-34.26,94.12-52.06C663.17,544.78,673.9,528.36,668.63,515.95z" class="st7"/></g></g><g><g><linearGradient id="SVGID_7_" x1="327.329" x2="369.512" y1="614.889" y2="614.889" gradientUnits="userSpaceOnUse"><stop style="stop-color:#a5a5a5" offset="0"/><stop style="stop-color:#bfbfbf" offset="1"/></linearGradient><polygon points="339.33 617.34 327.33 613.49 357.51 612.44 369.51 616.29" class="st8"/></g><g><linearGradient id="SVGID_8_" x1="284.918" x2="284.918" y1="662.138" y2="712.149" gradientUnits="userSpaceOnUse"><stop style="stop-color:#a5a5a5" offset="0"/><stop style="stop-color:#bfbfbf" offset="1"/></linearGradient><polygon points="291.02 712.15 279.01 708.3 278.82 662.14 290.82 665.98" class="st9"/></g><g><linearGradient id="SVGID_9_" x1="284.388" x2="284.388" y1="501.791" y2="619.041" gradientUnits="userSpaceOnUse"><stop style="stop-color:#a5a5a5" offset="0"/><stop style="stop-color:#bfbfbf" offset="1"/></linearGradient><polygon points="290.63 619.04 278.62 615.19 278.15 501.79 290.15 505.64" class="st10"/></g><g><linearGradient id="SVGID_10_" x1="188.746" x2="290.625" y1="618.687" y2="618.687" gradientUnits="userSpaceOnUse"><stop style="stop-color:#a5a5a5" offset="0"/><stop style="stop-color:#bfbfbf" offset="1"/></linearGradient><polygon points="200.75 622.18 188.75 618.33 278.62 615.19 290.63 619.04" class="st11"/></g><linearGradient id="SVGID_11_" x1="189.732" x2="286.152" y1="592.462" y2="459.383" gradientUnits="userSpaceOnUse"><stop style="stop-color:#a5a5a5" offset="0"/><stop style="stop-color:#d1d1d1" offset="1"/></linearGradient><polygon points="338.61 445.05 326.61 441.2 262.46 443.44 134.17 611.08 134.4 667.18 146.4 671.03 146.17 614.93 274.46 447.29" class="st12"/><linearGradient id="SVGID_12_" x1="203.176" x2="367.524" y1="518.877" y2="682.524" gradientUnits="userSpaceOnUse"><stop style="stop-color:#ebebeb" offset="0"/><stop style="stop-color:#c5c5c7" offset="1"/></linearGradient><path d="M338.61,445.05l0.72,172.29l30.18-1.05l0.2,46.94l-30.18,1.05l0.19,46.16l-48.7,1.7l-0.19-46.16 l-144.42,5.04l-0.23-56.1l128.29-167.64L338.61,445.05z M290.63,619.04l-0.47-113.4l-89.4,116.54L290.63,619.04" class="st13"/></g><g><g><linearGradient id="SVGID_13_" x1="847.453" x2="889.636" y1="614.889" y2="614.889" gradientUnits="userSpaceOnUse"><stop style="stop-color:#a5a5a5" offset="0"/><stop style="stop-color:#bfbfbf" offset="1"/></linearGradient><polygon points="859.45 617.34 847.45 613.49 877.64 612.44 889.64 616.29" class="st14"/></g><g><linearGradient id="SVGID_14_" x1="805.03" x2="805.03" y1="662.138" y2="712.149" gradientUnits="userSpaceOnUse"><stop style="stop-color:#a5a5a5" offset="0"/><stop style="stop-color:#bfbfbf" offset="1"/></linearGradient><polygon points="811.13 712.15 799.13 708.3 798.93 662.14 810.93 665.98" class="st15"/></g><g><linearGradient id="SVGID_15_" x1="804.5" x2="804.5" y1="501.791" y2="619.041" gradientUnits="userSpaceOnUse"><stop style="stop-color:#a5a5a5" offset="0"/><stop style="stop-color:#bfbfbf" offset="1"/></linearGradient><polygon points="810.74 619.04 798.74 615.19 798.26 501.79 810.26 505.64" class="st16"/></g><g><linearGradient id="SVGID_16_" x1="708.87" x2="810.737" y1="618.687" y2="618.687" gradientUnits="userSpaceOnUse"><stop style="stop-color:#a5a5a5" offset="0"/><stop style="stop-color:#bfbfbf" offset="1"/></linearGradient><polygon points="720.87 622.18 708.87 618.33 798.74 615.19 810.74 619.04" class="st17"/></g><linearGradient id="SVGID_17_" x1="653.124" x2="833.068" y1="666.131" y2="425.832" gradientUnits="userSpaceOnUse"><stop style="stop-color:#a5a5a5" offset="0"/><stop style="stop-color:#d1d1d1" offset="1"/></linearGradient><polygon points="858.73 445.05 846.73 441.2 782.58 443.44 654.29 611.08 654.53 667.18 666.53 671.03 666.29 614.93 794.58 447.29" class="st18"/><g><linearGradient id="SVGID_18_" x1="723.287" x2="887.611" y1="518.833" y2="682.584" gradientUnits="userSpaceOnUse"><stop style="stop-color:#ebebeb" offset="0"/><stop style="stop-color:#c5c5c7" offset="1"/></linearGradient><path d="M859.45,617.34l30.18-1.05l0.2,46.94l-30.18,1.05l0.19,46.16l-48.72,1.7l-0.19-46.16l-144.41,5.04 l-0.23-56.1l128.29-167.64l64.15-2.24L859.45,617.34z M810.74,619.04l-0.47-113.4l-89.39,116.54L810.74,619.04" class="st19"/></g></g></g></g></svg>