<svg xmlns="http://www.w3.org/2000/svg" xmlns:xlink="http://www.w3.org/1999/xlink" style="enable-background:new 0 0 1024 1024" x="0" y="0" version="1.1" viewBox="0 0 1024 1024" xml:space="preserve"><style type="text/css">.st2{fill:url(#SVGID_1_)}.st7{fill:url(#SVGID_6_)}.st8{fill:url(#SVGID_7_)}.st9{fill:url(#SVGID_8_)}.st10{fill:url(#SVGID_9_)}</style><g id="加载失败"><linearGradient id="SVGID_1_" x1="512" x2="512" y1="762.474" y2="822.465" gradientUnits="userSpaceOnUse"><stop style="stop-color:#e8e8e8" offset="0"/><stop style="stop-color:#f8f8f8;stop-opacity:.5" offset=".6"/><stop style="stop-color:#fff;stop-opacity:0" offset="1"/></linearGradient><path d="M735.24,822.46c0-16.56-99.95-59.99-223.24-59.99s-223.24,43.43-223.24,59.99H735.24z" class="st2"/><g><linearGradient id="SVGID_2_" x1="361.267" x2="361.267" y1="211.806" y2="374.691" gradientUnits="userSpaceOnUse"><stop style="stop-color:#e8e8e8" offset="0"/><stop style="stop-color:#f9f9f9;stop-opacity:.1" offset=".6"/><stop style="stop-color:#fff;stop-opacity:0" offset="1"/></linearGradient><path d="M490.07,316.8c0-25.47-20.42-46.17-45.78-46.63c0.65-3.18,1-6.47,1-9.84 c0-26.8-21.73-48.53-48.53-48.53c-18.02,0-33.73,9.83-42.1,24.41c-5.16-2.26-10.85-3.52-16.84-3.52 c-17.85,0-33.08,11.12-39.19,26.81c-2.71-0.39-5.47-0.6-8.29-0.6c-31.97,0-57.89,25.92-57.89,57.89 c0,31.97,25.92,57.89,57.89,57.89c12.99,0,24.98-4.28,34.64-11.5h113.44c1.64,0.17,3.3,0.27,4.99,0.27c1.69,0,3.35-0.09,4.99-0.27 l0,0l0,0C471.83,360.7,490.07,340.88,490.07,316.8z" style="fill:url(#SVGID_2_)"/><linearGradient id="SVGID_3_" x1="599.607" x2="599.607" y1="199.806" y2="412.185" gradientUnits="userSpaceOnUse"><stop style="stop-color:#e8e8e8" offset="0"/><stop style="stop-color:#f6f6f6;stop-opacity:.1" offset=".8"/><stop style="stop-color:#fff;stop-opacity:0" offset="1"/></linearGradient><path d="M791.54,336.24c0-35.03-28.4-63.43-63.43-63.43c-4.51,0-8.91,0.48-13.15,1.37 c-7.38-42.25-44.22-74.38-88.59-74.38c-32.19,0-60.41,16.92-76.31,42.34c-3.05-0.43-6.16-0.67-9.33-0.67 c-26.26,0-48.95,15.28-59.67,37.43c-2.17-0.21-4.36-0.33-6.58-0.33c-36.89,0-66.8,29.91-66.8,66.8c0,36.89,29.91,66.8,66.8,66.8 c14.82,0,28.5-4.83,39.58-13h206.23c2.56,0.32,5.17,0.49,7.82,0.49c2.62,0,5.2-0.18,7.74-0.49h0.32v-0.04 C767.39,395.18,791.54,368.54,791.54,336.24z" style="fill:url(#SVGID_3_)"/></g><g><g><linearGradient id="SVGID_4_" x1="336.368" x2="522.524" y1="460.175" y2="460.175" gradientTransform="matrix(0.9997 0.0248 -0.0248 0.9997 11.9871 98.0858)" gradientUnits="userSpaceOnUse"><stop style="stop-color:#a5a5a5" offset="0"/><stop style="stop-color:#d1d1d1" offset="1"/></linearGradient><path d="M520.27,409.98c0.12-0.01,0.24-0.03,0.36-0.04c0.32-0.03,0.64-0.05,0.97-0.06 c0.08,0,0.17-0.01,0.25-0.01c0.4-0.01,0.79,0,1.19,0.03c0.09,0.01,0.19,0.02,0.28,0.02c0.31,0.03,0.63,0.06,0.94,0.11 c0.11,0.02,0.22,0.03,0.33,0.05c0.39,0.07,0.78,0.14,1.17,0.24c0.39,0.1,0.79,0.22,1.17,0.35l-7.39-2.57 c-0.39-0.13-0.78-0.25-1.17-0.35c-0.39-0.1-0.78-0.18-1.17-0.24c-0.11-0.02-0.22-0.03-0.34-0.05c-0.31-0.05-0.62-0.08-0.94-0.11 c-0.09-0.01-0.19-0.02-0.28-0.02c-0.39-0.02-0.79-0.03-1.19-0.03c-0.08,0-0.17,0.01-0.25,0.01c-0.32,0.01-0.64,0.03-0.96,0.06 c-0.06,0.01-0.13,0.01-0.19,0.01c-0.06,0.01-0.12,0.02-0.18,0.03c-0.25,0.03-0.5,0.07-0.74,0.11c-0.11,0.02-0.23,0.04-0.34,0.06 c-0.36,0.07-0.71,0.15-1.07,0.25c-0.39,0.11-0.78,0.24-1.17,0.38c-0.05,0.02-0.1,0.03-0.14,0.05c-0.05,0.02-0.1,0.05-0.15,0.07 c-0.44,0.17-0.89,0.36-1.32,0.57c-0.02,0.01-0.03,0.02-0.05,0.02c-0.42,0.21-0.83,0.45-1.24,0.7c-0.05,0.03-0.1,0.05-0.15,0.09 c-0.03,0.02-0.06,0.05-0.09,0.07c-0.41,0.27-0.81,0.56-1.2,0.87c-0.07,0.06-0.15,0.12-0.22,0.18c-0.4,0.33-0.8,0.68-1.17,1.06 c-0.01,0.01-0.03,0.03-0.04,0.04c-0.13,0.14-0.26,0.28-0.39,0.42c-0.1,0.11-0.21,0.22-0.31,0.34c-0.14,0.16-0.28,0.34-0.41,0.51 c-0.09,0.11-0.18,0.22-0.27,0.33c-0.15,0.19-0.29,0.4-0.43,0.6c-0.07,0.1-0.14,0.2-0.21,0.3c-0.21,0.31-0.4,0.63-0.59,0.96 l-82.85,144.76l-82.85,144.76c-5.17,9.04-0.86,19.89,7.76,22.88l7.39,2.57c-8.61-3-12.92-13.84-7.76-22.88l82.85-144.76 l82.85-144.76c0.19-0.33,0.39-0.65,0.59-0.96c0.07-0.1,0.14-0.2,0.21-0.3c0.14-0.2,0.28-0.41,0.43-0.6 c0.09-0.12,0.19-0.23,0.28-0.34c0.13-0.17,0.26-0.34,0.4-0.49c0.1-0.12,0.21-0.23,0.32-0.35c0.14-0.15,0.28-0.31,0.42-0.45 c0.38-0.38,0.77-0.73,1.17-1.06c0.07-0.06,0.15-0.12,0.22-0.18c0.39-0.31,0.79-0.6,1.2-0.87c0.08-0.05,0.16-0.1,0.25-0.15 c0.4-0.25,0.81-0.49,1.23-0.7c0.02-0.01,0.03-0.02,0.05-0.03c0.43-0.21,0.87-0.4,1.32-0.57c0.1-0.04,0.2-0.08,0.29-0.11 c0.39-0.14,0.78-0.27,1.17-0.38c0.35-0.1,0.71-0.18,1.07-0.25c0.11-0.02,0.23-0.04,0.34-0.06 C519.77,410.05,520.02,410.01,520.27,409.98z" style="fill:url(#SVGID_4_)"/><g><linearGradient id="SVGID_5_" x1="343.821" x2="693.764" y1="461.712" y2="461.712" gradientTransform="matrix(0.9997 0.0248 -0.0248 0.9997 11.9871 98.0858)" gradientUnits="userSpaceOnUse"><stop style="stop-color:#ebebeb" offset="0"/><stop style="stop-color:#c5c5c7" offset="1"/></linearGradient><path d="M611.93,560.81l76.93,143.14c5.66,10.53-1.96,23.83-13.71,23.95l-159.78,1.62 l-159.78,1.62c-11.76,0.12-18.82-13.03-12.73-23.68l82.85-144.76l82.85-144.76c0.76-1.33,1.66-2.5,2.65-3.5 c1.99-2.01,4.39-3.35,6.9-4.04c2.52-0.69,5.16-0.71,7.64-0.08c3.73,0.95,7.12,3.4,9.24,7.35L611.93,560.81z" style="fill:url(#SVGID_5_)"/></g></g><g><linearGradient id="SVGID_6_" x1="522.732" x2="501.872" y1="652.248" y2="456.311" gradientUnits="userSpaceOnUse"><stop style="stop-color:#e36905" offset="0"/><stop style="stop-color:#fabb6a" offset="1"/></linearGradient><path d="M522.46,484.81c-2.95-0.95-6.11-1.41-9.39-1.29c-0.49,0.02-0.97,0.05-1.45,0.09 c-0.16,0.01-0.32,0.04-0.48,0.05c-0.29,0.03-0.58,0.06-0.87,0.1c-0.03,0-0.05,0.01-0.08,0.01c-0.54,0.08-1.09,0.17-1.62,0.27 c-0.12,0.02-0.24,0.05-0.35,0.08c-0.42,0.09-0.83,0.18-1.24,0.29c-0.18,0.05-0.36,0.1-0.55,0.15c-0.35,0.1-0.69,0.2-1.03,0.31 c-0.19,0.06-0.38,0.12-0.57,0.19c-0.34,0.12-0.67,0.24-1.01,0.37c-0.12,0.05-0.24,0.08-0.35,0.13c-0.06,0.03-0.12,0.06-0.19,0.08 c-0.28,0.11-0.55,0.24-0.83,0.36c-0.19,0.08-0.38,0.16-0.56,0.25c-0.29,0.14-0.58,0.28-0.86,0.43c-0.16,0.08-0.33,0.16-0.49,0.25 c-0.34,0.18-0.67,0.37-1.01,0.57c-0.1,0.06-0.21,0.12-0.31,0.18c-0.43,0.26-0.86,0.53-1.28,0.81c-0.01,0.01-0.02,0.01-0.03,0.02 c-0.06,0.04-0.11,0.08-0.17,0.12c-0.38,0.26-0.75,0.52-1.11,0.8c-0.14,0.11-0.29,0.22-0.43,0.33c-0.28,0.22-0.57,0.45-0.84,0.68 c-0.15,0.13-0.3,0.26-0.45,0.39c-0.26,0.23-0.52,0.47-0.78,0.7c-0.14,0.13-0.29,0.27-0.43,0.4c-0.28,0.27-0.55,0.54-0.81,0.82 c-0.09,0.09-0.18,0.17-0.26,0.26c-0.02,0.03-0.05,0.05-0.07,0.08c-0.17,0.18-0.34,0.38-0.51,0.56c-0.16,0.18-0.31,0.35-0.47,0.53 c-0.16,0.19-0.32,0.39-0.48,0.59c-0.15,0.18-0.3,0.37-0.45,0.55c-0.16,0.2-0.3,0.41-0.45,0.61c-0.14,0.19-0.28,0.38-0.42,0.57 c-0.15,0.21-0.29,0.43-0.43,0.64c-0.13,0.19-0.26,0.39-0.39,0.58c-0.14,0.22-0.27,0.44-0.4,0.66c-0.12,0.2-0.25,0.4-0.36,0.6 c-0.13,0.22-0.25,0.45-0.37,0.68c-0.11,0.21-0.23,0.41-0.34,0.62c-0.12,0.23-0.23,0.46-0.34,0.69c-0.1,0.21-0.21,0.43-0.31,0.64 c-0.11,0.24-0.21,0.48-0.31,0.72c-0.09,0.22-0.19,0.43-0.28,0.65c-0.1,0.25-0.19,0.49-0.28,0.74c-0.08,0.22-0.17,0.44-0.24,0.66 c-0.09,0.25-0.16,0.51-0.25,0.76c-0.07,0.22-0.15,0.45-0.21,0.67c-0.08,0.26-0.14,0.53-0.21,0.8c-0.06,0.22-0.12,0.44-0.18,0.66 c-0.07,0.28-0.12,0.56-0.18,0.84c-0.05,0.22-0.1,0.43-0.14,0.65c-0.06,0.29-0.1,0.59-0.15,0.89c-0.03,0.21-0.07,0.41-0.1,0.62 c-0.05,0.32-0.08,0.64-0.11,0.95c-0.02,0.19-0.05,0.38-0.07,0.58c-0.03,0.34-0.05,0.68-0.07,1.02c-0.01,0.18-0.03,0.36-0.04,0.54 c-0.02,0.52-0.03,1.04-0.03,1.57l13.17,129.14c0.01,3.39,2.15,6.22,5.08,7.16l7.45,2.39c-2.93-0.94-5.07-3.77-5.08-7.16 l-13.17-129.14c0-0.52,0.01-1.05,0.03-1.57c0.01-0.19,0.03-0.37,0.04-0.56c0.02-0.33,0.04-0.66,0.07-0.99 c0.02-0.21,0.05-0.41,0.07-0.62c0.03-0.3,0.07-0.61,0.11-0.91c0.03-0.22,0.07-0.44,0.11-0.66c0.05-0.28,0.09-0.57,0.14-0.85 c0.04-0.23,0.1-0.45,0.15-0.67c0.06-0.27,0.11-0.54,0.18-0.81c0.05-0.22,0.12-0.44,0.18-0.67c0.07-0.27,0.14-0.53,0.21-0.79 c0.07-0.22,0.14-0.44,0.21-0.66c0.08-0.26,0.16-0.52,0.25-0.77c0.08-0.22,0.16-0.44,0.24-0.65c0.09-0.25,0.18-0.5,0.28-0.75 c0.09-0.22,0.18-0.43,0.27-0.64c0.1-0.24,0.2-0.49,0.31-0.73c0.1-0.21,0.2-0.42,0.3-0.63c0.11-0.24,0.22-0.47,0.34-0.71 c0.11-0.21,0.22-0.42,0.34-0.62c0.12-0.23,0.24-0.46,0.37-0.68c0.12-0.21,0.24-0.41,0.36-0.61c0.13-0.22,0.26-0.44,0.4-0.66 c0.13-0.2,0.26-0.39,0.39-0.59c0.14-0.21,0.28-0.43,0.43-0.64c0.14-0.19,0.28-0.38,0.42-0.57c0.15-0.2,0.3-0.41,0.45-0.61 c0.15-0.19,0.3-0.37,0.45-0.55c0.16-0.2,0.31-0.39,0.48-0.59c0.15-0.18,0.31-0.35,0.47-0.53c0.17-0.19,0.33-0.38,0.51-0.56 c0.11-0.12,0.22-0.23,0.33-0.34c0.27-0.28,0.54-0.55,0.81-0.82c0.14-0.14,0.28-0.27,0.43-0.4c0.26-0.24,0.52-0.47,0.78-0.7 c0.15-0.13,0.3-0.26,0.45-0.39c0.28-0.23,0.56-0.46,0.84-0.68c0.14-0.11,0.29-0.23,0.43-0.34c0.36-0.27,0.73-0.54,1.11-0.79 c0.07-0.05,0.14-0.1,0.21-0.15c0.42-0.28,0.84-0.55,1.27-0.81c0.1-0.06,0.21-0.12,0.31-0.18c0.33-0.19,0.66-0.39,1-0.57 c0.16-0.09,0.33-0.17,0.5-0.25c0.28-0.15,0.57-0.29,0.86-0.43c0.19-0.09,0.38-0.17,0.56-0.25c0.27-0.12,0.55-0.24,0.82-0.36 c0.18-0.07,0.36-0.14,0.54-0.21c0.33-0.13,0.67-0.25,1-0.37c0.19-0.07,0.38-0.13,0.57-0.19c0.34-0.11,0.68-0.21,1.03-0.31 c0.18-0.05,0.37-0.1,0.55-0.15c0.41-0.11,0.82-0.2,1.24-0.29c0.12-0.03,0.24-0.06,0.36-0.08c0.54-0.11,1.08-0.2,1.62-0.27 c0.31-0.04,0.63-0.08,0.95-0.11c0.16-0.02,0.32-0.04,0.48-0.05c0.48-0.04,0.97-0.07,1.45-0.09c3.28-0.11,6.44,0.35,9.39,1.29 L522.46,484.81z" class="st7"/><linearGradient id="SVGID_7_" x1="473.191" x2="568.762" y1="522.365" y2="617.603" gradientUnits="userSpaceOnUse"><stop style="stop-color:#fee38d" offset="0"/><stop style="stop-color:#f25c19" offset="1"/></linearGradient><path d="M520.52,485.91c16.06-0.56,29.27,12.66,29.34,29.39l-12.09,130.02c0.02,4.26-3.32,7.87-7.41,8.01 l-18.28,0.64c-4.09,0.14-7.45-3.23-7.47-7.49l-13.17-129.14C491.37,500.62,504.46,486.47,520.52,485.91z" class="st8"/><linearGradient id="SVGID_8_" x1="500.56" x2="516.842" y1="700.826" y2="659.969" gradientUnits="userSpaceOnUse"><stop style="stop-color:#d4490b" offset="0"/><stop style="stop-color:#f2a13f" offset="1"/></linearGradient><path d="M500.62,684.36c0.02-0.25,0.03-0.5,0.05-0.74c0.01-0.15,0.03-0.29,0.05-0.44c0.02-0.22,0.05-0.44,0.08-0.66 c0.02-0.15,0.05-0.31,0.08-0.46c0.03-0.2,0.06-0.41,0.1-0.61c0.03-0.17,0.07-0.33,0.11-0.49c0.04-0.19,0.08-0.38,0.12-0.57 c0.04-0.16,0.09-0.32,0.13-0.49c0.05-0.19,0.1-0.37,0.15-0.56c0.05-0.16,0.1-0.31,0.15-0.47c0.06-0.18,0.11-0.37,0.18-0.55 c0.05-0.16,0.12-0.31,0.17-0.47c0.07-0.18,0.13-0.35,0.2-0.53c0.06-0.16,0.13-0.31,0.2-0.46c0.07-0.17,0.14-0.35,0.22-0.52 c0.07-0.15,0.14-0.29,0.21-0.44c0.08-0.17,0.16-0.34,0.25-0.51c0.07-0.15,0.16-0.29,0.23-0.43c0.09-0.16,0.17-0.33,0.27-0.49 c0.08-0.14,0.17-0.29,0.26-0.43c0.09-0.16,0.19-0.32,0.29-0.47c0.09-0.14,0.18-0.28,0.27-0.41c0.1-0.15,0.2-0.31,0.31-0.46 c0.09-0.13,0.19-0.27,0.29-0.4c0.11-0.15,0.22-0.3,0.33-0.44c0.1-0.13,0.21-0.26,0.31-0.39c0.11-0.14,0.22-0.28,0.34-0.42 c0.11-0.13,0.22-0.25,0.33-0.38c0.12-0.13,0.24-0.27,0.36-0.4c0.08-0.08,0.16-0.16,0.23-0.24c0.19-0.2,0.38-0.39,0.58-0.58 c0.1-0.1,0.2-0.19,0.3-0.29c0.18-0.17,0.36-0.33,0.55-0.5c0.11-0.09,0.22-0.19,0.33-0.28c0.19-0.16,0.39-0.32,0.58-0.47 c0.11-0.08,0.21-0.17,0.32-0.25c0.24-0.18,0.48-0.35,0.73-0.52c0.07-0.05,0.13-0.09,0.2-0.14c0.3-0.2,0.6-0.39,0.91-0.58 c0.03-0.02,0.07-0.04,0.1-0.06c0.27-0.16,0.55-0.32,0.84-0.47c0.11-0.06,0.22-0.11,0.33-0.17c0.21-0.11,0.42-0.21,0.63-0.31 c0.13-0.06,0.26-0.12,0.39-0.17c0.2-0.09,0.4-0.18,0.6-0.26c0.12-0.05,0.25-0.1,0.37-0.14c0.24-0.09,0.48-0.18,0.73-0.27 c0.13-0.05,0.27-0.09,0.41-0.13c0.24-0.08,0.49-0.15,0.74-0.22c0.13-0.04,0.26-0.07,0.39-0.11c0.29-0.07,0.57-0.14,0.86-0.2 c0.09-0.02,0.19-0.04,0.28-0.06c0.38-0.08,0.77-0.14,1.16-0.19c0.23-0.03,0.46-0.05,0.69-0.08c0.11-0.01,0.22-0.03,0.34-0.04 c0.35-0.03,0.69-0.05,1.04-0.06c2.35-0.08,4.62,0.25,6.73,0.92l-7.45-2.39c-2.11-0.68-4.38-1.01-6.73-0.92 c-0.35,0.01-0.7,0.03-1.04,0.06c-0.11,0.01-0.22,0.03-0.34,0.04c-0.21,0.02-0.43,0.04-0.64,0.07c-0.02,0-0.03,0.01-0.05,0.01 c-0.39,0.05-0.78,0.12-1.16,0.19c-0.1,0.02-0.19,0.04-0.28,0.06c-0.29,0.06-0.57,0.13-0.86,0.2c-0.13,0.03-0.27,0.07-0.4,0.11 c-0.25,0.07-0.49,0.14-0.73,0.22c-0.14,0.04-0.27,0.09-0.41,0.13c-0.24,0.08-0.48,0.17-0.72,0.27c-0.09,0.03-0.17,0.06-0.26,0.09 c-0.04,0.02-0.08,0.04-0.12,0.05c-0.2,0.08-0.4,0.17-0.59,0.26c-0.13,0.06-0.26,0.11-0.39,0.18c-0.21,0.1-0.42,0.21-0.63,0.32 c-0.11,0.06-0.22,0.11-0.33,0.17c-0.29,0.15-0.57,0.31-0.85,0.48c-0.03,0.02-0.06,0.03-0.09,0.05c-0.31,0.18-0.61,0.38-0.91,0.58 c-0.01,0.01-0.02,0.01-0.03,0.02c-0.06,0.04-0.11,0.08-0.17,0.12c-0.25,0.17-0.49,0.34-0.73,0.53c-0.11,0.08-0.21,0.16-0.31,0.24 c-0.2,0.15-0.39,0.31-0.59,0.47c-0.11,0.09-0.22,0.18-0.33,0.28c-0.19,0.16-0.37,0.33-0.55,0.5c-0.1,0.09-0.2,0.19-0.3,0.29 c-0.19,0.19-0.38,0.38-0.57,0.58c-0.06,0.06-0.13,0.12-0.19,0.19c-0.02,0.02-0.03,0.04-0.05,0.06c-0.12,0.13-0.24,0.26-0.35,0.39 c-0.11,0.13-0.23,0.25-0.34,0.38c-0.11,0.13-0.22,0.27-0.33,0.41c-0.11,0.13-0.22,0.26-0.32,0.4c-0.11,0.14-0.21,0.29-0.32,0.43 c-0.1,0.14-0.2,0.27-0.3,0.41c-0.1,0.15-0.2,0.3-0.3,0.45c-0.09,0.14-0.19,0.28-0.28,0.42c-0.1,0.15-0.18,0.3-0.28,0.46 c-0.09,0.15-0.18,0.29-0.26,0.44c-0.09,0.16-0.17,0.32-0.26,0.48c-0.08,0.15-0.16,0.3-0.24,0.45c-0.08,0.16-0.16,0.33-0.24,0.5 c-0.07,0.15-0.15,0.3-0.22,0.46c-0.08,0.17-0.15,0.34-0.22,0.51c-0.07,0.16-0.14,0.31-0.2,0.47c-0.07,0.17-0.13,0.35-0.19,0.52 c-0.06,0.16-0.12,0.32-0.18,0.48c-0.06,0.18-0.12,0.36-0.17,0.54c-0.05,0.16-0.1,0.32-0.15,0.48c-0.05,0.18-0.1,0.37-0.15,0.56 c-0.04,0.16-0.09,0.32-0.13,0.49c-0.05,0.19-0.08,0.38-0.12,0.57c-0.04,0.16-0.07,0.33-0.11,0.49c-0.04,0.2-0.07,0.41-0.1,0.61 c-0.03,0.15-0.05,0.31-0.08,0.46c-0.03,0.22-0.05,0.44-0.08,0.66c-0.02,0.15-0.04,0.29-0.05,0.44c-0.02,0.25-0.04,0.5-0.05,0.74 c-0.01,0.12-0.02,0.24-0.02,0.36c-0.02,0.37-0.02,0.74-0.02,1.12c0.04,9.5,5.95,17.36,14.14,19.99l7.45,2.39 c-8.19-2.63-14.1-10.49-14.14-19.99c0-0.38,0.01-0.75,0.02-1.12C500.6,684.6,500.61,684.48,500.62,684.36z" class="st9"/><linearGradient id="SVGID_9_" x1="506.542" x2="536.158" y1="670.366" y2="699.879" gradientUnits="userSpaceOnUse"><stop style="stop-color:#fee38d" offset="0"/><stop style="stop-color:#f25c19" offset="1"/></linearGradient><path d="M521.26,663.49c11.47-0.4,20.82,8.96,20.87,20.9c0.05,11.95-9.21,21.96-20.69,22.36 c-11.48,0.4-20.82-8.96-20.87-20.91C500.52,673.9,509.78,663.89,521.26,663.49z" class="st10"/></g></g></g></svg>