<svg xmlns="http://www.w3.org/2000/svg" xmlns:xlink="http://www.w3.org/1999/xlink" style="enable-background:new 0 0 1024 1024" x="0" y="0" version="1.1" viewBox="0 0 1024 1024" xml:space="preserve"><style type="text/css">.st2{fill:url(#SVGID_1_)}.st7{fill:url(#SVGID_6_)}.st8{fill:url(#SVGID_7_)}.st9{fill:url(#SVGID_8_)}.st10{fill:url(#SVGID_9_)}.st11{fill:url(#SVGID_10_)}.st13{fill:url(#SVGID_12_)}.st14{fill:url(#SVGID_13_)}.st15{fill:url(#SVGID_14_)}.st16{fill:url(#SVGID_15_)}.st17{fill:url(#SVGID_16_)}.st1009{enable-background:new}.st1415{fill:#7d7d7d}</style><g id="开发中"><linearGradient id="SVGID_1_" x1="512" x2="512" y1="762.474" y2="822.465" gradientUnits="userSpaceOnUse"><stop style="stop-color:#e8e8e8" offset="0"/><stop style="stop-color:#f8f8f8;stop-opacity:.5" offset=".6"/><stop style="stop-color:#fff;stop-opacity:0" offset="1"/></linearGradient><path d="M735.24,822.46c0-16.56-99.95-59.99-223.24-59.99s-223.24,43.43-223.24,59.99H735.24z" class="st2"/><g><linearGradient id="SVGID_2_" x1="361.267" x2="361.267" y1="211.806" y2="374.691" gradientUnits="userSpaceOnUse"><stop style="stop-color:#e8e8e8" offset="0"/><stop style="stop-color:#f9f9f9;stop-opacity:.1" offset=".6"/><stop style="stop-color:#fff;stop-opacity:0" offset="1"/></linearGradient><path d="M490.07,316.8c0-25.47-20.42-46.17-45.78-46.63c0.65-3.18,1-6.47,1-9.84 c0-26.8-21.73-48.53-48.53-48.53c-18.02,0-33.73,9.83-42.1,24.41c-5.16-2.26-10.85-3.52-16.84-3.52 c-17.85,0-33.08,11.12-39.19,26.81c-2.71-0.39-5.47-0.6-8.29-0.6c-31.97,0-57.89,25.92-57.89,57.89 c0,31.97,25.92,57.89,57.89,57.89c12.99,0,24.98-4.28,34.64-11.5h113.44c1.64,0.17,3.3,0.27,4.99,0.27c1.69,0,3.35-0.09,4.99-0.27 l0,0l0,0C471.83,360.7,490.07,340.88,490.07,316.8z" style="fill:url(#SVGID_2_)"/><linearGradient id="SVGID_3_" x1="599.607" x2="599.607" y1="199.806" y2="412.185" gradientUnits="userSpaceOnUse"><stop style="stop-color:#e8e8e8" offset="0"/><stop style="stop-color:#f6f6f6;stop-opacity:.1" offset=".8"/><stop style="stop-color:#fff;stop-opacity:0" offset="1"/></linearGradient><path d="M791.54,336.24c0-35.03-28.4-63.43-63.43-63.43c-4.51,0-8.91,0.48-13.15,1.37 c-7.38-42.25-44.22-74.38-88.59-74.38c-32.19,0-60.41,16.92-76.31,42.34c-3.05-0.43-6.16-0.67-9.33-0.67 c-26.26,0-48.95,15.28-59.67,37.43c-2.17-0.21-4.36-0.33-6.58-0.33c-36.89,0-66.8,29.91-66.8,66.8c0,36.89,29.91,66.8,66.8,66.8 c14.82,0,28.5-4.83,39.58-13h206.23c2.56,0.32,5.17,0.49,7.82,0.49c2.62,0,5.2-0.18,7.74-0.49h0.32v-0.04 C767.39,395.18,791.54,368.54,791.54,336.24z" style="fill:url(#SVGID_3_)"/></g><g><g><linearGradient id="SVGID_4_" x1="408.06" x2="638.559" y1="778.32" y2="778.32" gradientUnits="userSpaceOnUse"><stop style="stop-color:#d9d9d9" offset=".257"/><stop style="stop-color:#ececec" offset=".612"/><stop style="stop-color:#c5c5c7" offset="1"/></linearGradient><path d="M638.37,790.28c0.06-0.11,0.11-0.22,0.14-0.32c0-0.02,0-0.03,0.01-0.05 c0.02-0.08,0.04-0.16,0.04-0.24c0-0.06,0-0.13-0.01-0.19c-0.74-5.74-1.48-11.48-2.22-17.22l-2.22-17.22 c0.02,0.14,0,0.28-0.03,0.42c0,0.01,0,0.03-0.01,0.04c-0.04,0.13-0.11,0.27-0.2,0.4c-0.02,0.03-0.04,0.06-0.06,0.09 c-0.1,0.13-0.21,0.27-0.36,0.4c-0.01,0.01-0.03,0.02-0.04,0.03c-0.14,0.13-0.31,0.26-0.5,0.38c-0.03,0.02-0.06,0.04-0.09,0.06 c-0.2,0.13-0.42,0.26-0.67,0.39c-0.05,0.03-0.1,0.05-0.15,0.08c-0.14,0.07-0.31,0.15-0.47,0.22c-0.21,0.1-0.43,0.19-0.67,0.29 c-0.16,0.06-0.32,0.13-0.49,0.19c-0.25,0.09-0.51,0.19-0.78,0.28c-0.18,0.06-0.37,0.13-0.56,0.19c-0.29,0.09-0.6,0.19-0.92,0.28 c-0.2,0.06-0.4,0.12-0.61,0.18c-0.37,0.1-0.77,0.21-1.17,0.31c-0.19,0.05-0.37,0.1-0.56,0.15c-0.61,0.15-1.25,0.3-1.92,0.45 c-0.05,0.01-0.1,0.02-0.14,0.03c-0.65,0.14-1.32,0.28-2.02,0.42c-0.24,0.05-0.49,0.09-0.73,0.14c-0.55,0.11-1.11,0.21-1.69,0.31 c-0.49,0.09-0.98,0.17-1.5,0.26c-0.08,0.01-0.16,0.03-0.24,0.04c-0.67,0.11-1.37,0.22-2.08,0.33c-0.19,0.03-0.38,0.06-0.57,0.09 c-0.66,0.1-1.33,0.2-2.02,0.3c-0.09,0.01-0.18,0.03-0.28,0.04c-0.77,0.11-1.57,0.22-2.39,0.32c-0.22,0.03-0.44,0.06-0.67,0.09 c-0.64,0.08-1.3,0.16-1.96,0.24c-0.24,0.03-0.47,0.06-0.71,0.09c-0.87,0.1-1.75,0.21-2.66,0.31c-0.13,0.01-0.27,0.03-0.4,0.04 c-0.79,0.09-1.59,0.17-2.41,0.26c-0.29,0.03-0.58,0.06-0.87,0.09c-0.52,0.05-1.06,0.11-1.59,0.16c-0.88,0.09-1.77,0.17-2.68,0.25 c-0.43,0.04-0.86,0.08-1.31,0.12c-0.73,0.07-1.49,0.13-2.24,0.19c-0.5,0.04-0.98,0.08-1.49,0.13c-0.45,0.04-0.91,0.07-1.36,0.11 c-0.71,0.06-1.42,0.11-2.14,0.17c-0.4,0.03-0.8,0.06-1.2,0.09c-0.88,0.07-1.77,0.13-2.68,0.19c-0.18,0.01-0.35,0.03-0.53,0.04 c-1.12,0.08-2.25,0.15-3.4,0.22c-0.22,0.01-0.45,0.03-0.67,0.04c-1.14,0.07-2.29,0.14-3.45,0.21c-0.14,0.01-0.28,0.02-0.42,0.02 c-1.2,0.07-2.42,0.14-3.66,0.2c-0.15,0.01-0.3,0.02-0.45,0.02c-1.24,0.06-2.49,0.13-3.76,0.19c-0.15,0.01-0.31,0.01-0.46,0.02 c-1.25,0.06-2.51,0.12-3.79,0.17c-0.21,0.01-0.41,0.02-0.62,0.03c-1.15,0.05-2.32,0.09-3.5,0.14c-0.26,0.01-0.51,0.02-0.77,0.03 c-1.46,0.05-2.94,0.11-4.43,0.16c-0.8,0.03-1.59,0.05-2.39,0.08c-2.62,0.08-5.24,0.15-7.86,0.21c-0.17,0-0.33,0.01-0.5,0.01 c-0.37,0.01-0.74,0.02-1.12,0.02c-0.53,0.01-1.06,0.02-1.59,0.03c-0.35,0.01-0.7,0.01-1.05,0.02c-0.55,0.01-1.09,0.02-1.64,0.03 c-0.33,0.01-0.66,0.01-0.99,0.02c-0.67,0.01-1.34,0.02-2.01,0.03c-0.09,0-0.18,0-0.26,0c-0.82,0.01-1.64,0.02-2.47,0.03 c-0.15,0-0.31,0-0.46,0.01c-0.83,0.01-1.66,0.02-2.49,0.03c-0.01,0-0.03,0-0.04,0c-0.82,0.01-1.64,0.01-2.46,0.02 c-0.14,0-0.28,0-0.42,0c-0.79,0.01-1.58,0.01-2.37,0.01c-0.16,0-0.32,0-0.48,0c-1.62,0.01-3.23,0.01-4.83,0.01 c-0.21,0-0.41,0-0.62,0c-0.77,0-1.54,0-2.3,0c-0.05,0-0.11,0-0.16,0c-0.81,0-1.62-0.01-2.43-0.01c-0.22,0-0.43,0-0.65,0 c-0.59,0-1.17-0.01-1.76-0.01c-0.29,0-0.58,0-0.87-0.01c-0.48,0-0.95-0.01-1.42-0.01c-0.42,0-0.83-0.01-1.25-0.01 c-0.48-0.01-0.96-0.01-1.45-0.02c-0.4,0-0.8-0.01-1.2-0.01c-0.45-0.01-0.9-0.01-1.35-0.02c-0.44-0.01-0.88-0.01-1.31-0.02 c-0.31,0-0.61-0.01-0.92-0.02c-0.78-0.01-1.56-0.03-2.33-0.04c-0.33-0.01-0.65-0.01-0.97-0.02c-0.85-0.02-1.69-0.03-2.54-0.05 c-0.19,0-0.39-0.01-0.58-0.01c-1.13-0.03-2.26-0.05-3.38-0.08c-0.29-0.01-0.57-0.02-0.86-0.02c-1.21-0.03-2.42-0.07-3.61-0.1 c-0.07,0-0.15,0-0.22-0.01c-1.29-0.04-2.57-0.08-3.84-0.13c-0.18-0.01-0.36-0.01-0.54-0.02c-1.32-0.05-2.62-0.1-3.92-0.15 c-0.21-0.01-0.42-0.02-0.63-0.03c-1.35-0.06-2.68-0.11-4.01-0.18c-0.21-0.01-0.42-0.02-0.63-0.03c-1.34-0.06-2.67-0.13-3.98-0.2 c-0.2-0.01-0.4-0.02-0.59-0.03c-1.37-0.07-2.73-0.15-4.07-0.23c-0.18-0.01-0.36-0.02-0.54-0.03c-1.41-0.08-2.8-0.17-4.17-0.26 c-0.16-0.01-0.33-0.02-0.49-0.03c-1.47-0.1-2.93-0.2-4.35-0.31c-0.09-0.01-0.18-0.01-0.26-0.02c-1.59-0.12-3.14-0.24-4.66-0.37 c-0.21-0.02-0.41-0.03-0.61-0.05c-0.59-0.05-1.17-0.1-1.74-0.15c-0.25-0.02-0.49-0.04-0.74-0.07c-0.63-0.06-1.26-0.12-1.88-0.18 c-0.14-0.01-0.28-0.03-0.42-0.04c-0.84-0.08-1.66-0.16-2.47-0.25c-0.21-0.02-0.41-0.04-0.61-0.06c-0.77-0.08-1.53-0.16-2.27-0.25 c-0.05-0.01-0.1-0.01-0.15-0.02c-1.04-0.12-2.06-0.24-3.05-0.36c-0.08-0.01-0.16-0.02-0.25-0.03c-0.95-0.12-1.87-0.24-2.77-0.36 c-0.12-0.02-0.24-0.03-0.36-0.05c-0.74-0.1-1.47-0.21-2.17-0.31c-0.15-0.02-0.3-0.05-0.45-0.07c-0.71-0.11-1.42-0.22-2.09-0.33 c-0.05-0.01-0.11-0.02-0.16-0.03c-0.65-0.11-1.27-0.22-1.88-0.33c-0.11-0.02-0.23-0.04-0.34-0.06c-0.62-0.11-1.22-0.23-1.8-0.35 c-0.12-0.02-0.23-0.05-0.35-0.07c-0.59-0.12-1.16-0.24-1.7-0.37c-0.03-0.01-0.05-0.01-0.08-0.02c-0.53-0.12-1.03-0.24-1.51-0.37 c-0.09-0.02-0.19-0.05-0.28-0.07c-0.48-0.12-0.93-0.25-1.37-0.38c-0.09-0.03-0.17-0.05-0.25-0.08c-0.44-0.13-0.87-0.27-1.26-0.4 c-3.1-1.06-4.51-2.13-4.38-3.2c-1.39,11.49-2.77,22.99-4.16,34.48c-0.13,1.1,1.33,2.22,4.55,3.32c0.41,0.14,0.85,0.28,1.31,0.42 c0.09,0.03,0.17,0.05,0.26,0.08c0.45,0.13,0.93,0.26,1.42,0.39c0.1,0.02,0.2,0.05,0.29,0.07c0.5,0.13,1.02,0.25,1.57,0.38 c0.03,0.01,0.05,0.01,0.08,0.02c0.56,0.13,1.16,0.26,1.77,0.38c0.12,0.02,0.24,0.05,0.36,0.07c0.6,0.12,1.22,0.24,1.87,0.36 c0.11,0.02,0.23,0.04,0.35,0.06c0.64,0.12,1.29,0.23,1.96,0.34c0.05,0.01,0.11,0.02,0.16,0.03c0.7,0.12,1.43,0.23,2.18,0.34 c0.15,0.02,0.31,0.05,0.46,0.07c0.74,0.11,1.5,0.22,2.27,0.33c0.04,0.01,0.08,0.01,0.13,0.02c0.07,0.01,0.15,0.02,0.22,0.03 c0.94,0.13,1.9,0.26,2.89,0.38c0.09,0.01,0.18,0.02,0.27,0.03c1.03,0.13,2.07,0.25,3.15,0.37c0.01,0,0.02,0,0.03,0 c0.04,0.01,0.09,0.01,0.14,0.01c0.77,0.09,1.56,0.17,2.36,0.26c0.21,0.02,0.42,0.04,0.64,0.07c0.84,0.09,1.7,0.17,2.57,0.26 c0.03,0,0.05,0.01,0.08,0.01c0.11,0.01,0.23,0.02,0.35,0.03c0.65,0.06,1.31,0.12,1.98,0.19c0.25,0.02,0.5,0.04,0.75,0.07 c0.6,0.05,1.21,0.11,1.83,0.16c0.16,0.01,0.32,0.03,0.48,0.04c0.08,0.01,0.16,0.01,0.24,0.02c0.63,0.05,1.27,0.1,1.91,0.16 c0.14,0.01,0.27,0.02,0.41,0.03c0.79,0.06,1.58,0.12,2.38,0.18c0.04,0,0.09,0.01,0.13,0.01c0.06,0,0.12,0.01,0.17,0.01 c1.49,0.11,3,0.22,4.54,0.32c0.07,0,0.13,0.01,0.2,0.01c0.09,0.01,0.19,0.01,0.28,0.02c1.43,0.09,2.87,0.18,4.34,0.27 c0.09,0.01,0.18,0.01,0.27,0.02c0.1,0.01,0.2,0.01,0.3,0.02c1.39,0.08,2.8,0.16,4.22,0.24c0.1,0.01,0.2,0.01,0.3,0.02 c0.1,0.01,0.21,0.01,0.31,0.02c1.36,0.07,2.74,0.14,4.14,0.2c0.1,0,0.2,0.01,0.31,0.02c0.11,0.01,0.23,0.01,0.35,0.02 c1.37,0.06,2.75,0.12,4.14,0.18c0.1,0,0.2,0.01,0.3,0.01c0.13,0.01,0.27,0.01,0.4,0.02c1.34,0.05,2.69,0.11,4.06,0.16 c0.06,0,0.11,0,0.17,0.01c0.12,0,0.24,0.01,0.36,0.01c1.35,0.05,2.7,0.09,4.07,0.14c0.04,0,0.08,0,0.12,0c0.01,0,0.03,0,0.04,0 c1.26,0.04,2.53,0.08,3.81,0.11c0.15,0,0.29,0.01,0.44,0.01c0.13,0,0.26,0.01,0.39,0.01c1.18,0.03,2.36,0.06,3.55,0.09 c0.03,0,0.07,0,0.1,0c0.15,0,0.3,0.01,0.45,0.01c0.89,0.02,1.79,0.04,2.69,0.06c0.15,0,0.29,0.01,0.44,0.01 c0.19,0,0.38,0.01,0.57,0.01c0.8,0.01,1.6,0.03,2.4,0.04c0.21,0,0.43,0.01,0.64,0.01c0.12,0,0.24,0,0.36,0.01 c0.45,0.01,0.89,0.01,1.34,0.02c0.35,0.01,0.69,0.01,1.04,0.02c0.12,0,0.23,0,0.35,0c0.44,0.01,0.88,0.01,1.33,0.02 c0.35,0,0.69,0.01,1.04,0.01c0.13,0,0.26,0,0.39,0c0.44,0,0.89,0.01,1.33,0.01c0.34,0,0.68,0.01,1.02,0.01c0.15,0,0.29,0,0.44,0 c0.31,0,0.61,0,0.92,0.01c0.29,0,0.59,0,0.88,0.01c0.31,0,0.61,0,0.92,0.01c0.23,0,0.46,0,0.69,0c0.14,0,0.29,0,0.43,0 c0.68,0,1.36,0.01,2.05,0.01c0.01,0,0.03,0,0.04,0c0.05,0,0.11,0,0.16,0c0.61,0,1.23,0,1.84,0c0.17,0,0.35,0,0.52,0 c0.23,0,0.45,0,0.68,0c0.25,0,0.5,0,0.75,0c0.57,0,1.14,0,1.72,0c0,0,0,0,0,0c0.57,0,1.15,0,1.72,0c0.26,0,0.53,0,0.79,0 c0.18,0,0.37,0,0.55,0c0.13,0,0.25,0,0.38,0c0.57,0,1.15-0.01,1.73-0.01c0.11,0,0.23,0,0.34,0c0.16,0,0.31,0,0.47,0 c0.31,0,0.61,0,0.92-0.01c0.49,0,0.97-0.01,1.46-0.01c0.08,0,0.16,0,0.24,0c0.02,0,0.04,0,0.06,0c0.59-0.01,1.17-0.01,1.76-0.02 c0.24,0,0.48-0.01,0.72-0.01c0.17,0,0.33,0,0.5-0.01c0.18,0,0.36,0,0.54-0.01c0.59-0.01,1.17-0.02,1.76-0.02 c0.07,0,0.14,0,0.22,0c0.13,0,0.25,0,0.38-0.01c0.39-0.01,0.78-0.01,1.17-0.02c0.26,0,0.53-0.01,0.79-0.01 c0.38-0.01,0.75-0.01,1.13-0.02c0.2,0,0.39-0.01,0.59-0.01c0.33-0.01,0.67-0.01,1-0.02c0.4-0.01,0.79-0.02,1.19-0.02 c0.15,0,0.3-0.01,0.46-0.01c0.37-0.01,0.74-0.02,1.11-0.02c0.41-0.01,0.82-0.02,1.23-0.03c0.1,0,0.2,0,0.31-0.01 c0.06,0,0.12,0,0.19-0.01c2.73-0.06,5.46-0.14,8.19-0.22c0.04,0,0.07,0,0.11,0c0.79-0.02,1.58-0.05,2.36-0.08 c0.17-0.01,0.34-0.01,0.51-0.02c1.31-0.04,2.61-0.09,3.9-0.14c0.05,0,0.11,0,0.16-0.01c0.33-0.01,0.66-0.03,0.99-0.04 c0.89-0.03,1.79-0.07,2.67-0.1c0.26-0.01,0.51-0.02,0.76-0.03c0.24-0.01,0.48-0.02,0.73-0.03c0.34-0.01,0.69-0.03,1.03-0.04 c0.73-0.03,1.46-0.07,2.19-0.1c0.22-0.01,0.43-0.02,0.65-0.03c0.18-0.01,0.36-0.02,0.54-0.03c0.32-0.02,0.65-0.03,0.97-0.05 c0.72-0.03,1.43-0.07,2.13-0.11c0.25-0.01,0.49-0.03,0.73-0.04c0.18-0.01,0.36-0.02,0.54-0.03c0.27-0.01,0.53-0.03,0.8-0.04 c0.68-0.04,1.36-0.07,2.04-0.11c0.3-0.02,0.6-0.03,0.9-0.05c0.16-0.01,0.33-0.02,0.49-0.03c0.21-0.01,0.42-0.02,0.62-0.04 c0.67-0.04,1.33-0.08,1.98-0.12c0.32-0.02,0.62-0.04,0.94-0.06c0.24-0.02,0.49-0.03,0.73-0.05c0.25-0.02,0.5-0.03,0.75-0.05 c0.83-0.05,1.66-0.11,2.48-0.16c0.1-0.01,0.19-0.01,0.29-0.02c0.18-0.01,0.36-0.03,0.55-0.04c0.53-0.04,1.07-0.07,1.59-0.11 c0.4-0.03,0.78-0.06,1.18-0.09c0.42-0.03,0.85-0.06,1.27-0.09c0.23-0.02,0.46-0.03,0.69-0.05c0.52-0.04,1.02-0.08,1.53-0.12 c0.47-0.04,0.94-0.07,1.41-0.11c0.14-0.01,0.28-0.02,0.42-0.03c0.39-0.03,0.76-0.07,1.15-0.1c0.77-0.07,1.55-0.13,2.3-0.2 c0.17-0.02,0.35-0.03,0.52-0.05c0.29-0.03,0.55-0.05,0.83-0.08c0.95-0.09,1.88-0.17,2.79-0.26c0.25-0.02,0.51-0.05,0.75-0.07 c0.3-0.03,0.59-0.06,0.89-0.09c0.3-0.03,0.61-0.06,0.91-0.09c0.85-0.09,1.68-0.18,2.5-0.27c0.13-0.01,0.27-0.03,0.41-0.04 c0.04,0,0.07-0.01,0.11-0.01c0.9-0.1,1.78-0.2,2.65-0.31c0.25-0.03,0.5-0.06,0.74-0.09c0.36-0.04,0.73-0.09,1.09-0.13 c0.32-0.04,0.63-0.08,0.95-0.12c0.23-0.03,0.45-0.06,0.68-0.09c0.81-0.11,1.62-0.21,2.39-0.32c0.03,0,0.06-0.01,0.1-0.01 c0.09-0.01,0.17-0.02,0.26-0.04c0.72-0.1,1.43-0.21,2.12-0.31c0.2-0.03,0.39-0.06,0.59-0.09c0.17-0.03,0.34-0.05,0.5-0.08 c0.57-0.09,1.12-0.18,1.67-0.27c0.08-0.01,0.16-0.03,0.25-0.04c0.39-0.07,0.77-0.13,1.15-0.2c0.26-0.05,0.51-0.09,0.77-0.14 c0.12-0.02,0.25-0.04,0.37-0.07c0.55-0.1,1.08-0.2,1.6-0.3c0.07-0.01,0.12-0.03,0.19-0.04c0.72-0.14,1.42-0.29,2.09-0.43 c0.05-0.01,0.1-0.02,0.15-0.03c0.01,0,0.01,0,0.01,0c0.7-0.15,1.36-0.31,2-0.47c0.04-0.01,0.08-0.02,0.12-0.03 c0.16-0.04,0.3-0.08,0.46-0.12c0.42-0.11,0.83-0.21,1.21-0.32c0.07-0.02,0.15-0.04,0.21-0.06c0.15-0.04,0.27-0.09,0.42-0.13 c0.33-0.1,0.65-0.19,0.95-0.29c0.09-0.03,0.19-0.06,0.27-0.08c0.11-0.04,0.2-0.07,0.31-0.11c0.28-0.1,0.55-0.19,0.81-0.29 c0.1-0.04,0.21-0.07,0.3-0.11c0.14-0.05,0.26-0.11,0.39-0.16c0.05-0.02,0.09-0.04,0.14-0.06c0.23-0.1,0.46-0.2,0.66-0.3 c0.07-0.03,0.13-0.07,0.19-0.1c0.05-0.03,0.1-0.05,0.15-0.08c0.23-0.12,0.44-0.24,0.64-0.36c0.02-0.01,0.04-0.03,0.06-0.04 c0.03-0.02,0.06-0.04,0.09-0.06c0.2-0.13,0.37-0.26,0.52-0.4c0.01-0.01,0.03-0.02,0.04-0.04c0.01-0.01,0.01-0.01,0.02-0.02 c0.14-0.13,0.26-0.26,0.35-0.4c0.02-0.03,0.04-0.06,0.06-0.09C638.32,790.34,638.35,790.31,638.37,790.28z" style="fill:url(#SVGID_4_)"/><g><linearGradient id="SVGID_5_" x1="606.315" x2="440.015" y1="803.626" y2="707.613" gradientUnits="userSpaceOnUse"><stop style="stop-color:#b5b5b5" offset="0"/><stop style="stop-color:#dbdbdb" offset="1"/></linearGradient><path d="M629.72,752.1c17,5.81-16.93,12.1-75.78,14.04s-120.34-1.19-137.34-7.01 c-17-5.81,16.93-12.1,75.78-14.04C551.24,743.15,612.72,746.29,629.72,752.1z M528.53,755.44c-0.86-0.29-3.95-0.45-6.91-0.35 c-2.96,0.1-4.67,0.41-3.81,0.71c0.86,0.29,3.95,0.45,6.91,0.35C527.68,756.05,529.38,755.73,528.53,755.44" style="fill:url(#SVGID_5_)"/></g><linearGradient id="SVGID_6_" x1="427.665" x2="618.954" y1="603.43" y2="603.43" gradientUnits="userSpaceOnUse"><stop style="stop-color:#cbcbcd" offset=".19"/><stop style="stop-color:#f0f0f0" offset=".555"/><stop style="stop-color:#d2d2d3" offset=".853"/></linearGradient><path d="M527.48,447.83C527.48,447.83,527.48,447.84,527.48,447.83c1.43,4.76,91.44,303.47,91.44,303.47 c0.02,0.07,0.03,0.13,0.04,0.2c0,0.05,0,0.11-0.01,0.16c0,0.02-0.04,0.23-0.07,0.32c-0.01,0.02-0.15,0.25-0.23,0.34 c-0.03,0.04-0.04,0.07-0.07,0.11c-0.01,0.01-0.02,0.02-0.03,0.02c-0.13,0.14-0.48,0.42-0.48,0.42c-0.19,0.14-0.41,0.27-0.66,0.41 c-0.01,0.01-0.02,0.01-0.03,0.02c-0.07,0.04-0.59,0.3-0.79,0.39c-0.03,0.01-0.04,0.02-0.07,0.03c-0.1,0.04-0.22,0.09-0.32,0.13 c-0.19,0.08-0.38,0.16-0.59,0.24c-0.04,0.02-0.08,0.03-0.12,0.05c-0.11,0.04-0.24,0.08-0.36,0.12c-0.22,0.08-0.44,0.15-0.68,0.23 c-0.07,0.02-0.12,0.04-0.19,0.06c-0.11,0.04-0.25,0.07-0.37,0.11c-0.25,0.07-0.5,0.15-0.77,0.22c-0.09,0.03-0.17,0.05-0.26,0.08 c-0.11,0.03-0.24,0.06-0.36,0.09c-0.29,0.08-0.58,0.15-0.89,0.22c-0.12,0.03-0.23,0.06-0.36,0.09c-0.1,0.02-0.22,0.05-0.32,0.07 c-0.33,0.08-3.62,0.76-3.66,0.77c-0.69,0.13-1.41,0.26-2.15,0.38c-0.02,0-0.03,0.01-0.05,0.01c-0.1,0.02-0.21,0.03-0.31,0.05 c-0.66,0.11-1.33,0.22-2.03,0.32c-0.1,0.01-0.18,0.03-0.28,0.04c-0.17,0.03-0.35,0.05-0.52,0.08c-0.63,0.09-1.28,0.19-1.94,0.28 c-0.17,0.02-0.33,0.05-0.5,0.07c-0.2,0.03-0.41,0.05-0.61,0.08c-0.18,0.02-0.36,0.05-0.54,0.07c-0.72,0.09-1.44,0.19-2.2,0.28 c-0.01,0-0.03,0-0.04,0c-1.01,0.12-2.06,0.24-3.13,0.36c-0.13,0.01-0.24,0.03-0.37,0.04c-0.2,0.02-0.42,0.04-0.62,0.06 c-0.78,0.08-1.57,0.17-2.37,0.25c-0.22,0.02-0.42,0.04-0.64,0.07c-0.15,0.02-0.31,0.03-0.47,0.04c-0.5,0.05-1.02,0.1-1.53,0.15 c-0.33,0.03-0.65,0.06-0.99,0.09c-0.15,0.01-0.32,0.03-0.47,0.04c-0.44,0.04-0.9,0.08-1.35,0.12c-0.36,0.03-0.71,0.06-1.07,0.09 c-0.23,0.02-0.47,0.04-0.7,0.06c-0.24,0.02-0.47,0.04-0.71,0.06c-0.23,0.02-0.46,0.04-0.69,0.06c-0.68,0.05-1.37,0.11-2.07,0.16 c-0.02,0-0.04,0-0.06,0c-0.01,0-0.02,0-0.03,0c-0.63,0.05-1.26,0.09-1.9,0.14c-0.41,0.03-0.82,0.06-1.23,0.09 c-0.05,0-0.1,0.01-0.15,0.01c-0.04,0-0.07,0.01-0.11,0.01c-0.5,0.03-1,0.07-1.51,0.1c-0.51,0.03-1.01,0.07-1.53,0.1 c-0.04,0-0.09,0.01-0.13,0.01c-0.06,0-0.11,0.01-0.17,0.01c-0.39,0.02-0.78,0.05-1.18,0.07c-0.4,0.02-0.8,0.05-1.2,0.07 c-0.31,0.02-0.61,0.04-0.92,0.05c-0.04,0-0.08,0-0.11,0.01c-0.06,0-0.12,0.01-0.18,0.01c-0.41,0.02-0.81,0.05-1.22,0.07 c-0.41,0.02-0.82,0.05-1.24,0.07c-0.27,0.01-0.55,0.03-0.83,0.04c-0.05,0-0.09,0-0.14,0.01c-0.09,0.01-0.19,0.01-0.28,0.02 c-0.41,0.02-0.83,0.04-1.25,0.06c-0.42,0.02-0.83,0.04-1.25,0.06c-0.25,0.01-0.49,0.02-0.74,0.04c-0.06,0-0.12,0.01-0.18,0.01 c-0.11,0.01-0.22,0.01-0.34,0.02c-0.42,0.02-0.85,0.04-1.27,0.06c-0.43,0.02-0.85,0.04-1.29,0.06c-0.23,0.01-0.46,0.02-0.69,0.03 c-0.07,0-0.14,0.01-0.21,0.01c-0.15,0.01-0.29,0.01-0.44,0.02c-0.68,0.03-1.36,0.06-2.05,0.08c-0.34,0.01-0.68,0.03-1.02,0.04 c-0.16,0.01-0.32,0.01-0.48,0.02c-0.2,0.01-0.39,0.02-0.58,0.02c-0.7,0.03-1.4,0.05-2.1,0.07c-0.36,0.01-0.71,0.02-1.07,0.04 c-2.48,0.08-4.97,0.15-7.46,0.21c-0.25,0.01-0.5,0.02-0.75,0.02c-0.39,0.01-0.79,0.02-1.18,0.03c-0.08,0-0.17,0-0.25,0.01 c-0.14,0-0.28,0.01-0.42,0.01c-0.61,0.01-1.23,0.03-1.84,0.04c-0.61,0.01-1.23,0.02-1.84,0.03c-0.15,0-0.3,0-0.45,0.01 c-0.09,0-0.18,0-0.27,0c-0.33,0.01-0.67,0.01-1,0.02c-0.38,0.01-0.76,0.01-1.15,0.02s-0.76,0.01-1.15,0.02 c-0.38,0.01-0.76,0.01-1.15,0.01c-0.05,0-0.1,0-0.15,0c-0.01,0-0.02,0-0.04,0c-0.32,0-0.64,0.01-0.96,0.01 c-0.38,0-0.76,0.01-1.14,0.01c-0.38,0-0.76,0.01-1.14,0.01c-0.37,0-0.74,0.01-1.12,0.01c-0.11,0-0.21,0-0.32,0 c-0.03,0-0.06,0-0.09,0c-0.23,0-0.46,0-0.68,0c-0.36,0-0.73,0-1.09,0.01c-0.36,0-0.73,0-1.09,0.01c-0.36,0-0.73,0-1.09,0 c-0.22,0-0.43,0-0.65,0c-0.04,0-0.08,0-0.12,0c-0.11,0-0.21,0-0.32,0c-0.36,0-0.72,0-1.09,0c-0.4,0-0.81,0-1.21,0 c-0.43,0-0.86,0-1.29,0c-0.21,0-0.42,0-0.63,0c-0.06,0-0.12,0-0.18,0c-0.16,0-0.32,0-0.48,0c-0.43,0-0.86,0-1.28-0.01 c-0.43,0-0.86,0-1.28-0.01c-0.43,0-0.85-0.01-1.28-0.01c-0.06,0-0.12,0-0.18,0c-0.05,0-0.11,0-0.16,0 c-0.44,0-0.88-0.01-1.32-0.01c-0.58-0.01-1.16-0.01-1.74-0.02c-0.45-0.01-0.89-0.01-1.34-0.02c-0.06,0-0.11,0-0.17,0 c-0.07,0-0.15,0-0.22,0c-0.58-0.01-1.15-0.02-1.72-0.02c-0.71-0.01-1.42-0.02-2.13-0.03c-0.09,0-0.19,0-0.28-0.01 c-0.13,0-0.26-0.01-0.39-0.01c-0.58-0.01-1.17-0.02-1.75-0.03c-0.8-0.02-1.61-0.03-2.41-0.05c-0.02,0-0.03,0-0.05,0 c-0.02,0-0.05,0-0.07,0c-0.91-0.02-1.83-0.04-2.73-0.07c-0.36-0.01-0.71-0.02-1.06-0.03c-0.37-0.01-0.73-0.02-1.1-0.03 c-0.32-0.01-0.65-0.02-0.97-0.03c-0.75-0.02-1.48-0.05-2.22-0.07c-0.27-0.01-0.53-0.02-0.8-0.03c-0.09,0-0.18-0.01-0.26-0.01 c-1.2-0.04-2.4-0.08-3.58-0.13c-0.04,0-0.08,0-0.12,0c-0.33-0.01-0.65-0.03-0.97-0.04c-0.86-0.03-1.71-0.07-2.56-0.11 c-0.13-0.01-0.26-0.01-0.39-0.02c-0.52-0.02-1.03-0.05-1.55-0.07c-0.6-0.03-1.2-0.05-1.79-0.08c-0.19-0.01-0.38-0.02-0.57-0.03 c-0.58-0.03-1.16-0.06-1.74-0.09c-0.49-0.03-0.99-0.05-1.47-0.08c-0.22-0.01-0.43-0.03-0.64-0.04c-0.6-0.03-1.2-0.07-1.79-0.1 c-0.43-0.03-0.88-0.05-1.31-0.08c-0.23-0.01-0.45-0.03-0.68-0.04c-0.65-0.04-1.3-0.08-1.94-0.13c-0.4-0.03-0.82-0.05-1.22-0.08 c-0.21-0.01-0.4-0.03-0.6-0.04c-0.7-0.05-1.38-0.1-2.07-0.15c-0.39-0.03-0.79-0.06-1.17-0.09c-0.16-0.01-0.31-0.03-0.47-0.04 c-0.76-0.06-1.51-0.12-2.26-0.18c-0.37-0.03-0.75-0.06-1.11-0.09c-0.1-0.01-0.19-0.02-0.28-0.03c-1.27-0.11-2.53-0.22-3.74-0.34 c-0.01,0-0.02,0-0.02,0c-0.94-0.09-1.86-0.19-2.77-0.28c-0.24-0.03-0.47-0.05-0.7-0.08c-0.24-0.03-0.49-0.05-0.73-0.08 c-0.48-0.05-0.95-0.11-1.42-0.16c-0.22-0.03-0.45-0.05-0.66-0.08c-0.82-0.1-1.62-0.2-2.39-0.3c-0.05-0.01-0.1-0.01-0.15-0.02 c-0.4-0.05-0.78-0.11-1.17-0.16c-0.5-0.07-1-0.14-1.48-0.21c-0.38-0.06-0.75-0.11-1.12-0.17c-0.38-0.06-0.78-0.12-1.15-0.18 c-0.09-0.01-0.17-0.03-0.25-0.04c-0.14-0.02-0.28-0.05-0.43-0.07c-0.62-0.1-1.21-0.21-1.79-0.31c-0.11-0.02-0.23-0.04-0.34-0.06 c-0.64-0.12-1.25-0.24-1.85-0.37c-0.14-0.03-0.27-0.06-0.4-0.09c-0.53-0.12-1.05-0.23-1.54-0.35c-0.06-0.01-0.13-0.03-0.19-0.04 c-0.53-0.13-1.02-0.26-1.49-0.39c-0.11-0.03-0.22-0.06-0.33-0.1c-0.47-0.14-0.91-0.27-1.32-0.41c-2.83-0.97-4.02-1.95-3.74-2.92 c29.64-101.42,59.27-202.83,88.91-304.25l0.2-0.21C519.7,444.46,524.71,444.56,527.48,447.83L527.48,447.83z" class="st7"/></g><g><linearGradient id="SVGID_7_" x1="481.163" x2="509.731" y1="529.821" y2="529.821" gradientUnits="userSpaceOnUse"><stop style="stop-color:#de6900" offset="0"/><stop style="stop-color:#faae44" offset=".723"/></linearGradient><path d="M500.58,529.32c-0.82-0.26-1.67-0.44-2.55-0.51l-16.86-1.42l9.16,2.93l16.86,1.42 c0.88,0.07,1.73,0.25,2.55,0.51L500.58,529.32z" class="st8"/><linearGradient id="SVGID_8_" x1="438.613" x2="464.751" y1="644.683" y2="644.683" gradientUnits="userSpaceOnUse"><stop style="stop-color:#ed7a0f" offset="0"/><stop style="stop-color:#f2c66f" offset="1"/></linearGradient><path d="M461.09,650.45l-13.32-10.53l-9.16-2.93l13.32,10.53c0.56,0.44,1.15,0.82,1.76,1.15 c0.61,0.32,1.25,0.59,1.9,0.8l9.16,2.93C463.45,651.97,462.21,651.33,461.09,650.45z" class="st9"/><linearGradient id="SVGID_9_" x1="437.925" x2="472.686" y1="466.851" y2="466.851" gradientUnits="userSpaceOnUse"><stop style="stop-color:#de6900" offset="0"/><stop style="stop-color:#faae44" offset=".723"/></linearGradient><path d="M462.45,462.66c0.13-0.07,0.26-0.14,0.39-0.21c0.25-0.13,0.51-0.25,0.77-0.36c0.11-0.05,0.22-0.1,0.33-0.14 c0.43-0.17,0.87-0.32,1.32-0.44c0.1-0.03,0.21-0.05,0.31-0.08c0.38-0.09,0.76-0.17,1.15-0.23c0.1-0.02,0.2-0.04,0.31-0.05 c0.4-0.05,0.8-0.09,1.2-0.1c1.51-0.05,3.03,0.16,4.47,0.62l-9.16-2.93c-1.44-0.46-2.96-0.67-4.47-0.62 c-0.4,0.01-0.8,0.05-1.2,0.1c-0.04,0-0.07,0-0.11,0.01c-0.07,0.01-0.13,0.03-0.2,0.04c-0.38,0.06-0.76,0.13-1.14,0.23 c-0.1,0.03-0.21,0.05-0.31,0.08c-0.45,0.12-0.89,0.27-1.32,0.44c-0.03,0.01-0.05,0.02-0.08,0.03c-0.08,0.03-0.17,0.08-0.25,0.12 c-0.26,0.11-0.52,0.23-0.77,0.36c-0.13,0.07-0.26,0.14-0.39,0.21c-0.24,0.13-0.47,0.27-0.7,0.42c-0.08,0.05-0.16,0.09-0.23,0.14 c-0.04,0.03-0.08,0.06-0.12,0.09c-0.37,0.26-0.73,0.53-1.08,0.83l-13.23,11.45l9.16,2.93l13.23-11.45 c0.35-0.3,0.71-0.57,1.08-0.83c0.12-0.08,0.24-0.16,0.35-0.23C461.97,462.93,462.21,462.79,462.45,462.66z" class="st10"/><linearGradient id="SVGID_10_" x1="379.097" x2="452.102" y1="558.898" y2="558.898" gradientUnits="userSpaceOnUse"><stop style="stop-color:#ed7a0f" offset="0"/><stop style="stop-color:#f2c66f" offset="1"/></linearGradient><path d="M439.42,592.09c0.25-0.3,0.5-0.6,0.75-0.91c0.23-0.28,0.47-0.57,0.7-0.86c0.24-0.31,0.47-0.63,0.71-0.94 c0.22-0.29,0.44-0.58,0.66-0.88c0.23-0.32,0.45-0.65,0.67-0.98c0.21-0.3,0.42-0.6,0.62-0.91c0.22-0.33,0.42-0.67,0.63-1.01 c0.19-0.31,0.39-0.62,0.58-0.94c0.2-0.34,0.4-0.69,0.59-1.04c0.18-0.32,0.36-0.64,0.54-0.96c0.19-0.35,0.37-0.71,0.55-1.07 c0.17-0.33,0.34-0.65,0.5-0.98c0.18-0.37,0.34-0.74,0.51-1.11c0.15-0.33,0.31-0.66,0.45-1c0.16-0.38,0.31-0.77,0.46-1.15 c0.13-0.33,0.27-0.67,0.4-1c0.15-0.39,0.28-0.79,0.42-1.18c0.12-0.34,0.24-0.67,0.36-1.01c0.13-0.41,0.25-0.82,0.37-1.23 c0.1-0.34,0.21-0.67,0.31-1.01c0.12-0.42,0.22-0.85,0.33-1.28c0.08-0.33,0.18-0.66,0.25-1c0.1-0.45,0.19-0.9,0.28-1.35 c0.07-0.32,0.14-0.64,0.2-0.96c0.09-0.47,0.16-0.95,0.23-1.43c0.05-0.31,0.1-0.61,0.15-0.92c0.07-0.52,0.12-1.05,0.18-1.58 c0.03-0.27,0.07-0.53,0.09-0.8c0.07-0.8,0.13-1.6,0.16-2.4c1.03-23.27-13.06-42.8-32.87-49.15l-9.16-2.93 c19.81,6.35,33.9,25.88,32.87,49.15c-0.04,0.81-0.09,1.61-0.16,2.4c-0.02,0.27-0.06,0.53-0.09,0.8 c-0.06,0.53-0.11,1.06-0.18,1.58c-0.04,0.32-0.1,0.63-0.15,0.94c-0.07,0.47-0.14,0.94-0.23,1.41c-0.06,0.34-0.14,0.67-0.21,1 c-0.09,0.44-0.17,0.88-0.27,1.31c-0.08,0.35-0.17,0.69-0.26,1.03c-0.11,0.42-0.2,0.83-0.32,1.25c-0.1,0.35-0.21,0.69-0.31,1.04 c-0.12,0.4-0.24,0.8-0.37,1.2c-0.11,0.34-0.24,0.68-0.36,1.03c-0.14,0.39-0.27,0.79-0.41,1.17c-0.13,0.34-0.27,0.67-0.41,1.01 c-0.15,0.38-0.3,0.76-0.46,1.14c-0.14,0.34-0.3,0.67-0.45,1c-0.17,0.37-0.33,0.74-0.5,1.1c-0.16,0.33-0.33,0.66-0.5,0.98 c-0.18,0.36-0.36,0.72-0.55,1.07c-0.17,0.32-0.36,0.64-0.54,0.96c-0.2,0.35-0.39,0.7-0.59,1.04c-0.19,0.32-0.39,0.63-0.58,0.94 c-0.21,0.34-0.41,0.68-0.63,1.01c-0.2,0.31-0.41,0.61-0.62,0.91c-0.22,0.33-0.44,0.66-0.67,0.98c-0.21,0.3-0.44,0.59-0.66,0.88 c-0.24,0.32-0.47,0.63-0.71,0.94c-0.23,0.29-0.46,0.57-0.7,0.86c-0.25,0.3-0.49,0.61-0.75,0.91c-0.24,0.28-0.49,0.55-0.73,0.82 c-0.26,0.29-0.52,0.59-0.78,0.87c-0.16,0.17-0.32,0.33-0.47,0.49c-0.46,0.48-0.93,0.95-1.4,1.42c-0.21,0.2-0.42,0.4-0.63,0.6 c-0.46,0.43-0.92,0.85-1.39,1.26c-0.2,0.17-0.4,0.35-0.6,0.52c-0.67,0.56-1.34,1.12-2.04,1.64c-0.02,0.01-0.04,0.03-0.05,0.04 c-0.68,0.51-1.37,1.01-2.07,1.49c-0.25,0.17-0.5,0.33-0.75,0.49c-0.43,0.28-0.86,0.56-1.3,0.83c-0.27,0.17-0.55,0.33-0.83,0.5 c-0.43,0.26-0.87,0.5-1.31,0.74c-0.28,0.15-0.56,0.31-0.84,0.45c-0.46,0.24-0.94,0.47-1.41,0.7c-0.26,0.13-0.53,0.26-0.79,0.38 c-0.57,0.26-1.14,0.5-1.72,0.74c-0.18,0.07-0.35,0.15-0.53,0.22c-0.81,0.32-1.63,0.62-2.46,0.9c-0.23,0.08-0.47,0.15-0.7,0.22 c-0.61,0.2-1.23,0.38-1.85,0.55c-0.28,0.08-0.57,0.15-0.85,0.23c-0.62,0.16-1.25,0.3-1.88,0.44c-0.25,0.05-0.49,0.11-0.74,0.16 c-0.87,0.17-1.74,0.32-2.63,0.44c-0.73,0.1-1.47,0.18-2.21,0.25c-0.84,0.07-1.68,0.13-2.52,0.15 c-5.48,0.19-10.75-0.57-15.67-2.15l9.16,2.93c4.92,1.58,10.19,2.34,15.67,2.15c0.83-0.03,1.67-0.08,2.52-0.15 c0.72-0.06,1.44-0.14,2.15-0.24c0.02,0,0.04-0.01,0.06-0.01c0.88-0.12,1.76-0.27,2.63-0.44c0.25-0.05,0.49-0.11,0.74-0.16 c0.63-0.13,1.26-0.28,1.88-0.44c0.29-0.07,0.57-0.15,0.85-0.23c0.62-0.17,1.24-0.36,1.85-0.55c0.23-0.07,0.47-0.14,0.7-0.22 c0.83-0.28,1.65-0.58,2.46-0.9c0.02-0.01,0.04-0.02,0.07-0.02c0.15-0.06,0.3-0.13,0.46-0.2c0.58-0.24,1.15-0.48,1.72-0.75 c0.27-0.12,0.53-0.25,0.79-0.38c0.47-0.23,0.94-0.46,1.41-0.7c0.28-0.15,0.56-0.3,0.84-0.45c0.44-0.24,0.88-0.49,1.31-0.74 c0.28-0.16,0.55-0.33,0.83-0.5c0.44-0.27,0.87-0.55,1.3-0.83c0.17-0.11,0.35-0.22,0.53-0.33c0.08-0.05,0.15-0.11,0.22-0.16 c0.7-0.48,1.39-0.97,2.07-1.49c0.02-0.01,0.04-0.03,0.05-0.04c0.69-0.53,1.37-1.08,2.04-1.64c0.2-0.17,0.4-0.35,0.6-0.52 c0.47-0.41,0.93-0.83,1.39-1.25c0.21-0.2,0.42-0.4,0.63-0.6c0.48-0.46,0.94-0.94,1.4-1.42c0.12-0.12,0.24-0.23,0.35-0.36 c0.04-0.04,0.08-0.09,0.12-0.13c0.27-0.29,0.52-0.58,0.78-0.87C438.94,592.64,439.18,592.37,439.42,592.09z" class="st11"/><g class="st1009"><defs><path id="SVGID_1257_" d="M423.47,466.49l9.16,2.93c-1.45-0.46-2.91-0.89-4.39-1.28l-9.16-2.93 C420.56,465.6,422.03,466.02,423.47,466.49z" class="st1009"/></defs><clipPath id="SVGID_11_"><use style="overflow:visible" xlink:href="#SVGID_1257_"/></clipPath><g style="clip-path:url(#SVGID_11_);enable-background:new"><path d="M428.24,468.14l-9.16-2.93c1.48,0.39,2.94,0.81,4.39,1.28l9.16,2.93 C431.18,468.96,429.72,468.53,428.24,468.14" class="st1415"/></g></g><linearGradient id="SVGID_12_" x1="351.199" x2="390.221" y1="659.428" y2="659.428" gradientUnits="userSpaceOnUse"><stop style="stop-color:#d4490b" offset="0"/><stop style="stop-color:#f2822b" offset="1"/></linearGradient><path d="M381.2,667.9l-2-17.49l-8.42-2.7c-3.59-1.36-7.07-2.94-10.42-4.75l-9.16-2.93 c4.61,2.5,9.46,4.57,14.52,6.19l4.34,1.39l1.99,17.36c0.6,5.23,4.32,9.42,9.02,10.92l9.16,2.93 C385.52,677.32,381.79,673.13,381.2,667.9z" class="st13"/><linearGradient id="SVGID_13_" x1="350.511" x2="417.215" y1="457.418" y2="457.418" gradientUnits="userSpaceOnUse"><stop style="stop-color:#fee38d" offset=".011"/><stop style="stop-color:#f25c19" offset="1"/></linearGradient><path d="M408.06,436.8c-1.36-0.44-2.8-0.65-4.27-0.6l-19.46,0.68c-0.41,0.01-0.82,0.05-1.23,0.1c0,0-0.01,0-0.01,0 c-0.02,0-0.03,0.01-0.05,0.01c-0.46,0.06-0.92,0.16-1.37,0.28c-0.14,0.04-0.28,0.08-0.42,0.12c-0.35,0.1-0.69,0.21-1.02,0.34 c-0.08,0.03-0.17,0.05-0.26,0.09c-0.05,0.02-0.1,0.05-0.15,0.07c-0.32,0.13-0.64,0.28-0.95,0.44c-0.09,0.05-0.19,0.09-0.29,0.14 c-0.4,0.22-0.79,0.45-1.17,0.7c-0.02,0.01-0.04,0.02-0.05,0.03c-0.06,0.04-0.12,0.09-0.18,0.14c-0.32,0.23-0.64,0.47-0.95,0.72 c-0.12,0.1-0.23,0.2-0.35,0.3c-0.28,0.24-0.54,0.5-0.8,0.76c-0.06,0.07-0.14,0.12-0.2,0.19c-0.03,0.04-0.06,0.07-0.1,0.11 c-0.11,0.12-0.21,0.24-0.31,0.36c-0.15,0.18-0.31,0.36-0.45,0.54c-0.1,0.13-0.2,0.26-0.29,0.39c-0.13,0.19-0.27,0.37-0.39,0.56 c-0.09,0.14-0.18,0.28-0.27,0.42c-0.12,0.2-0.23,0.39-0.34,0.59c-0.08,0.15-0.16,0.29-0.23,0.44c-0.1,0.21-0.2,0.42-0.29,0.63 c-0.07,0.15-0.13,0.3-0.19,0.45c-0.09,0.22-0.17,0.45-0.24,0.68c-0.05,0.15-0.1,0.3-0.15,0.45c-0.08,0.26-0.14,0.52-0.2,0.78 c-0.03,0.13-0.07,0.26-0.09,0.39c-0.08,0.39-0.14,0.79-0.18,1.2l-1.85,17.62c-0.85,0.28-1.68,0.58-2.52,0.88 c-0.27,0.1-0.53,0.2-0.79,0.3c-0.56,0.21-1.13,0.42-1.69,0.65c-0.03,0.01-0.07,0.03-0.1,0.04c-0.1,0.04-0.2,0.09-0.29,0.13 c-0.94,0.38-1.87,0.78-2.8,1.19c-0.27,0.12-0.53,0.24-0.79,0.36c-1.03,0.47-2.05,0.95-3.06,1.46c-0.07,0.04-0.14,0.07-0.21,0.11 c-0.95,0.48-1.88,0.98-2.81,1.49c-0.26,0.14-0.51,0.28-0.76,0.43c-0.99,0.56-1.97,1.13-2.93,1.72l9.16,2.93 c0.97-0.59,1.95-1.16,2.93-1.72c0.25-0.14,0.51-0.28,0.76-0.43c0.93-0.51,1.87-1.01,2.81-1.49c0.07-0.04,0.14-0.07,0.21-0.11 c1.01-0.51,2.03-0.99,3.06-1.46c0.26-0.12,0.53-0.24,0.79-0.36c0.93-0.41,1.86-0.81,2.8-1.19c0.13-0.05,0.27-0.11,0.4-0.17 c0.55-0.22,1.11-0.43,1.66-0.64c0.27-0.1,0.55-0.21,0.82-0.31c0.83-0.31,1.67-0.6,2.52-0.88l1.85-17.62 c0.04-0.41,0.11-0.8,0.18-1.2c0.03-0.13,0.06-0.26,0.09-0.39c0.06-0.26,0.12-0.52,0.2-0.78c0.04-0.15,0.1-0.3,0.15-0.45 c0.08-0.23,0.15-0.46,0.24-0.68c0.06-0.15,0.13-0.3,0.19-0.45c0.09-0.21,0.19-0.42,0.29-0.63c0.07-0.15,0.15-0.3,0.23-0.45 c0.11-0.2,0.22-0.4,0.34-0.59c0.09-0.14,0.18-0.29,0.27-0.43c0.13-0.19,0.26-0.38,0.39-0.56c0.1-0.13,0.19-0.27,0.29-0.4 c0.14-0.18,0.3-0.36,0.45-0.54c0.1-0.12,0.2-0.24,0.31-0.36c0.1-0.1,0.2-0.2,0.3-0.3c0.26-0.26,0.52-0.52,0.8-0.76 c0.11-0.1,0.23-0.2,0.35-0.3c0.31-0.25,0.62-0.49,0.95-0.72c0.08-0.06,0.15-0.12,0.23-0.17c0.38-0.25,0.77-0.49,1.17-0.7 c0.09-0.05,0.19-0.09,0.29-0.14c0.31-0.16,0.63-0.31,0.95-0.44c0.13-0.06,0.27-0.1,0.41-0.16c0.34-0.13,0.68-0.24,1.02-0.34 c0.14-0.04,0.28-0.08,0.42-0.12c0.45-0.11,0.91-0.21,1.38-0.28c0.02,0,0.04-0.01,0.06-0.01c0.41-0.05,0.82-0.09,1.23-0.1 l19.46-0.68c1.47-0.05,2.91,0.16,4.27,0.6L408.06,436.8z" class="st14"/><linearGradient id="SVGID_14_" x1="302.673" x2="334.749" y1="621.086" y2="621.086" gradientUnits="userSpaceOnUse"><stop style="stop-color:#de6900" offset="0"/><stop style="stop-color:#faae44" offset=".723"/></linearGradient><path d="M329.61,653.76l-13.82-13.84c-4.66-4.67-5.35-12.72-1.31-18.19l10.51-14.19 c-3.3-6.03-5.94-12.49-7.87-19.31l-9.16-2.93c1.93,6.82,4.57,13.28,7.87,19.31l-10.51,14.19c-4.05,5.47-3.35,13.52,1.31,18.19 l13.82,13.84c1.47,1.47,3.24,2.52,5.14,3.13l9.16,2.93C332.85,656.27,331.08,655.22,329.61,653.76z" class="st15"/><g><linearGradient id="SVGID_15_" x1="328.751" x2="478.684" y1="469.939" y2="648.621" gradientUnits="userSpaceOnUse"><stop style="stop-color:#fee38d" offset="0"/><stop style="stop-color:#f25c19" offset="1"/></linearGradient><path d="M507.18,531.74c6.51,0.54,11.55,6.55,11.58,13.39l0.08,20.26c0.03,6.83-4.96,13.2-11.46,14.19l-16.84,2.59 c-1.87,6.95-4.46,13.6-7.71,19.85l10.61,13.45c4.1,5.19,3.47,13.28-1.15,18.27l-13.7,14.8c-2.56,2.77-6.08,4.29-9.59,4.42 c-2.82,0.1-5.63-0.71-7.92-2.52l-13.32-10.53c-5.88,3.61-12.17,6.56-18.77,8.77l-1.85,17.62c-0.71,6.79-6.63,12.21-13.2,12.44 l-19.46,0.68c-6.56,0.23-12.52-4.78-13.29-11.52l-2-17.49c-6.62-1.75-12.93-4.25-18.84-7.45l-13.23,11.46 c-2.28,1.97-5.08,2.98-7.9,3.07c-3.5,0.12-7.04-1.16-9.62-3.74l-13.82-13.84c-4.66-4.67-5.35-12.72-1.31-18.19l10.51-14.19 c-3.3-6.03-5.94-12.49-7.87-19.31l-16.86-1.41c-6.51-0.54-11.55-6.56-11.58-13.39l-0.08-20.26c-0.03-6.84,4.96-13.2,11.46-14.19 l16.84-2.59c1.87-6.95,4.46-13.6,7.71-19.85l-10.62-13.45c-4.09-5.19-3.46-13.27,1.16-18.27l13.7-14.8 c2.56-2.77,6.08-4.3,9.58-4.42c2.82-0.1,5.63,0.72,7.93,2.53l13.32,10.52c5.88-3.61,12.17-6.56,18.77-8.76l1.85-17.62 c0.71-6.79,6.63-12.21,13.19-12.44l19.46-0.68c6.57-0.23,12.53,4.78,13.3,11.52l2,17.49c6.62,1.74,12.93,4.24,18.84,7.44 l13.23-11.45c2.28-1.97,5.08-2.98,7.9-3.08c3.5-0.12,7.03,1.16,9.62,3.75l13.82,13.84c4.66,4.67,5.35,12.71,1.3,18.18 l-10.5,14.19c3.3,6.03,5.94,12.49,7.87,19.31L507.18,531.74z M452.05,560.21c1.29-29.05-20.98-52.27-48.54-51.3 c-0.83,0.03-1.67,0.08-2.52,0.15c-24.58,2.16-44.46,23.65-45.6,49.28c-1.29,29.06,20.98,52.27,48.54,51.3 c0.83-0.03,1.67-0.08,2.52-0.15C431.02,607.34,450.91,585.85,452.05,560.21" class="st16"/></g><linearGradient id="SVGID_16_" x1="279.44" x2="342.68" y1="524.479" y2="524.479" gradientUnits="userSpaceOnUse"><stop style="stop-color:#ed7a0f" offset="0"/><stop style="stop-color:#f2c66f" offset="1"/></linearGradient><path d="M342.68,466.17l-9.16-2.93c-1.37-0.44-2.82-0.63-4.26-0.58c-0.44,0.02-0.88,0.05-1.32,0.11c0,0,0,0-0.01,0 c-0.01,0-0.02,0.01-0.04,0.01c-0.49,0.07-0.98,0.17-1.46,0.29c-0.15,0.04-0.31,0.09-0.46,0.13c-0.35,0.1-0.69,0.21-1.03,0.34 c-0.09,0.03-0.18,0.05-0.27,0.09c-0.09,0.04-0.17,0.08-0.26,0.12c-0.24,0.1-0.48,0.22-0.72,0.33c-0.19,0.09-0.37,0.18-0.55,0.28 c-0.24,0.13-0.46,0.27-0.69,0.42c-0.12,0.08-0.25,0.14-0.36,0.22c-0.05,0.03-0.1,0.08-0.15,0.11c-0.25,0.17-0.49,0.36-0.73,0.55 c-0.14,0.11-0.29,0.22-0.43,0.34c-0.27,0.23-0.53,0.49-0.78,0.74c-0.09,0.09-0.18,0.16-0.26,0.25c-0.02,0.02-0.04,0.05-0.07,0.07 l-13.7,14.8c-4.62,4.99-5.25,13.08-1.16,18.27l10.62,13.45c-3.25,6.25-5.83,12.9-7.71,19.85l-16.84,2.59 c-0.43,0.07-0.86,0.16-1.28,0.27c-0.14,0.04-0.27,0.09-0.41,0.13c-0.28,0.09-0.55,0.17-0.82,0.28c-0.04,0.02-0.09,0.03-0.13,0.04 c-0.11,0.05-0.22,0.11-0.34,0.16c-0.24,0.1-0.48,0.21-0.71,0.33c-0.16,0.08-0.31,0.17-0.47,0.26c-0.22,0.13-0.44,0.26-0.66,0.39 c-0.07,0.05-0.15,0.09-0.23,0.14c-0.07,0.04-0.13,0.1-0.19,0.15c-0.28,0.2-0.56,0.41-0.82,0.63c-0.1,0.09-0.21,0.17-0.31,0.25 c-0.36,0.31-0.7,0.64-1.03,0.98c-0.01,0.01-0.02,0.01-0.02,0.02c-0.07,0.07-0.13,0.15-0.2,0.23c-0.22,0.24-0.43,0.48-0.63,0.74 c-0.1,0.13-0.19,0.26-0.29,0.39c-0.16,0.22-0.33,0.45-0.48,0.68c-0.1,0.15-0.19,0.3-0.28,0.46c-0.14,0.23-0.27,0.45-0.39,0.68 c-0.09,0.16-0.17,0.33-0.25,0.49c-0.11,0.23-0.22,0.47-0.32,0.71c-0.07,0.17-0.14,0.34-0.21,0.52c-0.09,0.24-0.18,0.49-0.26,0.74 c-0.06,0.18-0.11,0.35-0.16,0.53c-0.07,0.26-0.14,0.53-0.2,0.79c-0.04,0.17-0.08,0.34-0.11,0.51c-0.06,0.29-0.09,0.59-0.13,0.89 c-0.02,0.15-0.04,0.29-0.06,0.44c-0.04,0.45-0.06,0.9-0.06,1.35l0.08,20.26c0.02,5.9,3.8,11.21,9.03,12.88l9.16,2.93 c-5.23-1.68-9-6.98-9.03-12.88l-0.08-20.26c0-0.45,0.02-0.91,0.06-1.35c0.01-0.15,0.04-0.29,0.06-0.44 c0.04-0.3,0.08-0.6,0.13-0.89c0.03-0.17,0.08-0.34,0.11-0.51c0.06-0.27,0.12-0.53,0.2-0.79c0.05-0.18,0.11-0.35,0.16-0.53 c0.08-0.25,0.17-0.5,0.26-0.74c0.07-0.17,0.14-0.35,0.21-0.52c0.1-0.24,0.21-0.47,0.32-0.71c0.08-0.17,0.16-0.33,0.25-0.49 c0.12-0.23,0.26-0.46,0.39-0.68c0.09-0.15,0.18-0.31,0.28-0.46c0.15-0.23,0.31-0.46,0.48-0.68c0.1-0.13,0.19-0.27,0.29-0.39 c0.2-0.26,0.42-0.5,0.63-0.74c0.07-0.08,0.14-0.17,0.22-0.25c0.33-0.35,0.67-0.67,1.03-0.98c0.1-0.09,0.21-0.17,0.31-0.25 c0.27-0.22,0.54-0.43,0.82-0.63c0.14-0.1,0.28-0.19,0.42-0.28c0.21-0.14,0.43-0.27,0.66-0.4c0.15-0.09,0.31-0.17,0.47-0.26 c0.23-0.12,0.47-0.23,0.71-0.33c0.15-0.07,0.31-0.14,0.46-0.2c0.27-0.11,0.55-0.19,0.83-0.28c0.14-0.04,0.27-0.09,0.41-0.13 c0.42-0.11,0.85-0.21,1.28-0.27l16.84-2.59c1.87-6.95,4.46-13.6,7.71-19.85l-10.62-13.45c-4.09-5.19-3.46-13.27,1.16-18.27 l13.7-14.8c0.11-0.11,0.22-0.21,0.33-0.32c0.25-0.26,0.51-0.51,0.78-0.74c0.14-0.12,0.29-0.23,0.43-0.34 c0.24-0.19,0.48-0.38,0.73-0.55c0.17-0.12,0.34-0.22,0.51-0.33c0.23-0.14,0.46-0.29,0.69-0.41c0.18-0.1,0.37-0.19,0.55-0.28 c0.24-0.12,0.47-0.23,0.72-0.33c0.17-0.07,0.35-0.14,0.53-0.21c0.34-0.13,0.69-0.24,1.03-0.34c0.15-0.04,0.3-0.09,0.46-0.13 c0.48-0.12,0.97-0.22,1.45-0.29c0.02,0,0.03-0.01,0.05-0.01c0.44-0.06,0.88-0.1,1.32-0.11c1.08-0.04,2.17,0.06,3.22,0.3 C341.99,465.96,342.34,466.06,342.68,466.17L342.68,466.17C342.68,466.17,342.68,466.17,342.68,466.17z" class="st17"/></g></g></g></svg>