<svg xmlns="http://www.w3.org/2000/svg" xmlns:xlink="http://www.w3.org/1999/xlink" style="enable-background:new 0 0 1024 1024" x="0" y="0" version="1.1" viewBox="0 0 1024 1024" xml:space="preserve"><style type="text/css">.st2{fill:url(#SVGID_1_)}.st7{fill:url(#SVGID_6_)}.st8{fill:url(#SVGID_7_)}.st9{fill:url(#SVGID_8_)}.st10{fill:url(#SVGID_9_)}.st11{fill:url(#SVGID_10_)}.st12{fill:url(#SVGID_11_)}.st13{fill:url(#SVGID_12_)}.st14{fill:url(#SVGID_13_)}.st15{fill:url(#SVGID_14_)}.st16{fill:url(#SVGID_15_)}.st17{fill:url(#SVGID_16_)}.st1395{fill:#b0b0b0}</style><g id="暂无内容_x2F_数据"><linearGradient id="SVGID_1_" x1="512" x2="512" y1="762.474" y2="822.465" gradientUnits="userSpaceOnUse"><stop style="stop-color:#e8e8e8" offset="0"/><stop style="stop-color:#f8f8f8;stop-opacity:.5" offset=".6"/><stop style="stop-color:#fff;stop-opacity:0" offset="1"/></linearGradient><path d="M735.24,822.46c0-16.56-99.95-59.99-223.24-59.99s-223.24,43.43-223.24,59.99H735.24z" class="st2"/><g><linearGradient id="SVGID_2_" x1="361.267" x2="361.267" y1="211.806" y2="374.691" gradientUnits="userSpaceOnUse"><stop style="stop-color:#e8e8e8" offset="0"/><stop style="stop-color:#f9f9f9;stop-opacity:.1" offset=".6"/><stop style="stop-color:#fff;stop-opacity:0" offset="1"/></linearGradient><path d="M490.07,316.8c0-25.47-20.42-46.17-45.78-46.63c0.65-3.18,1-6.47,1-9.84 c0-26.8-21.73-48.53-48.53-48.53c-18.02,0-33.73,9.83-42.1,24.41c-5.16-2.26-10.85-3.52-16.84-3.52 c-17.85,0-33.08,11.12-39.19,26.81c-2.71-0.39-5.47-0.6-8.29-0.6c-31.97,0-57.89,25.92-57.89,57.89 c0,31.97,25.92,57.89,57.89,57.89c12.99,0,24.98-4.28,34.64-11.5h113.44c1.64,0.17,3.3,0.27,4.99,0.27c1.69,0,3.35-0.09,4.99-0.27 l0,0l0,0C471.83,360.7,490.07,340.88,490.07,316.8z" style="fill:url(#SVGID_2_)"/><linearGradient id="SVGID_3_" x1="599.607" x2="599.607" y1="199.806" y2="412.185" gradientUnits="userSpaceOnUse"><stop style="stop-color:#e8e8e8" offset="0"/><stop style="stop-color:#f6f6f6;stop-opacity:.1" offset=".8"/><stop style="stop-color:#fff;stop-opacity:0" offset="1"/></linearGradient><path d="M791.54,336.24c0-35.03-28.4-63.43-63.43-63.43c-4.51,0-8.91,0.48-13.15,1.37 c-7.38-42.25-44.22-74.38-88.59-74.38c-32.19,0-60.41,16.92-76.31,42.34c-3.05-0.43-6.16-0.67-9.33-0.67 c-26.26,0-48.95,15.28-59.67,37.43c-2.17-0.21-4.36-0.33-6.58-0.33c-36.89,0-66.8,29.91-66.8,66.8c0,36.89,29.91,66.8,66.8,66.8 c14.82,0,28.5-4.83,39.58-13h206.23c2.56,0.32,5.17,0.49,7.82,0.49c2.62,0,5.2-0.18,7.74-0.49h0.32v-0.04 C767.39,395.18,791.54,368.54,791.54,336.24z" style="fill:url(#SVGID_3_)"/></g><g><linearGradient id="SVGID_4_" x1="235.687" x2="406.37" y1="431.328" y2="431.328" gradientUnits="userSpaceOnUse"><stop style="stop-color:#ebebeb" offset="0"/><stop style="stop-color:#c5c5c7" offset="1"/></linearGradient><path d="M237.69,505.49c-1.07,0-1.96-0.85-2-1.93c-0.04-1.1,0.83-2.03,1.93-2.06 c27.55-0.9,58.24-36.09,58.55-36.44c1.92-2.32,3.54-4.65,4.87-6.96c-1.15,0.01-2.31-0.02-3.46-0.08l-0.16-0.01 c-8.87-1.16-19.1-6.66-21.48-14.94c-1.21-4.21-0.84-10.72,7.8-17.87l0.25-0.18c8.15-4.84,16.4-4.12,21.54,1.9 c4.91,5.75,6.37,15.74,2.09,26.77c56.25-6.79,94.51-94.36,94.91-95.29c0.44-1.01,1.61-1.48,2.63-1.05 c1.01,0.44,1.48,1.61,1.05,2.63c-0.11,0.25-11.07,25.54-29.71,50.07c-22.37,29.44-46.68,45.82-70.77,47.84 c-1.65,3.23-3.81,6.5-6.51,9.76c-1.32,1.53-32.16,36.9-61.47,37.86C237.73,505.49,237.71,505.49,237.69,505.49z M297.86,454.02 c1.76,0.09,3.51,0.09,5.24,0.02c4.55-10.25,3.6-19.6-0.61-24.53c-3.82-4.47-9.91-4.89-16.32-1.14c-3.82,3.19-7.96,8.1-6.39,13.58 C281.44,447.68,289.2,452.86,297.86,454.02z" style="fill:url(#SVGID_4_)"/></g><linearGradient id="SVGID_5_" x1="-1355.125" x2="-1426.717" y1="3131.575" y2="3121.358" gradientTransform="matrix(0.7901 -0.613 0.613 0.7901 -595.9419 -2725.3416)" gradientUnits="userSpaceOnUse"><stop style="stop-color:#ebebeb" offset="0"/><stop style="stop-color:#c5c5c7" offset="1"/></linearGradient><path d="M199.89,630.77c6.88-3.23,52.77-18.14,35.41-52.36c0,0,6.26-9.15,10.41-10.88 c0.34-0.14,0.37-0.6,0.06-0.79l-1.26-0.79c-0.2-0.13-0.44-0.16-0.67-0.08c-1.21,0.42-5.3,2.33-11.12,10.19 c0,0-45.06-6.04-33.89,54.15C198.91,630.7,199.44,630.98,199.89,630.77z" style="fill:url(#SVGID_5_)"/><g><linearGradient id="SVGID_6_" x1="946.635" x2="922.1" y1="-289.578" y2="-305.209" gradientTransform="matrix(0.9763 0.2164 -0.2164 0.9763 -181.8312 793.0645)" gradientUnits="userSpaceOnUse"><stop style="stop-color:#ebebeb" offset="0"/><stop style="stop-color:#c5c5c7" offset="1"/></linearGradient><path d="M771.99,741.9c-0.53-0.12-1.01-0.45-1.3-0.96c-0.55-0.96-0.22-2.18,0.74-2.73 c25.03-14.35,34.88-32.72,38.74-45.61c4.19-13.99,2.44-24.76,2.42-24.86c-0.18-1.09,0.55-2.12,1.63-2.31 c1.08-0.18,2.12,0.54,2.31,1.63c0.08,0.47,1.93,11.64-2.47,26.49c-4.04,13.65-14.37,33.07-40.64,48.13 C772.96,741.94,772.46,742,771.99,741.9z" class="st7"/></g><linearGradient id="SVGID_7_" x1="720.001" x2="720.001" y1="763.675" y2="792.518" gradientUnits="userSpaceOnUse"><stop style="stop-color:#ebebeb" offset="0"/><stop style="stop-color:#c5c5c7" offset="1"/></linearGradient><path d="M744.1,763.96c0,0-1.87,6.76-6.92,7.45s-10.38-14.57-23.07-3.99c-14.89,12.43-14.5,12.6-19.73,12.94 c-3.99,0.25,9.98,15.21,29.76,11.59c11.04-2.98,15.28-10.51,14.28-15.17c-0.16-0.74,0.1-1.51,0.68-2c1.84-1.56,5.58-4.89,6.94-7.31 c0.52-0.92,0.2-2.09-0.67-2.7L744.1,763.96z" class="st8"/><g><g><linearGradient id="SVGID_8_" x1="691.952" x2="691.952" y1="620.362" y2="528.747" gradientUnits="userSpaceOnUse"><stop style="stop-color:#a5a5a5" offset="0"/><stop style="stop-color:#d1d1d1" offset="1"/></linearGradient><polygon points="664.64 533.02 668.14 528.75 719.27 616.09 715.76 620.36" class="st9"/></g><g><polygon points="577.91 506.12 581.42 501.84 668.14 528.75 664.64 533.02" class="st1395"/></g><g><linearGradient id="SVGID_9_" x1="715.763" x2="577.914" y1="563.24" y2="563.24" gradientUnits="userSpaceOnUse"><stop style="stop-color:#969696" offset="0"/><stop style="stop-color:#ababab" offset="1"/></linearGradient><polygon points="664.64 533.02 715.76 620.36 629.04 593.46 577.91 506.12" class="st10"/></g><g><linearGradient id="SVGID_10_" x1="470.154" x2="556.104" y1="443.94" y2="592.808" gradientUnits="userSpaceOnUse"><stop style="stop-color:#fee38d" offset="0"/><stop style="stop-color:#f25c19" offset="1"/></linearGradient><polygon points="447.36 536.36 359.09 508.06 578.9 500.39 667.17 528.68" class="st11"/></g><linearGradient id="SVGID_11_" x1="436.736" x2="504.904" y1="463.234" y2="581.303" gradientUnits="userSpaceOnUse"><stop style="stop-color:#fee38d" offset="0"/><stop style="stop-color:#f25c19" offset="1"/></linearGradient><polygon points="579.11 538.46 359.46 538.46 359.09 508.06 578.9 500.39" class="st12"/><g><linearGradient id="SVGID_12_" x1="325.486" x2="481.858" y1="536.259" y2="722.616" gradientUnits="userSpaceOnUse"><stop style="stop-color:#a5a5a5" offset="0"/><stop style="stop-color:#d1d1d1" offset="1"/></linearGradient><polygon points="448.26 750.81 359.99 722.52 359.09 508.06 447.36 536.36" class="st13"/></g><g><linearGradient id="SVGID_13_" x1="461.21" x2="654.218" y1="524.738" y2="754.756" gradientUnits="userSpaceOnUse"><stop style="stop-color:#ebebeb" offset="0"/><stop style="stop-color:#c5c5c7" offset="1"/></linearGradient><polygon points="667.17 528.68 668.07 743.13 448.26 750.81 447.36 536.36" class="st14"/></g><g><linearGradient id="SVGID_14_" x1="447.143" x2="392.958" y1="583.817" y2="583.817" gradientUnits="userSpaceOnUse"><stop style="stop-color:#969696" offset="0"/><stop style="stop-color:#ababab" offset="1"/></linearGradient><polygon points="392.96 631 393.04 626.84 447.14 536.64 447.06 540.79" class="st15"/></g><g><linearGradient id="SVGID_15_" x1="393.042" x2="304.731" y1="614.808" y2="614.808" gradientUnits="userSpaceOnUse"><stop style="stop-color:#a5a5a5" offset="0"/><stop style="stop-color:#d1d1d1" offset="1"/></linearGradient><polygon points="304.73 602.77 304.82 598.62 393.04 626.84 392.96 631" class="st16"/></g><g><linearGradient id="SVGID_16_" x1="339.772" x2="412.187" y1="524.477" y2="610.778" gradientUnits="userSpaceOnUse"><stop style="stop-color:#ebebeb" offset="0"/><stop style="stop-color:#c5c5c7" offset="1"/></linearGradient><polygon points="393.04 626.84 304.82 598.62 358.92 508.41 447.14 536.64" class="st17"/></g></g></g></svg>