<svg xmlns="http://www.w3.org/2000/svg" xmlns:xlink="http://www.w3.org/1999/xlink" style="enable-background:new 0 0 1024 1024" x="0" y="0" version="1.1" viewBox="0 0 1024 1024" xml:space="preserve"><style type="text/css">.st2{fill:url(#SVGID_1_)}.st7{fill:url(#SVGID_6_)}.st8{fill:url(#SVGID_7_)}.st9{fill:url(#SVGID_8_)}.st14{fill:url(#SVGID_13_)}.st15{fill:url(#SVGID_14_)}.st16{fill:url(#SVGID_15_)}.st17{fill:url(#SVGID_16_)}.st18{fill:url(#SVGID_17_)}.st19{fill:url(#SVGID_18_)}.st1009{enable-background:new}.st1153{fill:#8c8c8c}</style><g id="暂无图片"><linearGradient id="SVGID_1_" x1="512" x2="512" y1="762.474" y2="822.465" gradientUnits="userSpaceOnUse"><stop style="stop-color:#e8e8e8" offset="0"/><stop style="stop-color:#f8f8f8;stop-opacity:.5" offset=".6"/><stop style="stop-color:#fff;stop-opacity:0" offset="1"/></linearGradient><path d="M735.24,822.46c0-16.56-99.95-59.99-223.24-59.99s-223.24,43.43-223.24,59.99H735.24z" class="st2"/><g><linearGradient id="SVGID_2_" x1="361.267" x2="361.267" y1="211.806" y2="374.691" gradientUnits="userSpaceOnUse"><stop style="stop-color:#e8e8e8" offset="0"/><stop style="stop-color:#f9f9f9;stop-opacity:.1" offset=".6"/><stop style="stop-color:#fff;stop-opacity:0" offset="1"/></linearGradient><path d="M490.07,316.8c0-25.47-20.42-46.17-45.78-46.63c0.65-3.18,1-6.47,1-9.84 c0-26.8-21.73-48.53-48.53-48.53c-18.02,0-33.73,9.83-42.1,24.41c-5.16-2.26-10.85-3.52-16.84-3.52 c-17.85,0-33.08,11.12-39.19,26.81c-2.71-0.39-5.47-0.6-8.29-0.6c-31.97,0-57.89,25.92-57.89,57.89 c0,31.97,25.92,57.89,57.89,57.89c12.99,0,24.98-4.28,34.64-11.5h113.44c1.64,0.17,3.3,0.27,4.99,0.27c1.69,0,3.35-0.09,4.99-0.27 l0,0l0,0C471.83,360.7,490.07,340.88,490.07,316.8z" style="fill:url(#SVGID_2_)"/><linearGradient id="SVGID_3_" x1="599.607" x2="599.607" y1="199.806" y2="412.185" gradientUnits="userSpaceOnUse"><stop style="stop-color:#e8e8e8" offset="0"/><stop style="stop-color:#f6f6f6;stop-opacity:.1" offset=".8"/><stop style="stop-color:#fff;stop-opacity:0" offset="1"/></linearGradient><path d="M791.54,336.24c0-35.03-28.4-63.43-63.43-63.43c-4.51,0-8.91,0.48-13.15,1.37 c-7.38-42.25-44.22-74.38-88.59-74.38c-32.19,0-60.41,16.92-76.31,42.34c-3.05-0.43-6.16-0.67-9.33-0.67 c-26.26,0-48.95,15.28-59.67,37.43c-2.17-0.21-4.36-0.33-6.58-0.33c-36.89,0-66.8,29.91-66.8,66.8c0,36.89,29.91,66.8,66.8,66.8 c14.82,0,28.5-4.83,39.58-13h206.23c2.56,0.32,5.17,0.49,7.82,0.49c2.62,0,5.2-0.18,7.74-0.49h0.32v-0.04 C767.39,395.18,791.54,368.54,791.54,336.24z" style="fill:url(#SVGID_3_)"/></g><g class="st1009"><defs><path id="SVGID_1175_" d="M733.77,446.72l8.83,2.83c-0.36-0.12-0.75-0.18-1.16-0.17l-8.83-2.83 C733.02,446.54,733.41,446.6,733.77,446.72z" class="st1009"/></defs><clipPath id="SVGID_4_"><use style="overflow:visible" xlink:href="#SVGID_1175_"/></clipPath><g style="clip-path:url(#SVGID_4_);enable-background:new"><path d="M741.44,449.37l-8.83-2.83c0.4,0,0.79,0.06,1.16,0.17l8.83,2.83 C742.23,449.43,741.85,449.37,741.44,449.37" class="st1153"/></g></g><g><linearGradient id="SVGID_5_" x1="349.207" x2="671.226" y1="449.973" y2="770.87" gradientUnits="userSpaceOnUse"><stop style="stop-color:#ebebeb" offset="0"/><stop style="stop-color:#c5c5c7" offset="1"/></linearGradient><path d="M701.82,471.56c2.21-0.02,3.97,1.83,3.92,4.12l-4.89,265.45l-382.25,8.15 c-2.2,0.02-3.96-1.82-3.91-4.12l4.88-265.45L701.82,471.56z" style="fill:url(#SVGID_5_)"/><g><linearGradient id="SVGID_6_" x1="572.572" x2="603.544" y1="579.293" y2="526.95" gradientUnits="userSpaceOnUse"><stop style="stop-color:#e36905" offset="0"/><stop style="stop-color:#fabb6a" offset="1"/></linearGradient><path d="M609.95,530.74l-6.1-1.95c-2.72-0.87-5.62-1.33-8.65-1.3c-0.36,0-0.72,0.02-1.07,0.04 c-0.25,0.01-0.49,0.03-0.74,0.05c-0.24,0.02-0.48,0.04-0.72,0.06c-0.24,0.02-0.49,0.05-0.73,0.08c-0.06,0.01-0.11,0.01-0.17,0.02 c-0.18,0.02-0.37,0.05-0.55,0.08c-0.24,0.04-0.47,0.07-0.7,0.12c-0.24,0.04-0.48,0.09-0.71,0.14c-0.23,0.05-0.47,0.1-0.7,0.15 c-0.23,0.05-0.46,0.11-0.69,0.17c-0.23,0.06-0.47,0.12-0.7,0.19c-0.22,0.06-0.44,0.13-0.66,0.2c-0.23,0.07-0.46,0.15-0.69,0.22 c-0.22,0.08-0.44,0.16-0.66,0.24c-0.22,0.08-0.44,0.16-0.66,0.25c-0.01,0-0.02,0.01-0.03,0.01c-0.21,0.08-0.42,0.17-0.62,0.26 c-0.22,0.09-0.44,0.19-0.66,0.29c-0.21,0.09-0.41,0.19-0.62,0.29c-0.22,0.11-0.44,0.21-0.66,0.33c-0.2,0.1-0.4,0.21-0.6,0.32 c-0.21,0.12-0.43,0.23-0.64,0.36c-0.2,0.12-0.39,0.24-0.59,0.35c-0.21,0.13-0.41,0.25-0.61,0.38c-0.1,0.06-0.19,0.13-0.29,0.19 c-0.1,0.06-0.19,0.13-0.29,0.2c-0.2,0.13-0.4,0.27-0.59,0.41c-0.19,0.13-0.37,0.27-0.55,0.41c-0.19,0.15-0.39,0.29-0.58,0.44 c-0.18,0.14-0.36,0.29-0.53,0.43c-0.19,0.15-0.37,0.3-0.55,0.46c-0.18,0.15-0.35,0.31-0.52,0.47c-0.18,0.16-0.35,0.32-0.53,0.48 c-0.17,0.16-0.33,0.32-0.49,0.48c-0.17,0.17-0.35,0.34-0.52,0.52c-0.03,0.03-0.05,0.05-0.08,0.08c-0.13,0.14-0.25,0.27-0.38,0.41 c-0.17,0.18-0.34,0.37-0.5,0.56c-0.15,0.17-0.29,0.35-0.44,0.52c-0.16,0.19-0.31,0.37-0.47,0.57c-0.15,0.18-0.29,0.37-0.43,0.56 c-0.15,0.19-0.29,0.38-0.43,0.58c-0.14,0.19-0.27,0.38-0.4,0.57c-0.14,0.2-0.28,0.4-0.42,0.61c-0.13,0.19-0.25,0.39-0.37,0.59 c-0.13,0.21-0.26,0.41-0.39,0.63c-0.12,0.21-0.24,0.42-0.36,0.64c-0.12,0.21-0.23,0.41-0.34,0.62c-0.11,0.21-0.22,0.43-0.33,0.65 c-0.11,0.22-0.22,0.43-0.33,0.65c-0.1,0.2-0.19,0.41-0.28,0.62c-0.11,0.24-0.21,0.47-0.32,0.71c-0.09,0.22-0.18,0.44-0.26,0.66 c-0.09,0.23-0.18,0.45-0.27,0.68c-0.09,0.25-0.17,0.5-0.26,0.76c-0.07,0.21-0.15,0.42-0.21,0.63c-0.08,0.26-0.15,0.52-0.23,0.79 c-0.06,0.21-0.12,0.42-0.18,0.63c-0.07,0.27-0.13,0.54-0.2,0.82c-0.05,0.21-0.1,0.41-0.15,0.62c-0.06,0.29-0.11,0.59-0.17,0.89 c-0.04,0.19-0.08,0.39-0.11,0.58c-0.05,0.32-0.09,0.65-0.14,0.98c-0.02,0.17-0.05,0.34-0.07,0.51c-0.05,0.39-0.08,0.79-0.11,1.18 c-0.01,0.11-0.02,0.22-0.03,0.33c-0.03,0.51-0.06,1.02-0.07,1.54c-0.25,13.4,7.99,24.66,19.57,28.38l6.1,1.95 c-11.58-3.71-19.82-14.97-19.57-28.38c0.01-0.52,0.03-1.03,0.07-1.54c0.01-0.11,0.02-0.22,0.03-0.33 c0.03-0.4,0.06-0.79,0.11-1.18c0.02-0.17,0.05-0.34,0.07-0.51c0.04-0.33,0.08-0.66,0.14-0.98c0.03-0.2,0.07-0.39,0.11-0.58 c0.05-0.3,0.11-0.59,0.17-0.89c0.04-0.21,0.1-0.42,0.15-0.62c0.06-0.27,0.12-0.55,0.2-0.82c0.06-0.21,0.12-0.42,0.18-0.63 c0.07-0.26,0.15-0.53,0.23-0.79c0.07-0.21,0.14-0.42,0.21-0.63c0.09-0.25,0.17-0.51,0.26-0.76c0.08-0.23,0.18-0.46,0.27-0.68 c0.09-0.22,0.17-0.44,0.26-0.66c0.1-0.24,0.21-0.47,0.32-0.71c0.09-0.21,0.18-0.41,0.28-0.62c0.1-0.22,0.22-0.43,0.33-0.65 c0.11-0.22,0.21-0.43,0.33-0.65c0.11-0.21,0.23-0.41,0.34-0.62c0.12-0.21,0.24-0.43,0.36-0.64c0.13-0.21,0.26-0.42,0.39-0.63 c0.12-0.2,0.24-0.39,0.37-0.59c0.13-0.21,0.28-0.41,0.42-0.61c0.13-0.19,0.26-0.39,0.4-0.57c0.14-0.19,0.29-0.38,0.43-0.58 c0.14-0.19,0.28-0.38,0.43-0.56c0.15-0.19,0.31-0.38,0.47-0.57c0.15-0.17,0.29-0.35,0.44-0.52c0.16-0.19,0.33-0.37,0.5-0.56 c0.15-0.17,0.3-0.33,0.46-0.49c0.17-0.18,0.34-0.35,0.52-0.52c0.16-0.16,0.33-0.33,0.49-0.48c0.17-0.16,0.35-0.32,0.53-0.48 c0.17-0.16,0.35-0.32,0.52-0.47c0.18-0.16,0.37-0.31,0.55-0.46c0.18-0.15,0.35-0.29,0.53-0.43c0.19-0.15,0.39-0.3,0.58-0.44 c0.18-0.14,0.36-0.27,0.55-0.41c0.19-0.14,0.39-0.27,0.59-0.41c0.19-0.13,0.38-0.26,0.58-0.39c0.2-0.13,0.41-0.26,0.61-0.38 c0.2-0.12,0.39-0.24,0.59-0.35c0.21-0.12,0.42-0.24,0.64-0.36c0.2-0.11,0.4-0.22,0.6-0.32c0.22-0.11,0.44-0.22,0.66-0.33 c0.2-0.1,0.41-0.2,0.62-0.29c0.22-0.1,0.44-0.19,0.66-0.29c0.22-0.09,0.43-0.19,0.65-0.27c0.22-0.09,0.44-0.17,0.66-0.25 c0.22-0.08,0.44-0.16,0.66-0.24c0.23-0.08,0.46-0.15,0.69-0.22c0.22-0.07,0.44-0.14,0.66-0.2c0.23-0.07,0.47-0.13,0.7-0.19 c0.23-0.06,0.46-0.12,0.69-0.17c0.23-0.05,0.46-0.1,0.7-0.15c0.24-0.05,0.48-0.1,0.71-0.14c0.23-0.04,0.47-0.08,0.7-0.12 c0.24-0.04,0.48-0.07,0.72-0.1c0.24-0.03,0.48-0.06,0.73-0.08c0.24-0.02,0.48-0.05,0.72-0.06c0.25-0.02,0.49-0.03,0.74-0.05 c0.36-0.02,0.71-0.04,1.07-0.04c2.27-0.02,4.47,0.23,6.57,0.72C608.57,530.33,609.27,530.52,609.95,530.74L609.95,530.74 C609.95,530.74,609.95,530.74,609.95,530.74z" class="st7"/><linearGradient id="SVGID_7_" x1="580.257" x2="621.251" y1="538.988" y2="579.839" gradientUnits="userSpaceOnUse"><stop style="stop-color:#fee38d" offset="0"/><stop style="stop-color:#f25c19" offset="1"/></linearGradient><path d="M601.3,529.44c15.89-0.16,28.52,13.12,28.22,29.67c-0.01,0.51-0.03,1.03-0.07,1.54 c-0.01,0.13-0.03,0.26-0.04,0.39c-0.03,0.37-0.06,0.75-0.1,1.12c-0.02,0.21-0.06,0.42-0.09,0.63c-0.04,0.29-0.07,0.57-0.12,0.86 c-0.04,0.24-0.09,0.48-0.14,0.72c-0.05,0.25-0.09,0.49-0.14,0.74c-0.05,0.26-0.12,0.51-0.18,0.77c-0.05,0.22-0.1,0.45-0.16,0.67 c-0.07,0.26-0.15,0.51-0.22,0.77c-0.06,0.22-0.12,0.44-0.19,0.65c-0.08,0.25-0.17,0.5-0.25,0.75c-0.07,0.21-0.14,0.43-0.22,0.64 c-0.09,0.24-0.18,0.47-0.27,0.71c-0.09,0.22-0.17,0.44-0.26,0.66c-0.09,0.22-0.2,0.44-0.29,0.66c-0.1,0.22-0.19,0.44-0.3,0.66 c-0.11,0.23-0.22,0.45-0.34,0.67c-0.1,0.2-0.2,0.41-0.31,0.61c-0.12,0.23-0.25,0.46-0.38,0.68c-0.11,0.19-0.21,0.38-0.33,0.57 c-0.13,0.22-0.27,0.43-0.4,0.65c-0.12,0.19-0.24,0.39-0.36,0.58c-0.14,0.21-0.28,0.41-0.42,0.62c-0.13,0.19-0.26,0.38-0.39,0.56 c-0.15,0.2-0.3,0.4-0.45,0.59c-0.14,0.18-0.27,0.36-0.42,0.54c-0.16,0.2-0.32,0.39-0.48,0.58c-0.14,0.17-0.29,0.35-0.43,0.51 c-0.17,0.19-0.34,0.38-0.51,0.56c-0.15,0.16-0.29,0.32-0.45,0.48c-0.18,0.18-0.36,0.36-0.54,0.54c-0.16,0.16-0.31,0.31-0.47,0.47 c-0.18,0.17-0.36,0.34-0.54,0.5c-0.17,0.15-0.33,0.3-0.5,0.45c-0.18,0.16-0.37,0.31-0.56,0.47c-0.18,0.15-0.35,0.29-0.53,0.44 c-0.19,0.15-0.38,0.29-0.57,0.43c-0.18,0.14-0.37,0.28-0.56,0.41c-0.19,0.14-0.39,0.27-0.59,0.41c-0.19,0.13-0.39,0.26-0.58,0.39 c-0.2,0.13-0.4,0.25-0.6,0.37c-0.2,0.12-0.4,0.25-0.6,0.36c-0.2,0.12-0.41,0.23-0.62,0.35c-0.2,0.11-0.41,0.22-0.62,0.33 c-0.21,0.11-0.42,0.21-0.64,0.32c-0.21,0.1-0.42,0.21-0.64,0.3c-0.21,0.1-0.43,0.19-0.64,0.28c-0.22,0.09-0.44,0.19-0.66,0.28 c-0.21,0.09-0.43,0.17-0.65,0.25c-0.23,0.08-0.45,0.17-0.68,0.25c-0.22,0.07-0.44,0.15-0.66,0.21c-0.23,0.07-0.47,0.15-0.7,0.21 c-0.22,0.06-0.45,0.12-0.67,0.18c-0.24,0.06-0.47,0.12-0.71,0.18c-0.23,0.05-0.45,0.1-0.68,0.15c-0.24,0.05-0.48,0.1-0.73,0.14 c-0.23,0.04-0.46,0.08-0.69,0.11c-0.25,0.04-0.5,0.07-0.75,0.11c-0.23,0.03-0.45,0.05-0.68,0.08c-0.26,0.03-0.51,0.05-0.77,0.07 c-0.23,0.02-0.46,0.03-0.69,0.04c-0.37,0.02-0.73,0.04-1.1,0.04c-15.89,0.16-28.52-13.12-28.22-29.67 c0.01-0.52,0.03-1.03,0.07-1.54c0.01-0.11,0.02-0.22,0.03-0.33c0.03-0.4,0.06-0.79,0.11-1.18c0.02-0.17,0.05-0.34,0.07-0.51 c0.04-0.33,0.08-0.66,0.14-0.98c0.03-0.2,0.07-0.39,0.11-0.58c0.05-0.3,0.11-0.59,0.17-0.89c0.04-0.21,0.1-0.42,0.15-0.62 c0.06-0.27,0.12-0.55,0.2-0.82c0.06-0.21,0.12-0.42,0.18-0.63c0.07-0.26,0.15-0.53,0.23-0.79c0.07-0.21,0.14-0.42,0.21-0.63 c0.09-0.25,0.17-0.51,0.26-0.76c0.08-0.23,0.18-0.46,0.27-0.68c0.09-0.22,0.17-0.44,0.26-0.66c0.1-0.24,0.21-0.47,0.32-0.71 c0.09-0.21,0.18-0.41,0.28-0.62c0.1-0.22,0.22-0.43,0.33-0.65c0.11-0.22,0.21-0.43,0.33-0.65c0.11-0.21,0.23-0.41,0.34-0.62 c0.12-0.21,0.24-0.43,0.36-0.64c0.13-0.21,0.26-0.42,0.39-0.63c0.12-0.2,0.24-0.39,0.37-0.59c0.13-0.21,0.28-0.41,0.42-0.61 c0.13-0.19,0.26-0.39,0.4-0.57c0.14-0.19,0.29-0.38,0.43-0.58c0.14-0.19,0.28-0.38,0.43-0.56c0.15-0.19,0.31-0.38,0.47-0.57 c0.15-0.17,0.29-0.35,0.44-0.52c0.16-0.19,0.33-0.37,0.5-0.56c0.15-0.17,0.3-0.33,0.46-0.49c0.17-0.18,0.34-0.35,0.52-0.52 c0.16-0.16,0.33-0.33,0.49-0.48c0.17-0.16,0.35-0.32,0.53-0.48c0.17-0.16,0.35-0.32,0.52-0.47c0.18-0.16,0.37-0.31,0.55-0.46 c0.18-0.15,0.35-0.29,0.53-0.43c0.19-0.15,0.39-0.3,0.58-0.44c0.18-0.14,0.36-0.27,0.55-0.41c0.19-0.14,0.39-0.27,0.59-0.41 c0.19-0.13,0.38-0.26,0.58-0.39c0.2-0.13,0.41-0.26,0.61-0.38c0.2-0.12,0.39-0.24,0.59-0.35c0.21-0.12,0.42-0.24,0.64-0.36 c0.2-0.11,0.4-0.22,0.6-0.32c0.22-0.11,0.44-0.22,0.66-0.33c0.2-0.1,0.41-0.2,0.62-0.29c0.22-0.1,0.44-0.19,0.66-0.29 c0.22-0.09,0.43-0.19,0.65-0.27c0.22-0.09,0.44-0.17,0.66-0.25c0.22-0.08,0.44-0.16,0.66-0.24c0.23-0.08,0.46-0.15,0.69-0.22 c0.22-0.07,0.44-0.14,0.66-0.2c0.23-0.07,0.47-0.13,0.7-0.19c0.23-0.06,0.46-0.12,0.69-0.17c0.23-0.05,0.46-0.1,0.7-0.15 c0.24-0.05,0.48-0.1,0.71-0.14c0.23-0.04,0.47-0.08,0.7-0.12c0.24-0.04,0.48-0.07,0.72-0.1c0.24-0.03,0.48-0.06,0.73-0.08 c0.24-0.02,0.48-0.05,0.72-0.06c0.25-0.02,0.49-0.03,0.74-0.05C600.58,529.46,600.94,529.45,601.3,529.44z" class="st8"/></g><g><linearGradient id="SVGID_8_" x1="576.26" x2="640.571" y1="672.626" y2="612.234" gradientTransform="matrix(1 9.327678e-03 -9.327678e-03 1 -4.6929 5.2776)" gradientUnits="userSpaceOnUse"><stop style="stop-color:#d4490b" offset="0"/><stop style="stop-color:#f2822b" offset="1"/></linearGradient><path d="M597.19,657.21c0.06-0.11,0.13-0.21,0.19-0.32c0.38-0.65,0.77-1.29,1.16-1.91c0.08-0.14,0.17-0.27,0.25-0.41 c0.43-0.68,0.87-1.35,1.31-2c0.09-0.14,0.19-0.27,0.28-0.41c0.41-0.6,0.83-1.2,1.26-1.77c0.06-0.08,0.11-0.15,0.17-0.23 c0.46-0.63,0.93-1.23,1.41-1.83c0.11-0.14,0.22-0.27,0.33-0.41c0.48-0.6,0.97-1.18,1.46-1.75c0.02-0.03,0.05-0.05,0.07-0.08 c0.48-0.54,0.96-1.07,1.45-1.58c0.11-0.11,0.21-0.23,0.32-0.34c0.54-0.56,1.08-1.1,1.63-1.62c0.1-0.09,0.2-0.18,0.3-0.28 c0.57-0.54,1.15-1.06,1.73-1.55c0.01-0.01,0.03-0.02,0.04-0.03c0.58-0.49,1.16-0.95,1.75-1.4c0.1-0.07,0.2-0.15,0.29-0.22 c0.58-0.43,1.16-0.84,1.74-1.23c0.14-0.09,0.27-0.18,0.41-0.27c0.34-0.22,0.69-0.44,1.04-0.65c0.14-0.08,0.28-0.17,0.41-0.25 c0.48-0.28,0.96-0.55,1.44-0.8c0.05-0.03,0.1-0.05,0.15-0.07c0.44-0.23,0.87-0.44,1.31-0.64c0.15-0.07,0.3-0.14,0.45-0.2 c0.36-0.16,0.71-0.31,1.07-0.45c0.15-0.06,0.3-0.12,0.46-0.18c0.48-0.19,0.97-0.36,1.46-0.52c0.02-0.01,0.04-0.01,0.06-0.02 c0.51-0.16,1.02-0.31,1.53-0.45c0.15-0.04,0.3-0.07,0.45-0.11c0.38-0.09,0.76-0.18,1.15-0.26c0.15-0.03,0.31-0.06,0.46-0.09 c0.49-0.09,0.99-0.17,1.48-0.23c0.03,0,0.06-0.01,0.09-0.01c0.31-0.04,0.62-0.07,0.93-0.09c0.13-0.01,0.26-0.03,0.39-0.04 c0.44-0.03,0.89-0.06,1.33-0.07c3.16-0.08,6.25,0.4,9.23,1.39l-9.27-3.07c-2.99-0.99-6.07-1.47-9.23-1.39 c-0.45,0.01-0.89,0.03-1.33,0.07c-0.16,0.01-0.31,0.03-0.47,0.05c-0.29,0.03-0.57,0.05-0.86,0.09c-0.01,0-0.01,0-0.02,0 c-0.03,0-0.06,0.01-0.08,0.01c-0.49,0.06-0.98,0.14-1.47,0.23c-0.16,0.03-0.31,0.06-0.47,0.09c-0.38,0.08-0.76,0.16-1.14,0.26 c-0.15,0.04-0.3,0.07-0.46,0.11c-0.51,0.14-1.02,0.28-1.53,0.44c-0.02,0.01-0.04,0.01-0.06,0.02c-0.49,0.16-0.97,0.33-1.46,0.52 c-0.06,0.02-0.12,0.04-0.17,0.06c-0.1,0.04-0.19,0.08-0.29,0.12c-0.36,0.14-0.71,0.29-1.07,0.45c-0.15,0.07-0.31,0.14-0.46,0.21 c-0.44,0.2-0.88,0.42-1.31,0.64c-0.05,0.03-0.1,0.05-0.15,0.07c-0.48,0.25-0.96,0.52-1.44,0.8c-0.14,0.08-0.28,0.17-0.41,0.25 c-0.35,0.21-0.69,0.43-1.04,0.65c-0.08,0.05-0.17,0.1-0.25,0.16c-0.05,0.04-0.1,0.08-0.16,0.11c-0.59,0.39-1.17,0.8-1.74,1.23 c-0.1,0.07-0.2,0.15-0.3,0.23c-0.59,0.45-1.17,0.91-1.75,1.4c-0.01,0.01-0.03,0.02-0.04,0.03c-0.58,0.5-1.16,1.02-1.73,1.55 c-0.1,0.09-0.2,0.18-0.3,0.28c-0.55,0.52-1.09,1.06-1.63,1.62c-0.04,0.05-0.09,0.09-0.13,0.13c-0.06,0.07-0.13,0.14-0.19,0.21 c-0.49,0.51-0.97,1.04-1.44,1.58c-0.03,0.03-0.05,0.06-0.08,0.09c-0.49,0.56-0.98,1.15-1.46,1.74c-0.11,0.14-0.22,0.27-0.33,0.41 c-0.47,0.6-0.94,1.2-1.41,1.83c-0.06,0.08-0.11,0.16-0.17,0.24c-0.42,0.58-0.84,1.17-1.25,1.76c-0.09,0.14-0.19,0.27-0.28,0.41 c-0.44,0.65-0.88,1.32-1.31,2c-0.09,0.14-0.17,0.27-0.26,0.41c-0.39,0.63-0.78,1.26-1.16,1.91c-0.06,0.11-0.13,0.21-0.19,0.32 c-0.42,0.72-0.82,1.45-1.23,2.19c-0.09,0.17-0.18,0.34-0.27,0.51c-0.41,0.76-0.81,1.53-1.2,2.32c-0.37,0.57-0.75,1.12-1.13,1.66 c-0.13,0.18-0.26,0.34-0.38,0.51c-0.26,0.36-0.53,0.72-0.8,1.07c-0.16,0.2-0.32,0.39-0.47,0.58c-0.25,0.31-0.5,0.62-0.75,0.91 c-0.18,0.2-0.36,0.4-0.54,0.6c-0.24,0.27-0.49,0.55-0.73,0.81c-0.2,0.21-0.4,0.4-0.6,0.6c-0.23,0.23-0.47,0.47-0.7,0.7 c-0.2,0.19-0.41,0.38-0.62,0.56c-0.24,0.22-0.48,0.44-0.72,0.64c-0.21,0.18-0.43,0.35-0.65,0.52c-0.24,0.2-0.49,0.4-0.73,0.59 c-0.22,0.17-0.45,0.32-0.67,0.48c-0.25,0.18-0.5,0.36-0.75,0.53c-0.43,0.29-0.86,0.56-1.3,0.82c-0.04,0.03-0.09,0.05-0.13,0.07 c-0.4,0.23-0.81,0.45-1.21,0.66c-0.15,0.08-0.3,0.14-0.44,0.22c-0.31,0.15-0.63,0.3-0.94,0.44c-0.16,0.07-0.33,0.14-0.49,0.21 c-0.31,0.13-0.63,0.25-0.94,0.36c-0.16,0.06-0.33,0.12-0.49,0.18c-0.38,0.13-0.77,0.24-1.15,0.35c-0.09,0.03-0.19,0.06-0.28,0.08 c-0.48,0.12-0.97,0.23-1.45,0.32c-0.13,0.02-0.27,0.04-0.4,0.06c-0.34,0.06-0.67,0.11-1.01,0.14c-0.62,0.07-1.24,0.13-1.87,0.14 c-2.44,0.06-4.81-0.31-7.09-1.06l9.27,3.07c2.28,0.75,4.65,1.12,7.09,1.06c0.63-0.02,1.25-0.07,1.87-0.14 c0.06-0.01,0.12-0.01,0.19-0.01c0.28-0.03,0.55-0.08,0.82-0.13c0.13-0.02,0.27-0.04,0.41-0.06c0.49-0.09,0.97-0.2,1.45-0.32 c0.1-0.03,0.19-0.06,0.29-0.08c0.38-0.11,0.77-0.22,1.15-0.35c0.17-0.06,0.33-0.12,0.49-0.18c0.2-0.07,0.39-0.13,0.59-0.21 c0.12-0.05,0.24-0.1,0.35-0.15c0.16-0.07,0.33-0.14,0.49-0.21c0.32-0.14,0.63-0.29,0.95-0.44c0.15-0.07,0.29-0.14,0.44-0.22 c0.41-0.21,0.82-0.43,1.22-0.67c0.04-0.02,0.08-0.04,0.12-0.07c0.4-0.23,0.79-0.48,1.18-0.73c0.04-0.03,0.08-0.06,0.12-0.08 c0.25-0.17,0.5-0.35,0.75-0.53c0.22-0.16,0.45-0.31,0.67-0.48c0.25-0.19,0.49-0.39,0.73-0.58c0.22-0.18,0.44-0.35,0.65-0.53 c0.24-0.2,0.47-0.42,0.71-0.63c0.21-0.19,0.42-0.38,0.63-0.57c0.23-0.22,0.46-0.46,0.7-0.69c0.18-0.18,0.36-0.35,0.54-0.54 c0.02-0.02,0.05-0.05,0.07-0.08c0.24-0.26,0.48-0.53,0.72-0.8c0.18-0.2,0.37-0.4,0.55-0.61c0.25-0.29,0.49-0.6,0.74-0.9 c0.16-0.2,0.33-0.39,0.49-0.59c0.27-0.35,0.53-0.7,0.8-1.06c0.13-0.17,0.26-0.34,0.39-0.52c0.39-0.54,0.76-1.1,1.13-1.66 c0.39-0.79,0.8-1.56,1.2-2.32c0.09-0.17,0.18-0.34,0.27-0.5C596.37,658.65,596.78,657.92,597.19,657.21z" class="st9"/><g><defs><path id="SVGID_1181_" d="M364.26,726.48l-9.27-3.07c-7.12-2.36-12.07-9.82-11.52-18.5c5.84-91.53,48.46-163.78,99.8-165.09 c6.53-0.17,12.91,0.82,19.08,2.86l9.27,3.07c-6.17-2.04-12.55-3.03-19.08-2.86c-51.34,1.31-93.96,73.56-99.8,165.09 C352.19,716.66,357.14,724.13,364.26,726.48z"/></defs><linearGradient id="SVGID_9_" x1="354.642" x2="481.336" y1="624.019" y2="624.019" gradientTransform="matrix(1 9.327678e-03 -9.327678e-03 1 -4.6929 5.2776)" gradientUnits="userSpaceOnUse"><stop style="stop-color:#e36905" offset="0"/><stop style="stop-color:#fabb6a" offset="1"/></linearGradient><use style="overflow:visible;fill:url(#SVGID_9_)" xlink:href="#SVGID_1181_"/><clipPath id="SVGID_10_"><use style="overflow:visible" xlink:href="#SVGID_1181_"/></clipPath><linearGradient id="SVGID_11_" x1="354.642" x2="481.336" y1="624.019" y2="624.019" gradientTransform="matrix(1 9.327678e-03 -9.327678e-03 1 -4.6929 5.2776)" gradientUnits="userSpaceOnUse"><stop style="stop-color:#e36905" offset="0"/><stop style="stop-color:#fabb6a" offset="1"/></linearGradient><path d="M462.35,542.68c-6.17-2.04-12.55-3.03-19.08-2.86 c-1.81,0.05-3.6,0.18-5.39,0.4c-4.84,0.6-9.6,1.82-14.24,3.64c-4.54,1.77-8.96,4.1-13.26,6.95 c-5.52,3.66-10.83,8.18-15.87,13.46c-27.56,28.87-47.21,80.61-51.04,140.64c-0.55,8.68,4.4,16.15,11.52,18.5l9.27,3.07 c-7.12-2.36-12.07-9.82-11.52-18.5c3.83-60.04,23.48-111.77,51.04-140.64c5.04-5.28,10.35-9.8,15.87-13.46 c4.3-2.85,8.73-5.18,13.26-6.95c4.64-1.81,9.39-3.04,14.24-3.64c1.78-0.22,3.58-0.35,5.39-0.4c6.53-0.17,12.91,0.82,19.08,2.86 L462.35,542.68z" style="clip-path:url(#SVGID_10_);fill:url(#SVGID_11_)"/></g><linearGradient id="SVGID_12_" x1="407.85" x2="615.296" y1="564.022" y2="770.745" gradientTransform="matrix(1 9.327678e-03 -9.327678e-03 1 -4.6929 5.2776)" gradientUnits="userSpaceOnUse"><stop style="stop-color:#fee38d" offset="0"/><stop style="stop-color:#f25c19" offset="1"/></linearGradient><path d="M630.43,632.41c22.6-0.58,41.41,27.43,46.41,65.74 c1.46,11.13-6.46,21.4-16.8,21.67l-65.82,1.68l-12.4,0.32l-30.67,0.78l-29.01,0.74l-152.65,3.91 c-9.77,0.25-17.42-8.59-16.74-19.27c5.84-91.53,48.46-163.78,99.8-165.09c40.21-1.03,74.62,41.74,90,104.15 c4.9,17.85,16.26,30.35,29.56,30.01c8.66-0.22,16.55-5.86,22.38-14.83C603.44,644.33,616.24,632.77,630.43,632.41z" style="opacity:.88;fill:url(#SVGID_12_)"/></g><linearGradient id="SVGID_13_" x1="312.158" x2="313.596" y1="669.436" y2="459.752" gradientUnits="userSpaceOnUse"><stop style="stop-color:#a5a5a5" offset="0"/><stop style="stop-color:#d1d1d1" offset=".992"/></linearGradient><path d="M314.69,745.16l4.88-265.45l-9.15-2.93l-4.88,265.45c-0.04,1.87,1.11,3.43,2.72,3.94l9.15,2.93 C315.8,748.59,314.66,747.03,314.69,745.16z" class="st14"/><g><linearGradient id="SVGID_14_" x1="701.823" x2="310.425" y1="474.168" y2="474.168" gradientUnits="userSpaceOnUse"><stop style="stop-color:#a5a5a5" offset="0"/><stop style="stop-color:#d1d1d1" offset="1"/></linearGradient><polygon points="319.57 479.71 310.43 476.78 692.68 468.63 701.82 471.56" class="st15"/></g></g><g><linearGradient id="SVGID_15_" x1="235.687" x2="406.37" y1="431.328" y2="431.328" gradientUnits="userSpaceOnUse"><stop style="stop-color:#ebebeb" offset="0"/><stop style="stop-color:#c5c5c7" offset="1"/></linearGradient><path d="M237.69,505.49c-1.07,0-1.96-0.85-2-1.93c-0.04-1.1,0.83-2.03,1.93-2.06c27.55-0.9,58.24-36.09,58.55-36.44 c1.92-2.32,3.54-4.65,4.87-6.96c-1.15,0.01-2.31-0.02-3.46-0.08l-0.16-0.01c-8.87-1.16-19.1-6.66-21.48-14.94 c-1.21-4.21-0.84-10.72,7.8-17.87l0.25-0.18c8.15-4.84,16.4-4.12,21.54,1.9c4.91,5.75,6.37,15.74,2.09,26.77 c56.25-6.79,94.51-94.36,94.91-95.29c0.44-1.01,1.61-1.48,2.63-1.05c1.01,0.44,1.48,1.61,1.05,2.63 c-0.11,0.25-11.07,25.54-29.71,50.07c-22.37,29.44-46.68,45.82-70.77,47.84c-1.65,3.23-3.81,6.5-6.51,9.76 c-1.32,1.53-32.16,36.9-61.47,37.86C237.73,505.49,237.71,505.49,237.69,505.49z M297.86,454.02c1.76,0.09,3.51,0.09,5.24,0.02 c4.55-10.25,3.6-19.6-0.61-24.53c-3.82-4.47-9.91-4.89-16.32-1.14c-3.82,3.19-7.96,8.1-6.39,13.58 C281.44,447.68,289.2,452.86,297.86,454.02z" class="st16"/></g><linearGradient id="SVGID_16_" x1="-645.379" x2="-716.97" y1="1059.045" y2="1048.828" gradientTransform="matrix(0.7901 -0.613 0.613 0.7901 113.8048 -652.8114)" gradientUnits="userSpaceOnUse"><stop style="stop-color:#ebebeb" offset="0"/><stop style="stop-color:#c5c5c7" offset="1"/></linearGradient><path d="M199.89,630.77c6.88-3.23,52.77-18.14,35.41-52.36c0,0,6.26-9.15,10.41-10.88c0.34-0.14,0.37-0.6,0.06-0.79 l-1.26-0.79c-0.2-0.13-0.44-0.16-0.67-0.08c-1.21,0.42-5.3,2.33-11.12,10.19c0,0-45.06-6.04-33.89,54.15 C198.91,630.7,199.44,630.98,199.89,630.77z" class="st17"/><g><linearGradient id="SVGID_17_" x1="1026.765" x2="1002.23" y1="442.129" y2="426.498" gradientTransform="matrix(0.9763 0.2164 -0.2164 0.9763 -101.7014 61.3572)" gradientUnits="userSpaceOnUse"><stop style="stop-color:#ebebeb" offset="0"/><stop style="stop-color:#f3f3f5" offset="1"/></linearGradient><path d="M771.99,741.9c-0.53-0.12-1.01-0.45-1.3-0.96c-0.55-0.96-0.22-2.18,0.74-2.73 c25.03-14.35,34.88-32.72,38.74-45.61c4.19-13.99,2.44-24.76,2.42-24.86c-0.18-1.09,0.55-2.12,1.63-2.31 c1.08-0.18,2.12,0.54,2.31,1.63c0.08,0.47,1.93,11.64-2.47,26.49c-4.04,13.65-14.37,33.07-40.64,48.13 C772.96,741.94,772.46,742,771.99,741.9z" class="st18"/></g><linearGradient id="SVGID_18_" x1="720.001" x2="720.001" y1="763.675" y2="792.518" gradientUnits="userSpaceOnUse"><stop style="stop-color:#ebebeb" offset="0"/><stop style="stop-color:#c5c5c7" offset="1"/></linearGradient><path d="M744.1,763.96c0,0-1.87,6.76-6.92,7.45s-10.38-14.57-23.07-3.99c-14.89,12.43-14.5,12.6-19.73,12.94 c-3.99,0.25,9.98,15.21,29.76,11.59c11.04-2.98,15.28-10.51,14.28-15.17c-0.16-0.74,0.1-1.51,0.68-2c1.84-1.56,5.58-4.89,6.94-7.31 c0.52-0.92,0.2-2.09-0.67-2.7L744.1,763.96z" class="st19"/></g></svg>