<svg xmlns="http://www.w3.org/2000/svg" xmlns:xlink="http://www.w3.org/1999/xlink" style="enable-background:new 0 0 1024 1024" x="0" y="0" version="1.1" viewBox="0 0 1024 1024" xml:space="preserve"><style type="text/css">.st2{fill:url(#SVGID_1_)}.st7{fill:url(#SVGID_6_)}.st8{fill:url(#SVGID_7_)}.st9{fill:url(#SVGID_8_)}.st10{fill:url(#SVGID_9_)}.st11{fill:url(#SVGID_10_)}.st13{fill:url(#SVGID_12_)}.st14{fill:url(#SVGID_13_)}.st15{fill:url(#SVGID_14_)}.st16{fill:url(#SVGID_15_)}.st1350{fill:#909090}</style><g id="暂无消息"><linearGradient id="SVGID_1_" x1="512" x2="512" y1="762.474" y2="822.465" gradientUnits="userSpaceOnUse"><stop style="stop-color:#e8e8e8" offset="0"/><stop style="stop-color:#f8f8f8;stop-opacity:.5" offset=".6"/><stop style="stop-color:#fff;stop-opacity:0" offset="1"/></linearGradient><path d="M735.24,822.46c0-16.56-99.95-59.99-223.24-59.99s-223.24,43.43-223.24,59.99H735.24z" class="st2"/><g><linearGradient id="SVGID_2_" x1="361.267" x2="361.267" y1="211.806" y2="374.691" gradientUnits="userSpaceOnUse"><stop style="stop-color:#e8e8e8" offset="0"/><stop style="stop-color:#f9f9f9;stop-opacity:.1" offset=".6"/><stop style="stop-color:#fff;stop-opacity:0" offset="1"/></linearGradient><path d="M490.07,316.8c0-25.47-20.42-46.17-45.78-46.63c0.65-3.18,1-6.47,1-9.84 c0-26.8-21.73-48.53-48.53-48.53c-18.02,0-33.73,9.83-42.1,24.41c-5.16-2.26-10.85-3.52-16.84-3.52 c-17.85,0-33.08,11.12-39.19,26.81c-2.71-0.39-5.47-0.6-8.29-0.6c-31.97,0-57.89,25.92-57.89,57.89 c0,31.97,25.92,57.89,57.89,57.89c12.99,0,24.98-4.28,34.64-11.5h113.44c1.64,0.17,3.3,0.27,4.99,0.27c1.69,0,3.35-0.09,4.99-0.27 l0,0l0,0C471.83,360.7,490.07,340.88,490.07,316.8z" style="fill:url(#SVGID_2_)"/><linearGradient id="SVGID_3_" x1="599.607" x2="599.607" y1="199.806" y2="412.185" gradientUnits="userSpaceOnUse"><stop style="stop-color:#e8e8e8" offset="0"/><stop style="stop-color:#f6f6f6;stop-opacity:.1" offset=".8"/><stop style="stop-color:#fff;stop-opacity:0" offset="1"/></linearGradient><path d="M791.54,336.24c0-35.03-28.4-63.43-63.43-63.43c-4.51,0-8.91,0.48-13.15,1.37 c-7.38-42.25-44.22-74.38-88.59-74.38c-32.19,0-60.41,16.92-76.31,42.34c-3.05-0.43-6.16-0.67-9.33-0.67 c-26.26,0-48.95,15.28-59.67,37.43c-2.17-0.21-4.36-0.33-6.58-0.33c-36.89,0-66.8,29.91-66.8,66.8c0,36.89,29.91,66.8,66.8,66.8 c14.82,0,28.5-4.83,39.58-13h206.23c2.56,0.32,5.17,0.49,7.82,0.49c2.62,0,5.2-0.18,7.74-0.49h0.32v-0.04 C767.39,395.18,791.54,368.54,791.54,336.24z" style="fill:url(#SVGID_3_)"/></g><g><linearGradient id="SVGID_4_" x1="235.687" x2="406.37" y1="431.328" y2="431.328" gradientUnits="userSpaceOnUse"><stop style="stop-color:#ebebeb" offset="0"/><stop style="stop-color:#c5c5c7" offset="1"/></linearGradient><path d="M237.69,505.49c-1.07,0-1.96-0.85-2-1.93c-0.04-1.1,0.83-2.03,1.93-2.06 c27.55-0.9,58.24-36.09,58.55-36.44c1.92-2.32,3.54-4.65,4.87-6.96c-1.15,0.01-2.31-0.02-3.46-0.08l-0.16-0.01 c-8.87-1.16-19.1-6.66-21.48-14.94c-1.21-4.21-0.84-10.72,7.8-17.87l0.25-0.18c8.15-4.84,16.4-4.12,21.54,1.9 c4.91,5.75,6.37,15.74,2.09,26.77c56.25-6.79,94.51-94.36,94.91-95.29c0.44-1.01,1.61-1.48,2.63-1.05 c1.01,0.44,1.48,1.61,1.05,2.63c-0.11,0.25-11.07,25.54-29.71,50.07c-22.37,29.44-46.68,45.82-70.77,47.84 c-1.65,3.23-3.81,6.5-6.51,9.76c-1.32,1.53-32.16,36.9-61.47,37.86C237.73,505.49,237.71,505.49,237.69,505.49z M297.86,454.02 c1.76,0.09,3.51,0.09,5.24,0.02c4.55-10.25,3.6-19.6-0.61-24.53c-3.82-4.47-9.91-4.89-16.32-1.14c-3.82,3.19-7.96,8.1-6.39,13.58 C281.44,447.68,289.2,452.86,297.86,454.02z" style="fill:url(#SVGID_4_)"/></g><linearGradient id="SVGID_5_" x1="-881.961" x2="-953.552" y1="1749.888" y2="1739.671" gradientTransform="matrix(0.7901 -0.613 0.613 0.7901 -122.7774 -1343.6548)" gradientUnits="userSpaceOnUse"><stop style="stop-color:#ebebeb" offset="0"/><stop style="stop-color:#c5c5c7" offset="1"/></linearGradient><path d="M199.89,630.77c6.88-3.23,52.77-18.14,35.41-52.36c0,0,6.26-9.15,10.41-10.88 c0.34-0.14,0.37-0.6,0.06-0.79l-1.26-0.79c-0.2-0.13-0.44-0.16-0.67-0.08c-1.21,0.42-5.3,2.33-11.12,10.19 c0,0-45.06-6.04-33.89,54.15C198.91,630.7,199.44,630.98,199.89,630.77z" style="fill:url(#SVGID_5_)"/><g><linearGradient id="SVGID_6_" x1="1000.055" x2="975.52" y1="198.227" y2="182.595" gradientTransform="matrix(0.9763 0.2164 -0.2164 0.9763 -128.4114 305.2596)" gradientUnits="userSpaceOnUse"><stop style="stop-color:#ebebeb" offset="0"/><stop style="stop-color:#c5c5c7" offset="1"/></linearGradient><path d="M771.99,741.9c-0.53-0.12-1.01-0.45-1.3-0.96c-0.55-0.96-0.22-2.18,0.74-2.73 c25.03-14.35,34.88-32.72,38.74-45.61c4.19-13.99,2.44-24.76,2.42-24.86c-0.18-1.09,0.55-2.12,1.63-2.31 c1.08-0.18,2.12,0.54,2.31,1.63c0.08,0.47,1.93,11.64-2.47,26.49c-4.04,13.65-14.37,33.07-40.64,48.13 C772.96,741.94,772.46,742,771.99,741.9z" class="st7"/></g><linearGradient id="SVGID_7_" x1="720.001" x2="720.001" y1="763.675" y2="792.518" gradientUnits="userSpaceOnUse"><stop style="stop-color:#ebebeb" offset="0"/><stop style="stop-color:#c5c5c7" offset="1"/></linearGradient><path d="M744.1,763.96c0,0-1.87,6.76-6.92,7.45s-10.38-14.57-23.07-3.99c-14.89,12.43-14.5,12.6-19.73,12.94 c-3.99,0.25,9.98,15.21,29.76,11.59c11.04-2.98,15.28-10.51,14.28-15.17c-0.16-0.74,0.1-1.51,0.68-2c1.84-1.56,5.58-4.89,6.94-7.31 c0.52-0.92,0.2-2.09-0.67-2.7L744.1,763.96z" class="st8"/><g><polygon points="553.23 548.48 526.75 539.99 561.6 538.77 588.08 547.26" class="st1350"/></g><g><g><g><linearGradient id="SVGID_8_" x1="525.385" x2="525.385" y1="539.992" y2="791.998" gradientUnits="userSpaceOnUse"><stop style="stop-color:#a5a5a5" offset="0"/><stop style="stop-color:#d1d1d1" offset="1"/></linearGradient><polygon points="539.13 792 512.65 783.51 511.64 539.99 538.12 548.48" class="st9"/></g><g><linearGradient id="SVGID_9_" x1="556.052" x2="556.052" y1="791.998" y2="547.263" gradientUnits="userSpaceOnUse"><stop style="stop-color:#ebebeb" offset="0"/><stop style="stop-color:#c5c5c7" offset="1"/></linearGradient><polygon points="572.97 547.26 573.99 790.78 539.13 792 538.12 548.48" class="st10"/></g></g><g><g><linearGradient id="SVGID_10_" x1="427.101" x2="427.101" y1="559.862" y2="399.515" gradientUnits="userSpaceOnUse"><stop style="stop-color:#f9a95b" offset="0"/><stop style="stop-color:#f25c19" offset="1"/></linearGradient><path d="M426.97,399.62c24.71,2.03,44.76,33.59,44.81,70.48l0.1,89.77l-89.45-7.37l-0.1-89.77 C382.28,425.84,402.27,397.58,426.97,399.62z" class="st11"/></g><linearGradient id="SVGID_11_" x1="449.277" x2="585.034" y1="554.144" y2="541.66" gradientUnits="userSpaceOnUse"><stop style="stop-color:#f48033" offset="0"/><stop style="stop-color:#f57e36" offset="1"/></linearGradient><polygon points="382.43 552.5 587.86 537.21 471.88 559.86" style="opacity:.9;fill:url(#SVGID_11_)"/><linearGradient id="SVGID_12_" x1="453.843" x2="653.876" y1="368.005" y2="568.038" gradientUnits="userSpaceOnUse"><stop style="stop-color:#ebebeb" offset="0"/><stop style="stop-color:#c5c5c7" offset="1"/></linearGradient><path d="M677.2,454.84c0-0.93-0.01-1.85-0.04-2.77c0-0.1-0.01-0.2-0.01-0.3c-0.04-1.24-0.1-2.48-0.18-3.71 c0-0.02,0-0.04,0-0.06c0,0,0,0,0,0c-0.1-1.41-0.23-2.81-0.39-4.2c-0.02-0.17-0.03-0.33-0.05-0.5c-0.04-0.31-0.09-0.62-0.12-0.93 c-0.08-0.62-0.16-1.25-0.25-1.86c-0.07-0.52-0.15-1.03-0.24-1.54c-0.1-0.61-0.2-1.22-0.31-1.83c-0.05-0.26-0.09-0.53-0.14-0.8 c-0.04-0.2-0.09-0.4-0.13-0.61c-0.17-0.89-0.36-1.77-0.56-2.65c-0.08-0.35-0.15-0.7-0.23-1.05c-0.29-1.2-0.59-2.39-0.92-3.57 c-0.05-0.17-0.1-0.34-0.15-0.51c-0.29-1-0.59-2-0.9-2.98c-0.12-0.37-0.25-0.74-0.37-1.11c-0.27-0.79-0.54-1.57-0.83-2.35 c-0.08-0.21-0.15-0.43-0.23-0.65c-0.06-0.16-0.13-0.32-0.19-0.48c-0.31-0.82-0.64-1.62-0.98-2.42c-0.12-0.28-0.23-0.56-0.35-0.84 c-0.46-1.06-0.93-2.1-1.43-3.12c-0.02-0.04-0.04-0.08-0.06-0.12c-0.38-0.79-0.78-1.56-1.18-2.32c-0.07-0.13-0.15-0.26-0.22-0.4 c-0.32-0.59-0.64-1.18-0.97-1.76c-0.03-0.06-0.07-0.11-0.1-0.16c-0.61-1.06-1.24-2.09-1.89-3.09c-0.05-0.08-0.1-0.17-0.15-0.25 c-0.13-0.19-0.26-0.37-0.39-0.56c-0.42-0.63-0.85-1.25-1.28-1.86c-0.11-0.16-0.22-0.32-0.33-0.48c-0.11-0.15-0.23-0.3-0.35-0.45 c-0.35-0.47-0.7-0.93-1.06-1.38c-0.16-0.2-0.31-0.41-0.46-0.6c-0.09-0.11-0.19-0.22-0.28-0.33c-0.33-0.4-0.67-0.79-1-1.18 c-0.19-0.22-0.37-0.45-0.56-0.66c-0.08-0.09-0.16-0.17-0.25-0.26c-0.31-0.34-0.62-0.67-0.93-0.99c-0.22-0.23-0.43-0.47-0.64-0.69 c-0.08-0.08-0.17-0.16-0.25-0.25c-0.27-0.27-0.54-0.53-0.82-0.79c-0.23-0.22-0.46-0.45-0.69-0.67c-0.1-0.1-0.21-0.18-0.32-0.28 c-0.27-0.25-0.55-0.48-0.82-0.72c-0.22-0.19-0.43-0.38-0.65-0.57c-0.13-0.11-0.27-0.21-0.41-0.32c-0.26-0.21-0.53-0.42-0.79-0.63 c-0.19-0.15-0.38-0.31-0.57-0.45c-0.18-0.13-0.36-0.25-0.54-0.39c-0.27-0.19-0.53-0.39-0.8-0.57c-0.15-0.11-0.3-0.22-0.45-0.32 c-0.23-0.16-0.47-0.3-0.7-0.45c-0.26-0.17-0.52-0.34-0.78-0.5c-0.11-0.07-0.22-0.14-0.33-0.21c-0.3-0.18-0.62-0.35-0.92-0.52 c-0.24-0.14-0.48-0.28-0.73-0.41c-0.07-0.04-0.13-0.08-0.2-0.11c-0.43-0.23-0.87-0.44-1.31-0.65c-0.17-0.08-0.34-0.17-0.51-0.25 c-0.02-0.01-0.04-0.02-0.07-0.03c-0.65-0.3-1.3-0.58-1.96-0.84c-0.01,0-0.03-0.01-0.04-0.01c-0.15-0.06-0.31-0.11-0.47-0.17 c-0.5-0.19-1.01-0.37-1.51-0.54c-0.04-0.01-0.09-0.02-0.13-0.04c-0.32-0.1-0.64-0.18-0.96-0.27c-0.36-0.1-0.71-0.21-1.07-0.3 c-0.05-0.01-0.11-0.02-0.17-0.03c-0.39-0.09-0.79-0.17-1.18-0.24c-0.32-0.06-0.63-0.14-0.95-0.2c-0.05-0.01-0.1-0.01-0.15-0.02 c-0.52-0.09-1.05-0.14-1.58-0.2c-0.24-0.03-0.48-0.07-0.73-0.09c-0.05,0-0.11-0.01-0.16-0.01c-0.85-0.07-1.69-0.1-2.52-0.1 c-0.04,0-0.09-0.01-0.13,0c-0.69,0-1.38,0.03-2.07,0.08L422.25,399.6c0.73-0.05,1.46-0.08,2.2-0.08c0.83,0,1.67,0.03,2.52,0.1 c0.3,0.02,0.59,0.07,0.88,0.11c0.53,0.06,1.06,0.12,1.58,0.2c0.37,0.06,0.73,0.14,1.1,0.21c0.39,0.08,0.79,0.15,1.18,0.24 c0.41,0.1,0.82,0.22,1.24,0.34c0.32,0.09,0.64,0.17,0.96,0.27c0.55,0.17,1.1,0.37,1.65,0.57c0.15,0.06,0.31,0.1,0.46,0.16 c0.7,0.27,1.39,0.57,2.07,0.88c0.17,0.08,0.34,0.17,0.51,0.25c0.5,0.24,1.01,0.49,1.5,0.76c0.24,0.13,0.48,0.27,0.72,0.41 c0.42,0.24,0.84,0.48,1.25,0.74c0.26,0.16,0.52,0.33,0.77,0.5c0.39,0.25,0.78,0.51,1.16,0.78c0.27,0.19,0.53,0.38,0.79,0.57 c0.37,0.27,0.74,0.55,1.11,0.84c0.26,0.21,0.53,0.42,0.79,0.63c0.35,0.29,0.71,0.59,1.05,0.89c0.27,0.24,0.55,0.47,0.82,0.72 c0.34,0.31,0.68,0.63,1.01,0.95c0.27,0.26,0.54,0.52,0.81,0.79c0.3,0.31,0.6,0.62,0.9,0.94c0.31,0.33,0.62,0.65,0.93,0.99 c0.27,0.3,0.54,0.62,0.81,0.93c0.34,0.39,0.67,0.78,1,1.18c0.25,0.31,0.5,0.62,0.75,0.94c0.36,0.45,0.71,0.91,1.06,1.38 c0.23,0.31,0.45,0.62,0.68,0.93c0.44,0.61,0.86,1.23,1.28,1.86c0.18,0.27,0.36,0.54,0.54,0.82c0.65,1,1.28,2.03,1.89,3.09 c0.36,0.63,0.72,1.27,1.07,1.93c0.07,0.13,0.15,0.26,0.22,0.39c0.42,0.8,0.83,1.62,1.23,2.44c0.49,1.02,0.97,2.06,1.43,3.12 c0.12,0.28,0.23,0.56,0.35,0.84c0.34,0.8,0.66,1.6,0.98,2.42c0.14,0.38,0.28,0.75,0.42,1.13c0.28,0.77,0.56,1.55,0.83,2.34 c0.13,0.37,0.25,0.74,0.37,1.12c0.32,0.98,0.62,1.98,0.91,2.98c0.05,0.17,0.1,0.33,0.15,0.5c0.33,1.17,0.63,2.37,0.92,3.57 c0.08,0.35,0.16,0.7,0.23,1.05c0.2,0.88,0.39,1.76,0.56,2.65c0.09,0.47,0.18,0.93,0.26,1.4c0.11,0.61,0.21,1.22,0.31,1.83 c0.08,0.51,0.16,1.03,0.24,1.54c0.09,0.62,0.17,1.24,0.25,1.86c0.06,0.47,0.12,0.95,0.17,1.42c0.15,1.39,0.29,2.79,0.39,4.21 c0,0.01,0,0.03,0,0.04c0.08,1.23,0.14,2.48,0.18,3.73c0.03,1.02,0.05,2.04,0.06,3.07l0.1,89.77l205.43-15.26L677.2,454.84z" class="st13"/><g><g><linearGradient id="SVGID_13_" x1="382.322" x2="471.88" y1="479.689" y2="479.689" gradientUnits="userSpaceOnUse"><stop style="stop-color:#fa8a49" offset="0"/><stop style="stop-color:#e6753c" offset="1"/></linearGradient><path d="M424.47,401.12L424.47,401.12c0.78,0,1.58,0.03,2.37,0.1c23.86,1.96,43.3,32.87,43.34,68.88l0.1,88.03 l-86.25-7.1l-0.1-88.3c-0.02-20.93,6.7-40.17,17.98-51.46C408.53,404.62,416.33,401.12,424.47,401.12 M424.47,399.52 c-23.53,0-42.19,27.58-42.14,63.21l0.1,89.77l89.45,7.37l-0.1-89.77c-0.04-36.89-20.1-68.44-44.81-70.48 C426.13,399.55,425.29,399.52,424.47,399.52L424.47,399.52z" class="st14"/></g></g><g><linearGradient id="SVGID_14_" x1="394.732" x2="442.914" y1="631.427" y2="539.48" gradientUnits="userSpaceOnUse"><stop style="stop-color:#c4c4c4" offset="0"/><stop style="stop-color:#a6a6a6" offset=".897"/><stop style="stop-color:#bfbfbf" offset=".928"/></linearGradient><path d="M470.28,555.53l-24.32,61.15c-0.13,0.33-0.28,0.65-0.43,0.97c-0.11,0.25-0.23,0.5-0.36,0.74 c-0.11,0.21-0.22,0.42-0.33,0.62c-0.14,0.24-0.28,0.49-0.42,0.73c-0.12,0.19-0.23,0.38-0.35,0.57 c-0.23,0.36-0.48,0.72-0.74,1.08c-0.09,0.13-0.18,0.26-0.28,0.39c-0.36,0.48-0.74,0.95-1.14,1.42c-0.29,0.34-0.6,0.67-0.91,1.01 c-0.05,0.05-0.09,0.1-0.13,0.15c-0.37,0.38-0.75,0.76-1.14,1.13c-0.12,0.11-0.25,0.23-0.38,0.34c-0.28,0.25-0.56,0.51-0.85,0.76 c-0.16,0.14-0.33,0.27-0.5,0.41c-0.26,0.21-0.51,0.43-0.78,0.64c-0.43,0.34-0.86,0.66-1.31,0.99c-0.08,0.06-0.16,0.12-0.24,0.18 c-0.53,0.38-1.08,0.75-1.64,1.12c-0.17,0.11-0.34,0.21-0.51,0.32c-0.4,0.25-0.8,0.5-1.22,0.75c-0.22,0.13-0.45,0.26-0.67,0.39 c-0.38,0.22-0.76,0.43-1.15,0.64c-0.24,0.13-0.48,0.26-0.73,0.38c-0.39,0.2-0.79,0.4-1.19,0.6c-0.25,0.12-0.49,0.24-0.74,0.36 c-0.43,0.2-0.87,0.4-1.31,0.6c-0.22,0.1-0.45,0.2-0.67,0.3c-0.59,0.25-1.19,0.5-1.79,0.73c-0.08,0.03-0.17,0.07-0.25,0.1 c-0.69,0.27-1.4,0.52-2.11,0.77c-0.11,0.04-0.21,0.07-0.32,0.11c-1.2,0.41-2.43,0.8-3.68,1.16c-0.08,0.02-0.17,0.04-0.25,0.07 c-1.27,0.35-2.56,0.68-3.87,0.97c-0.12,0.03-0.25,0.05-0.37,0.08c-0.74,0.16-1.49,0.31-2.24,0.45 c-0.26,0.05-0.52,0.09-0.79,0.14c-0.69,0.12-1.39,0.23-2.09,0.33c-0.21,0.03-0.43,0.07-0.64,0.1c-0.67,0.09-1.34,0.17-2.01,0.25 c-0.12,0.01-0.25,0.03-0.37,0.04c-0.8,0.08-1.6,0.16-2.41,0.22c-0.34,0.02-0.67,0.04-1.01,0.06c-0.42,0.03-0.84,0.05-1.26,0.07 c-0.35,0.02-0.69,0.02-1.04,0.03c-0.42,0.01-0.83,0.03-1.25,0.03c-0.4,0.01-0.8,0-1.2,0c-0.34,0-0.68,0-1.03,0 c-0.41-0.01-0.82-0.02-1.23-0.03c-0.34-0.01-0.68-0.02-1.02-0.03c-0.71-0.03-1.42-0.07-2.13-0.12c-1.27-0.09-2.5-0.22-3.72-0.37 c-0.92-0.12-1.82-0.26-2.7-0.41c-0.14-0.02-0.28-0.05-0.42-0.07c-0.69-0.12-1.36-0.25-2.03-0.39c-0.13-0.03-0.25-0.06-0.38-0.08 c-0.55-0.12-1.09-0.25-1.63-0.38c-0.17-0.04-0.34-0.08-0.51-0.13c-0.76-0.2-1.51-0.4-2.24-0.63c-0.12-0.04-0.23-0.07-0.35-0.11 c-0.73-0.23-1.44-0.46-2.14-0.71c-0.04-0.01-0.08-0.03-0.12-0.04c-0.62-0.23-1.23-0.47-1.83-0.71 c-0.15-0.06-0.29-0.12-0.44-0.19c-0.56-0.24-1.1-0.48-1.63-0.73c-0.04-0.02-0.08-0.04-0.12-0.05c-0.56-0.27-1.11-0.55-1.64-0.84 c-0.13-0.07-0.26-0.14-0.39-0.21c-0.5-0.28-0.99-0.56-1.46-0.85c-0.03-0.02-0.06-0.04-0.09-0.06c-0.5-0.31-0.97-0.62-1.44-0.95 c-0.12-0.08-0.23-0.16-0.34-0.24c-0.44-0.31-0.87-0.63-1.28-0.96c-0.02-0.02-0.05-0.03-0.07-0.05 c-0.43-0.34-0.83-0.69-1.23-1.05c-0.1-0.09-0.2-0.18-0.29-0.27c-0.37-0.35-0.74-0.7-1.08-1.05c-0.02-0.02-0.03-0.03-0.05-0.05 c-0.35-0.37-0.68-0.75-1-1.14c-0.08-0.1-0.16-0.19-0.24-0.29c-0.3-0.38-0.59-0.76-0.86-1.15c-0.01-0.01-0.02-0.03-0.03-0.04 c-0.28-0.4-0.53-0.81-0.77-1.22c-0.06-0.1-0.12-0.2-0.17-0.31c-0.23-0.41-0.44-0.82-0.63-1.23c0-0.01-0.01-0.02-0.01-0.03 c-0.19-0.42-0.36-0.85-0.52-1.29c-0.04-0.11-0.08-0.21-0.11-0.32c-0.14-0.43-0.28-0.86-0.38-1.3c0-0.01,0-0.01,0-0.02 c-0.11-0.44-0.18-0.89-0.25-1.34c-0.02-0.11-0.03-0.22-0.05-0.34c-0.06-0.45-0.1-0.91-0.11-1.37l0.12,3.72 c0.01,0.46,0.06,0.91,0.11,1.37c0.01,0.11,0.03,0.23,0.05,0.34c0.07,0.45,0.14,0.9,0.25,1.34c0,0.01,0,0.01,0,0.02 c0.11,0.44,0.24,0.87,0.38,1.3c0.04,0.11,0.07,0.21,0.11,0.32c0.15,0.43,0.32,0.86,0.52,1.28c0,0.01,0.01,0.02,0.01,0.03 c0.19,0.41,0.4,0.82,0.63,1.23c0.06,0.1,0.12,0.21,0.18,0.31c0.24,0.41,0.49,0.82,0.77,1.22c0.01,0.01,0.02,0.03,0.03,0.04 c0.27,0.39,0.56,0.77,0.86,1.14c0.08,0.1,0.16,0.19,0.24,0.29c0.32,0.38,0.65,0.77,1,1.14c0.02,0.02,0.03,0.03,0.05,0.05 c0.34,0.36,0.7,0.71,1.08,1.05c0.1,0.09,0.19,0.18,0.29,0.27c0.4,0.36,0.8,0.71,1.23,1.05c0.02,0.02,0.05,0.04,0.07,0.05 c0.41,0.33,0.84,0.64,1.28,0.95c0.11,0.08,0.23,0.16,0.35,0.24c0.47,0.32,0.94,0.64,1.44,0.95c0.03,0.02,0.06,0.04,0.1,0.06 c0.47,0.29,0.96,0.57,1.46,0.85c0.13,0.07,0.26,0.14,0.4,0.22c0.53,0.29,1.08,0.57,1.64,0.83c0.04,0.02,0.09,0.04,0.13,0.06 c0.53,0.25,1.07,0.49,1.63,0.73c0.15,0.06,0.29,0.12,0.44,0.18c0.6,0.25,1.2,0.49,1.83,0.71c0.01,0,0.02,0.01,0.03,0.01 c0.03,0.01,0.06,0.02,0.09,0.03c0.7,0.25,1.41,0.49,2.14,0.71c0.12,0.04,0.23,0.07,0.35,0.11c0.73,0.22,1.48,0.43,2.24,0.63 c0.07,0.02,0.14,0.04,0.21,0.06c0.1,0.02,0.2,0.05,0.3,0.07c0.54,0.13,1.08,0.26,1.63,0.38c0.13,0.03,0.25,0.06,0.38,0.09 c0.67,0.14,1.34,0.27,2.03,0.39c0.06,0.01,0.11,0.02,0.16,0.03c0.08,0.01,0.17,0.02,0.25,0.04c0.89,0.15,1.78,0.29,2.7,0.41 c0.45,0.06,0.9,0.11,1.36,0.16c0.77,0.08,1.56,0.15,2.35,0.21c0.66,0.05,1.33,0.09,1.99,0.12c0.05,0,0.1,0,0.14,0 c0.34,0.02,0.68,0.02,1.01,0.03c0.41,0.01,0.82,0.03,1.23,0.03c0.34,0,0.69,0,1.03,0c0.34,0,0.67,0.01,1.01,0 c0.06,0,0.13,0,0.19-0.01c0.42-0.01,0.84-0.02,1.25-0.04c0.34-0.01,0.69-0.02,1.03-0.03c0.42-0.02,0.85-0.05,1.27-0.07 c0.29-0.02,0.59-0.03,0.88-0.05c0.04,0,0.08-0.01,0.12-0.01c0.81-0.06,1.61-0.13,2.41-0.22c0.13-0.01,0.26-0.03,0.39-0.05 c0.67-0.07,1.34-0.16,2-0.25c0.06-0.01,0.12-0.01,0.19-0.02c0.15-0.02,0.3-0.05,0.45-0.07c0.7-0.1,1.4-0.21,2.09-0.33 c0.26-0.05,0.53-0.09,0.79-0.14c0.75-0.14,1.49-0.29,2.23-0.45c0.11-0.02,0.21-0.04,0.32-0.06c0.02,0,0.04-0.01,0.06-0.02 c1.31-0.29,2.6-0.62,3.88-0.97c0.08-0.02,0.16-0.04,0.24-0.07c1.25-0.35,2.48-0.74,3.68-1.16c0.06-0.02,0.13-0.04,0.2-0.06 c0.04-0.01,0.08-0.03,0.13-0.05c0.71-0.25,1.41-0.5,2.11-0.77c0.09-0.03,0.17-0.07,0.26-0.1c0.6-0.24,1.2-0.48,1.79-0.73 c0.23-0.1,0.45-0.2,0.68-0.3c0.44-0.19,0.88-0.39,1.31-0.59c0.25-0.12,0.5-0.24,0.74-0.36c0.4-0.2,0.8-0.39,1.19-0.6 c0.25-0.13,0.49-0.26,0.73-0.39c0.39-0.21,0.77-0.42,1.15-0.64c0.22-0.13,0.45-0.26,0.67-0.39c0.42-0.25,0.82-0.5,1.22-0.75 c0.17-0.11,0.34-0.21,0.51-0.32c0.56-0.36,1.11-0.74,1.64-1.12c0.08-0.06,0.15-0.11,0.23-0.17c0.45-0.33,0.89-0.66,1.32-1 c0.04-0.03,0.09-0.07,0.13-0.1c0.22-0.18,0.43-0.36,0.64-0.53c0.17-0.14,0.34-0.27,0.5-0.41c0.29-0.25,0.57-0.5,0.85-0.76 c0.12-0.11,0.25-0.22,0.37-0.34c0.39-0.37,0.77-0.75,1.14-1.13c0.05-0.05,0.09-0.11,0.14-0.16c0.3-0.31,0.59-0.63,0.87-0.95 c0.01-0.02,0.02-0.03,0.04-0.05c0.4-0.46,0.78-0.94,1.14-1.41c0.1-0.13,0.18-0.26,0.28-0.39c0.26-0.36,0.51-0.71,0.74-1.08 c0.05-0.08,0.11-0.15,0.15-0.22c0.07-0.12,0.13-0.23,0.2-0.35c0.15-0.24,0.29-0.48,0.42-0.73c0.11-0.21,0.23-0.42,0.33-0.63 c0.13-0.25,0.24-0.49,0.36-0.74c0.05-0.11,0.11-0.22,0.16-0.34c0.09-0.21,0.18-0.42,0.26-0.63l24.32-61.15L470.28,555.53z" class="st15"/><g><linearGradient id="SVGID_15_" x1="377.676" x2="444.753" y1="553.616" y2="620.459" gradientUnits="userSpaceOnUse"><stop style="stop-color:#ebebeb" offset="0"/><stop style="stop-color:#d2d2d4" offset="1"/></linearGradient><path d="M387.76,639.4c-22.02-2.81-35.3-15.48-29.84-29.2l24.32-61.15l88.05,6.49l-24.32,61.15 c-5.76,14.48-30.28,24.88-54.49,23.09C390.21,639.68,388.97,639.56,387.76,639.4z" class="st16"/></g></g></g></g></g></svg>