<svg xmlns="http://www.w3.org/2000/svg" xmlns:xlink="http://www.w3.org/1999/xlink" style="enable-background:new 0 0 1024 1024" x="0" y="0" version="1.1" viewBox="0 0 1024 1024" xml:space="preserve"><style type="text/css">.st2{fill:url(#SVGID_1_)}.st7{fill:url(#SVGID_6_)}.st8{fill:url(#SVGID_7_)}.st9{fill:url(#SVGID_8_)}.st10{fill:url(#SVGID_9_)}.st11{fill:url(#SVGID_10_)}.st12{fill:url(#SVGID_11_)}.st13{fill:url(#SVGID_12_)}.st14{fill:url(#SVGID_13_)}.st15{fill:url(#SVGID_14_)}.st16{fill:url(#SVGID_15_)}.st17{fill:url(#SVGID_16_)}.st18{fill:url(#SVGID_17_)}.st21{fill:url(#SVGID_20_)}.st24{fill:url(#SVGID_23_)}</style><g id="无网络_x2F_服务器异常"><linearGradient id="SVGID_1_" x1="512" x2="512" y1="762.474" y2="822.465" gradientUnits="userSpaceOnUse"><stop style="stop-color:#e8e8e8" offset="0"/><stop style="stop-color:#f8f8f8;stop-opacity:.5" offset=".6"/><stop style="stop-color:#fff;stop-opacity:0" offset="1"/></linearGradient><path d="M735.24,822.46c0-16.56-99.95-59.99-223.24-59.99s-223.24,43.43-223.24,59.99H735.24z" class="st2"/><g><linearGradient id="SVGID_2_" x1="361.267" x2="361.267" y1="211.806" y2="374.691" gradientUnits="userSpaceOnUse"><stop style="stop-color:#e8e8e8" offset="0"/><stop style="stop-color:#f9f9f9;stop-opacity:.1" offset=".6"/><stop style="stop-color:#fff;stop-opacity:0" offset="1"/></linearGradient><path d="M490.07,316.8c0-25.47-20.42-46.17-45.78-46.63c0.65-3.18,1-6.47,1-9.84 c0-26.8-21.73-48.53-48.53-48.53c-18.02,0-33.73,9.83-42.1,24.41c-5.16-2.26-10.85-3.52-16.84-3.52 c-17.85,0-33.08,11.12-39.19,26.81c-2.71-0.39-5.47-0.6-8.29-0.6c-31.97,0-57.89,25.92-57.89,57.89 c0,31.97,25.92,57.89,57.89,57.89c12.99,0,24.98-4.28,34.64-11.5h113.44c1.64,0.17,3.3,0.27,4.99,0.27c1.69,0,3.35-0.09,4.99-0.27 l0,0l0,0C471.83,360.7,490.07,340.88,490.07,316.8z" style="fill:url(#SVGID_2_)"/><linearGradient id="SVGID_3_" x1="599.607" x2="599.607" y1="199.806" y2="412.185" gradientUnits="userSpaceOnUse"><stop style="stop-color:#e8e8e8" offset="0"/><stop style="stop-color:#f6f6f6;stop-opacity:.1" offset=".8"/><stop style="stop-color:#fff;stop-opacity:0" offset="1"/></linearGradient><path d="M791.54,336.24c0-35.03-28.4-63.43-63.43-63.43c-4.51,0-8.91,0.48-13.15,1.37 c-7.38-42.25-44.22-74.38-88.59-74.38c-32.19,0-60.41,16.92-76.31,42.34c-3.05-0.43-6.16-0.67-9.33-0.67 c-26.26,0-48.95,15.28-59.67,37.43c-2.17-0.21-4.36-0.33-6.58-0.33c-36.89,0-66.8,29.91-66.8,66.8c0,36.89,29.91,66.8,66.8,66.8 c14.82,0,28.5-4.83,39.58-13h206.23c2.56,0.32,5.17,0.49,7.82,0.49c2.62,0,5.2-0.18,7.74-0.49h0.32v-0.04 C767.39,395.18,791.54,368.54,791.54,336.24z" style="fill:url(#SVGID_3_)"/></g><g><g><linearGradient id="SVGID_4_" x1="556.211" x2="558.662" y1="515.4" y2="451.634" gradientUnits="userSpaceOnUse"><stop style="stop-color:#d4490b" offset="0"/><stop style="stop-color:#f2822b" offset="1"/></linearGradient><path d="M563.7,443.34l-7.86-2.52l-1.81,32.96l-3.15,57.48c-0.06,1.11,0.57,1.89,1.34,2.13 l7.86,2.52c-0.77-0.25-1.4-1.02-1.34-2.13l3.15-57.48L563.7,443.34z" style="fill:url(#SVGID_4_)"/><linearGradient id="SVGID_5_" x1="541.754" x2="623.136" y1="392.888" y2="473.988" gradientUnits="userSpaceOnUse"><stop style="stop-color:#fee38d" offset="0"/><stop style="stop-color:#f25c19" offset="1"/></linearGradient><path d="M604.21,330.88c1.01-0.04,2.01,0.82,1.93,2.21l-3.14,57.51l-1.81,32.96l20.04,7.06 c1.2,0.42,1.68,2.01,0.97,3.2l-31.25,52.71L562.23,535c-0.39,0.66-0.97,0.97-1.55,0.99c-1.02,0.04-2.02-0.83-1.94-2.22 l3.15-57.48l1.81-32.96l-20.06-7.07c-1.18-0.41-1.66-2-0.96-3.18l31.25-52.72l28.74-48.5 C603.06,331.21,603.64,330.9,604.21,330.88z" style="fill:url(#SVGID_5_)"/><linearGradient id="SVGID_6_" x1="547.193" x2="609.717" y1="440.474" y2="333.844" gradientUnits="userSpaceOnUse"><stop style="stop-color:#e36905" offset="0"/><stop style="stop-color:#fabb6a" offset="1"/></linearGradient><path d="M596.95,328.45c-0.19-0.06-0.4-0.09-0.6-0.08c-0.06,0-0.11,0.01-0.17,0.01c-0.04,0.01-0.09,0.03-0.13,0.03 c-0.07,0.01-0.13,0.03-0.2,0.05c-0.03,0.01-0.05,0.01-0.08,0.02c-0.06,0.02-0.11,0.06-0.17,0.09c-0.04,0.02-0.08,0.04-0.12,0.06 c-0.01,0.01-0.03,0.01-0.04,0.02c-0.07,0.05-0.14,0.12-0.21,0.18c-0.03,0.03-0.07,0.06-0.11,0.09c0,0.01-0.01,0.01-0.02,0.01 c-0.11,0.12-0.21,0.25-0.3,0.4l-28.74,48.5l-31.25,52.72c-0.7,1.18-0.22,2.77,0.96,3.18l20.06,7.07l7.86,2.52l-20.06-7.07 c-1.18-0.41-1.66-2-0.96-3.18l31.25-52.72l28.74-48.5c0.09-0.16,0.2-0.3,0.32-0.41c0.03-0.03,0.07-0.06,0.11-0.09 c0.08-0.08,0.17-0.15,0.26-0.2c0.04-0.02,0.08-0.04,0.12-0.06c0.08-0.04,0.17-0.08,0.25-0.11c0.06-0.02,0.13-0.04,0.19-0.05 c0.1-0.02,0.2-0.05,0.3-0.05c0.2-0.01,0.41,0.02,0.6,0.08L596.95,328.45z" class="st7"/></g><g><g><linearGradient id="SVGID_7_" x1="577.237" x2="614.899" y1="489.913" y2="489.913" gradientUnits="userSpaceOnUse"><stop style="stop-color:#a5a5a5" offset="0"/><stop style="stop-color:#bfbfbf" offset="1"/></linearGradient><polygon points="585.09 516.19 577.24 513.67 607.04 463.63 614.9 466.15" class="st8"/></g><g><linearGradient id="SVGID_8_" x1="534.977" x2="566.906" y1="565.67" y2="565.67" gradientUnits="userSpaceOnUse"><stop style="stop-color:#a5a5a5" offset="0"/><stop style="stop-color:#bfbfbf" offset="1"/></linearGradient><polygon points="542.83 587.14 534.98 584.62 559.05 544.2 566.91 546.72" class="st9"/></g><linearGradient id="SVGID_9_" x1="480.007" x2="504.433" y1="714.36" y2="624.465" gradientUnits="userSpaceOnUse"><stop style="stop-color:#ababab" offset=".025"/><stop style="stop-color:#d6d6d6" offset=".881"/></linearGradient><path d="M530.58,632l-7.86-2.52c-4.5-1.44-9.32-2.14-14.34-1.97c-0.75,0.03-1.49,0.07-2.22,0.14 c-0.25,0.02-0.49,0.06-0.74,0.08c-0.45,0.05-0.9,0.09-1.34,0.15c-0.04,0-0.07,0.01-0.1,0.02c-0.83,0.11-1.66,0.25-2.47,0.41 c-0.2,0.04-0.39,0.09-0.59,0.13c-0.62,0.13-1.23,0.27-1.84,0.43c-0.28,0.07-0.57,0.15-0.85,0.23c-0.52,0.15-1.05,0.3-1.56,0.47 c-0.29,0.09-0.58,0.19-0.87,0.29c-0.52,0.18-1.03,0.37-1.54,0.57c-0.18,0.07-0.37,0.13-0.54,0.2c-0.09,0.04-0.17,0.08-0.26,0.11 c-0.42,0.17-0.84,0.36-1.26,0.54c-0.28,0.13-0.57,0.25-0.85,0.38c-0.44,0.21-0.88,0.43-1.32,0.66c-0.24,0.12-0.49,0.24-0.73,0.37 c-0.55,0.29-1.09,0.6-1.62,0.92c-0.12,0.07-0.25,0.14-0.37,0.21c-0.65,0.39-1.3,0.8-1.93,1.23c-0.02,0.01-0.03,0.02-0.05,0.03 c-0.11,0.07-0.21,0.15-0.32,0.23c-0.55,0.38-1.09,0.76-1.62,1.16c-0.22,0.17-0.44,0.34-0.66,0.51c-0.42,0.33-0.84,0.67-1.26,1.01 c-0.23,0.2-0.47,0.4-0.7,0.6c-0.39,0.34-0.78,0.69-1.16,1.05c-0.22,0.21-0.44,0.41-0.66,0.62c-0.41,0.39-0.8,0.8-1.19,1.2 c-0.14,0.14-0.28,0.27-0.41,0.42c-0.04,0.05-0.08,0.09-0.13,0.14c-0.26,0.28-0.51,0.57-0.76,0.85c-0.24,0.27-0.48,0.54-0.71,0.81 c-0.25,0.29-0.48,0.59-0.72,0.89c-0.23,0.28-0.46,0.56-0.68,0.84c-0.23,0.3-0.46,0.62-0.69,0.93c-0.21,0.29-0.43,0.58-0.64,0.87 c-0.22,0.32-0.43,0.64-0.65,0.97c-0.2,0.3-0.4,0.59-0.59,0.9c-0.21,0.33-0.41,0.67-0.61,1.01c-0.18,0.31-0.37,0.61-0.55,0.92 c-0.2,0.34-0.38,0.69-0.57,1.04c-0.17,0.31-0.34,0.62-0.51,0.94c-0.18,0.35-0.35,0.71-0.52,1.07c-0.15,0.32-0.32,0.64-0.46,0.97 c-0.16,0.36-0.31,0.73-0.47,1.1c-0.14,0.33-0.29,0.66-0.42,0.99c-0.15,0.37-0.28,0.76-0.42,1.13c-0.12,0.34-0.25,0.67-0.37,1.01 c-0.13,0.39-0.25,0.78-0.38,1.18c-0.11,0.34-0.22,0.67-0.32,1.01c-0.12,0.4-0.22,0.81-0.33,1.22c-0.09,0.34-0.19,0.67-0.27,1.01 c-0.1,0.42-0.18,0.84-0.28,1.27c-0.07,0.34-0.15,0.67-0.22,1.01c-0.08,0.44-0.15,0.88-0.22,1.33c-0.05,0.33-0.12,0.65-0.16,0.98 c-0.07,0.47-0.11,0.94-0.17,1.41c-0.03,0.31-0.08,0.62-0.11,0.93c-0.05,0.53-0.08,1.06-0.11,1.6c-0.02,0.26-0.04,0.52-0.05,0.78 c-0.04,0.8-0.05,1.6-0.05,2.4c0.15,20.21,12.75,36.92,30.18,42.51l7.86,2.52c-17.43-5.59-30.03-22.3-30.18-42.51 c0-0.81,0.01-1.61,0.05-2.4c0.01-0.26,0.04-0.52,0.05-0.78c0.03-0.53,0.06-1.07,0.11-1.6c0.03-0.31,0.07-0.62,0.11-0.93 c0.05-0.47,0.1-0.95,0.17-1.41c0.05-0.34,0.11-0.66,0.17-1c0.07-0.44,0.14-0.88,0.22-1.31c0.07-0.34,0.15-0.68,0.22-1.02 c0.09-0.42,0.17-0.84,0.27-1.25c0.08-0.34,0.18-0.68,0.27-1.02c0.11-0.4,0.21-0.81,0.32-1.21c0.1-0.34,0.21-0.68,0.32-1.02 c0.12-0.39,0.24-0.78,0.37-1.17c0.12-0.34,0.25-0.67,0.37-1c0.14-0.38,0.28-0.77,0.43-1.14c0.13-0.33,0.28-0.66,0.42-0.99 c0.16-0.37,0.31-0.74,0.47-1.1c0.15-0.33,0.31-0.65,0.46-0.97c0.17-0.36,0.34-0.72,0.52-1.07c0.16-0.32,0.34-0.63,0.5-0.94 c0.19-0.35,0.37-0.7,0.57-1.04c0.18-0.31,0.37-0.62,0.55-0.92c0.2-0.33,0.4-0.67,0.61-1c0.19-0.3,0.4-0.6,0.59-0.9 c0.21-0.32,0.43-0.65,0.65-0.97c0.21-0.29,0.42-0.58,0.64-0.87c0.23-0.31,0.45-0.62,0.69-0.93c0.22-0.29,0.45-0.56,0.68-0.84 c0.24-0.3,0.48-0.6,0.73-0.89c0.23-0.27,0.47-0.54,0.71-0.81c0.25-0.29,0.5-0.57,0.76-0.85c0.18-0.19,0.36-0.37,0.54-0.56 c0.39-0.41,0.79-0.81,1.19-1.2c0.22-0.21,0.44-0.41,0.66-0.62c0.38-0.36,0.77-0.71,1.16-1.05c0.23-0.2,0.46-0.4,0.7-0.6 c0.41-0.35,0.83-0.68,1.26-1.01c0.22-0.17,0.44-0.35,0.66-0.52c0.53-0.4,1.07-0.79,1.62-1.16c0.12-0.08,0.24-0.17,0.36-0.25 c0.63-0.43,1.28-0.84,1.93-1.23c0.12-0.07,0.25-0.14,0.37-0.21c0.54-0.32,1.08-0.63,1.62-0.92c0.24-0.13,0.49-0.25,0.73-0.37 c0.44-0.22,0.87-0.45,1.32-0.66c0.28-0.13,0.56-0.25,0.85-0.38c0.42-0.19,0.84-0.37,1.26-0.55c0.27-0.11,0.53-0.21,0.8-0.31 c0.51-0.2,1.03-0.39,1.55-0.57c0.29-0.1,0.58-0.19,0.87-0.29c0.52-0.17,1.04-0.32,1.57-0.47c0.28-0.08,0.56-0.16,0.84-0.23 c0.61-0.16,1.23-0.3,1.85-0.43c0.2-0.04,0.39-0.09,0.59-0.13c0.82-0.16,1.64-0.3,2.47-0.41c0.48-0.07,0.96-0.11,1.44-0.16 c0.25-0.03,0.49-0.06,0.74-0.08c0.74-0.06,1.48-0.11,2.22-0.14c3.14-0.11,6.2,0.12,9.15,0.67 C527.16,631.02,528.9,631.46,530.58,632L530.58,632C530.58,632,530.58,632,530.58,632z" class="st10"/><g><linearGradient id="SVGID_10_" x1="394.708" x2="444.039" y1="627.918" y2="627.918" gradientUnits="userSpaceOnUse"><stop style="stop-color:#a5a5a5" offset="0"/><stop style="stop-color:#c9c9c9" offset="1"/></linearGradient><polygon points="444.04 649.89 436.18 647.37 394.71 605.95 402.56 608.47" class="st11"/></g><linearGradient id="SVGID_11_" x1="399.507" x2="537.653" y1="592.047" y2="528.525" gradientUnits="userSpaceOnUse"><stop style="stop-color:#bfbfbf" offset=".025"/><stop style="stop-color:#cdcdcd" offset=".881"/></linearGradient><path d="M537.51,537.83c-9.49-1.91-19.37-2.76-29.5-2.41c-1.35,0.05-2.69,0.12-4.02,0.21 c-0.38,0.03-0.76,0.05-1.14,0.08c-1.03,0.08-2.07,0.17-3.1,0.27c-0.33,0.03-0.67,0.06-1,0.1c-1.23,0.13-2.46,0.27-3.68,0.44 l0.02,0h0l-0.02,0c-10.79,1.46-21.2,4.26-31.07,8.22c-3.51,1.41-6.94,2.97-10.3,4.66c-0.15,0.08-0.3,0.16-0.45,0.23 c-0.97,0.49-1.94,1-2.9,1.51c-0.25,0.13-0.49,0.27-0.74,0.4c-0.86,0.47-1.72,0.95-2.57,1.44c-0.29,0.17-0.57,0.33-0.86,0.5 c-0.81,0.47-1.61,0.95-2.4,1.44c-0.3,0.19-0.61,0.37-0.91,0.56c-0.78,0.48-1.55,0.98-2.31,1.48c-0.3,0.2-0.61,0.4-0.91,0.6 c-0.27,0.18-0.55,0.36-0.82,0.54c-0.43,0.29-0.86,0.6-1.29,0.89c-0.4,0.28-0.8,0.55-1.2,0.84c-0.66,0.47-1.32,0.94-1.97,1.42 c-0.41,0.3-0.82,0.6-1.22,0.9c-0.63,0.48-1.26,0.96-1.89,1.44c-0.41,0.32-0.83,0.64-1.23,0.97c-0.61,0.48-1.21,0.97-1.81,1.47 c-0.42,0.34-0.83,0.68-1.24,1.03c-0.58,0.49-1.16,0.99-1.73,1.49c-0.42,0.36-0.83,0.73-1.25,1.09c-0.56,0.5-1.11,1-1.66,1.51 c-0.42,0.38-0.84,0.77-1.25,1.16c-0.53,0.5-1.06,1.02-1.59,1.53c-0.42,0.4-0.83,0.81-1.24,1.22c-0.51,0.51-1.02,1.03-1.52,1.55 c-0.41,0.43-0.83,0.85-1.24,1.28c-0.18,0.19-0.37,0.38-0.55,0.57c-0.28,0.3-0.54,0.6-0.82,0.9c-0.49,0.53-0.97,1.06-1.46,1.6 c-0.43,0.48-0.86,0.97-1.28,1.45c-0.48,0.55-0.96,1.11-1.43,1.66c-0.41,0.49-0.82,0.98-1.23,1.47c-0.47,0.57-0.94,1.15-1.4,1.73 c-0.39,0.49-0.78,0.98-1.17,1.48c-0.46,0.6-0.92,1.21-1.38,1.81c-0.37,0.49-0.74,0.98-1.1,1.48c-0.46,0.63-0.91,1.27-1.36,1.91 c-0.34,0.48-0.69,0.97-1.02,1.46c-0.47,0.68-0.92,1.37-1.38,2.06c-0.3,0.46-0.61,0.92-0.91,1.38c-0.5,0.77-0.98,1.56-1.47,2.34 c-0.24,0.39-0.49,0.78-0.73,1.17c-0.72,1.18-1.42,2.37-2.1,3.58l7.86,2.52c0.69-1.22,1.4-2.43,2.13-3.63 c0.24-0.4,0.5-0.79,0.74-1.19c0.49-0.79,0.98-1.59,1.49-2.37c0.31-0.47,0.62-0.94,0.94-1.41c0.46-0.69,0.92-1.39,1.39-2.08 c0.34-0.5,0.7-0.99,1.05-1.49c0.45-0.64,0.91-1.29,1.37-1.92c0.37-0.51,0.76-1.01,1.13-1.51c0.46-0.61,0.91-1.22,1.38-1.82 c0.4-0.51,0.8-1.01,1.2-1.51c0.46-0.58,0.93-1.16,1.4-1.74c0.42-0.51,0.84-1.01,1.27-1.51c0.47-0.56,0.95-1.11,1.43-1.66 c0.44-0.5,0.88-1,1.33-1.49c0.48-0.53,0.96-1.06,1.45-1.59c0.49-0.53,0.98-1.05,1.48-1.56c0.41-0.43,0.82-0.86,1.24-1.28 c0.52-0.53,1.05-1.06,1.58-1.58c0.41-0.41,0.83-0.82,1.25-1.22c0.55-0.53,1.1-1.05,1.66-1.57c0.41-0.39,0.83-0.77,1.25-1.16 c0.57-0.52,1.16-1.04,1.74-1.55c0.41-0.36,0.82-0.73,1.24-1.09c0.6-0.52,1.21-1.03,1.82-1.54c0.41-0.34,0.81-0.68,1.23-1.02 c0.64-0.52,1.28-1.02,1.92-1.53c0.4-0.31,0.79-0.63,1.19-0.93c0.68-0.52,1.36-1.02,2.05-1.53c0.38-0.28,0.76-0.57,1.14-0.84 c0.72-0.52,1.45-1.03,2.19-1.54c0.36-0.25,0.71-0.5,1.07-0.74c1.04-0.7,2.08-1.4,3.14-2.07c0.01-0.01,0.02-0.01,0.03-0.02 c2.21-1.41,4.47-2.76,6.76-4.05c0.23-0.13,0.46-0.25,0.7-0.38c0.9-0.5,1.8-0.98,2.7-1.46c0.3-0.16,0.6-0.31,0.91-0.47 c0.85-0.44,1.71-0.87,2.57-1.29c0.32-0.16,0.65-0.31,0.97-0.47c0.86-0.41,1.73-0.81,2.6-1.21c0.31-0.14,0.63-0.28,0.94-0.42 c0.92-0.41,1.85-0.8,2.78-1.19c0.26-0.11,0.52-0.22,0.79-0.33c0.9-0.37,1.81-0.72,2.71-1.06c0.36-0.14,0.71-0.28,1.07-0.41 c0.92-0.34,1.85-0.67,2.78-0.99c0.34-0.12,0.68-0.24,1.02-0.36c0.96-0.32,1.92-0.63,2.89-0.93c0.32-0.1,0.64-0.2,0.96-0.3 c1-0.3,2.01-0.59,3.02-0.87c0.29-0.08,0.58-0.17,0.88-0.25c1.04-0.28,2.1-0.55,3.15-0.8c0.26-0.06,0.53-0.13,0.79-0.2 c1.1-0.26,2.2-0.5,3.31-0.73c0.22-0.05,0.45-0.1,0.67-0.15c1.15-0.24,2.31-0.45,3.47-0.65c0.18-0.03,0.37-0.07,0.55-0.1 c1.22-0.21,2.44-0.4,3.67-0.57c0.13-0.02,0.26-0.04,0.4-0.06c1.35-0.19,2.71-0.36,4.08-0.5c0.33-0.04,0.67-0.07,1.01-0.1 c1.03-0.1,2.06-0.19,3.09-0.27c0.38-0.03,0.76-0.06,1.15-0.08c1.34-0.09,2.68-0.16,4.02-0.21c10.14-0.35,20.01,0.5,29.5,2.41 L537.51,537.83z" class="st12"/><g><linearGradient id="SVGID_12_" x1="599.032" x2="672.901" y1="482.074" y2="555.686" gradientUnits="userSpaceOnUse"><stop style="stop-color:#ebebeb" offset="0"/><stop style="stop-color:#c5c5c7" offset="1"/></linearGradient><path d="M614.9,466.15l-29.81,50.04c17.8,7.86,34.21,19.08,48.51,33.4c7.68,7.7,14.52,16.07,20.49,24.98 l39.61-42.68C672.97,503.89,646,481.27,614.9,466.15z" class="st13"/><linearGradient id="SVGID_13_" x1="484.841" x2="548.038" y1="644.72" y2="707.698" gradientUnits="userSpaceOnUse"><stop style="stop-color:#ebebeb" offset="0"/><stop style="stop-color:#c5c5c7" offset="1"/></linearGradient><path d="M540.17,636.47c-6.92-4.36-15.12-6.75-23.92-6.44c-24.49,0.86-44.26,22.22-44.16,47.87 c0.18,25.43,20.1,45.33,44.54,44.48c0.1,0,0.2-0.02,0.29-0.02c24.22-1.01,43.74-22.05,43.86-47.26c0.01-0.15,0.01-0.3,0.01-0.45 C560.73,658.31,552.51,644.25,540.17,636.47z" class="st14"/><linearGradient id="SVGID_14_" x1="458.901" x2="574.204" y1="544.67" y2="659.571" gradientUnits="userSpaceOnUse"><stop style="stop-color:#ebebeb" offset="0"/><stop style="stop-color:#c5c5c7" offset="1"/></linearGradient><path d="M566.91,546.72l-24.07,40.42l2.53-46.79c-9.49-1.91-19.37-2.76-29.5-2.41 c-48.13,1.68-90.16,29.81-113.29,70.53l41.47,41.42c3.79-10.56,9.69-20.33,17.45-28.72c14.55-15.73,33.95-24.78,54.61-25.5 c6.98-0.24,13.82,0.5,20.4,2.12c1.91,0.48,3.81,1.01,5.67,1.63c10.67,3.59,20.46,9.65,28.73,17.94 c7.9,7.9,13.89,17.33,17.77,27.71l41.15-44.34C615.17,576.21,593.14,557.16,566.91,546.72z" class="st15"/><linearGradient id="SVGID_15_" x1="412.727" x2="500.661" y1="464.099" y2="551.727" gradientUnits="userSpaceOnUse"><stop style="stop-color:#ebebeb" offset="0"/><stop style="stop-color:#c5c5c7" offset="1"/></linearGradient><path d="M515.71,502.95c10.71-0.37,21.26,0.32,31.56,2l3.14-58.08c-11.38-1.48-23.06-2.05-34.95-1.63 c-62.56,2.18-118.95,31.11-159.1,75.88c-6.52,7.27-12.6,14.96-18.22,23.03l39.94,39.88c5.86-9.26,12.59-18.04,20.16-26.22 C429.55,523.98,471.26,504.5,515.71,502.95z" class="st16"/></g><linearGradient id="SVGID_16_" x1="326.85" x2="540.941" y1="534.719" y2="427.885" gradientUnits="userSpaceOnUse"><stop style="stop-color:#cacaca" offset="0"/><stop style="stop-color:#eee" offset=".933"/></linearGradient><path d="M550.42,446.87l-7.86-2.52c-11.38-1.48-23.06-2.05-34.95-1.63c-1.89,0.07-3.78,0.16-5.66,0.27 c-0.62,0.04-1.24,0.09-1.86,0.13c-1.26,0.09-2.52,0.17-3.77,0.28c-0.74,0.06-1.48,0.14-2.22,0.22c-1.13,0.11-2.25,0.22-3.37,0.35 c-0.79,0.09-1.57,0.19-2.35,0.29c-0.8,0.1-1.61,0.19-2.41,0.3c-0.35,0.05-0.7,0.1-1.05,0.15c-0.33,0.05-0.66,0.09-0.99,0.14 c-1.67,0.24-3.33,0.5-4.99,0.78c-0.19,0.03-0.39,0.07-0.58,0.1c-1.6,0.27-3.18,0.57-4.77,0.88c-0.22,0.04-0.44,0.08-0.65,0.13 c-1.64,0.32-3.26,0.67-4.89,1.03c-0.33,0.07-0.65,0.15-0.98,0.22c-1.61,0.37-3.22,0.75-4.82,1.15c-0.25,0.06-0.49,0.13-0.74,0.19 c-1.56,0.4-3.12,0.81-4.67,1.25c-0.15,0.04-0.29,0.08-0.44,0.12c-1.61,0.45-3.21,0.93-4.81,1.42c-0.31,0.09-0.62,0.19-0.93,0.29 c-1.56,0.49-3.12,0.99-4.67,1.51c-0.27,0.09-0.54,0.19-0.82,0.28c-1.58,0.54-3.16,1.09-4.73,1.66c-0.04,0.01-0.08,0.03-0.12,0.04 c-1.59,0.58-3.16,1.19-4.73,1.8c-0.28,0.11-0.57,0.22-0.85,0.33c-0.23,0.09-0.46,0.18-0.68,0.27c-0.6,0.24-1.2,0.5-1.8,0.75 c-1.03,0.42-2.05,0.84-3.07,1.28c-0.78,0.34-1.56,0.69-2.34,1.03c-0.99,0.44-1.98,0.88-2.96,1.33c-0.79,0.36-1.57,0.74-2.36,1.11 c-0.96,0.46-1.93,0.92-2.88,1.39c-0.78,0.39-1.56,0.78-2.34,1.18c-0.94,0.48-1.89,0.96-2.82,1.45c-0.78,0.41-1.55,0.82-2.33,1.24 c-0.93,0.5-1.85,1.01-2.77,1.52c-0.77,0.43-1.53,0.86-2.3,1.3c-0.92,0.52-1.83,1.06-2.73,1.59c-0.75,0.45-1.51,0.9-2.26,1.35 c-0.9,0.55-1.8,1.11-2.7,1.67c-0.74,0.46-1.48,0.93-2.21,1.4c-0.9,0.58-1.79,1.16-2.67,1.75c-0.49,0.32-0.98,0.63-1.46,0.96 c-0.22,0.15-0.43,0.3-0.64,0.45c-1.18,0.8-2.34,1.61-3.5,2.43c-0.51,0.36-1.03,0.71-1.53,1.08c-1.66,1.19-3.3,2.4-4.93,3.64 c-0.18,0.14-0.35,0.28-0.53,0.42c-1.45,1.1-2.88,2.22-4.3,3.36c-0.54,0.43-1.06,0.87-1.59,1.3c-1.06,0.86-2.11,1.73-3.15,2.61 c-0.6,0.51-1.19,1.02-1.78,1.53c-0.97,0.84-1.94,1.69-2.9,2.54c-0.6,0.53-1.19,1.07-1.78,1.6c-0.96,0.88-1.92,1.77-2.87,2.66 c-0.55,0.52-1.11,1.04-1.66,1.56c-1.05,1.01-2.09,2.03-3.12,3.06c-0.42,0.42-0.85,0.84-1.27,1.26c-1.44,1.46-2.86,2.93-4.27,4.43 c-0.03,0.03-0.05,0.05-0.08,0.08c-1.23,1.31-2.44,2.63-3.64,3.97c-6.52,7.27-12.6,14.96-18.22,23.03l7.86,2.52 c5.62-8.06,11.69-15.76,18.22-23.03c1.23-1.37,2.47-2.72,3.72-4.05c1.4-1.49,2.83-2.97,4.27-4.42c0.42-0.43,0.85-0.84,1.28-1.27 c1.03-1.03,2.07-2.05,3.11-3.05c0.55-0.53,1.11-1.05,1.66-1.57c0.95-0.89,1.9-1.78,2.86-2.65c0.59-0.54,1.19-1.08,1.79-1.61 c0.96-0.85,1.92-1.7,2.89-2.54c0.59-0.51,1.19-1.03,1.79-1.54c1.04-0.88,2.09-1.74,3.14-2.6c0.54-0.44,1.07-0.88,1.61-1.31 c1.41-1.13,2.84-2.25,4.28-3.35c0.18-0.14,0.36-0.29,0.55-0.43c1.63-1.23,3.27-2.44,4.93-3.64c0.51-0.37,1.03-0.72,1.54-1.08 c1.16-0.82,2.32-1.63,3.49-2.43c0.7-0.48,1.41-0.94,2.11-1.41c0.89-0.59,1.77-1.17,2.67-1.75c0.74-0.47,1.48-0.94,2.22-1.4 c0.89-0.56,1.79-1.12,2.69-1.67c0.75-0.46,1.51-0.91,2.26-1.36c0.91-0.54,1.81-1.07,2.73-1.59c0.76-0.44,1.53-0.87,2.3-1.3 c0.92-0.51,1.84-1.02,2.77-1.52c0.77-0.42,1.55-0.83,2.33-1.24c0.94-0.49,1.88-0.97,2.82-1.45c0.78-0.4,1.56-0.79,2.35-1.18 c0.96-0.47,1.92-0.93,2.88-1.39c0.78-0.37,1.57-0.75,2.36-1.11c0.98-0.45,1.97-0.89,2.96-1.33c0.78-0.35,1.56-0.7,2.34-1.03 c1.02-0.44,2.04-0.86,3.06-1.28c0.83-0.34,1.66-0.69,2.5-1.03c0.28-0.11,0.56-0.22,0.84-0.33c1.57-0.62,3.15-1.22,4.73-1.8 c0.04-0.02,0.08-0.03,0.12-0.04c1.56-0.57,3.14-1.12,4.72-1.66c0.27-0.09,0.55-0.19,0.82-0.28c1.55-0.52,3.1-1.02,4.67-1.51 c0.31-0.1,0.61-0.19,0.92-0.28c1.6-0.49,3.2-0.97,4.81-1.42c0.14-0.04,0.28-0.08,0.43-0.12c1.56-0.43,3.12-0.85,4.69-1.25 c0.24-0.06,0.49-0.13,0.73-0.19c1.6-0.4,3.21-0.79,4.83-1.15c0.32-0.07,0.65-0.15,0.97-0.22c1.62-0.36,3.25-0.71,4.89-1.03 c0.22-0.04,0.44-0.08,0.65-0.13c1.58-0.31,3.17-0.6,4.77-0.88c0.19-0.03,0.39-0.07,0.58-0.1c1.66-0.28,3.32-0.54,4.99-0.78 c0.33-0.05,0.66-0.1,0.99-0.14c1.14-0.16,2.3-0.3,3.45-0.45c0.79-0.1,1.57-0.2,2.36-0.29c1.12-0.13,2.24-0.23,3.36-0.34 c0.74-0.07,1.48-0.15,2.23-0.22c1.24-0.11,2.49-0.19,3.74-0.28c0.63-0.04,1.25-0.1,1.88-0.14c1.88-0.11,3.77-0.21,5.66-0.27 c8.92-0.31,17.71-0.07,26.35,0.69C544.71,446.19,547.57,446.5,550.42,446.87L550.42,446.87 C550.42,446.87,550.42,446.87,550.42,446.87z" class="st17"/><g><linearGradient id="SVGID_17_" x1="369.353" x2="339.043" y1="589.077" y2="536.578" gradientUnits="userSpaceOnUse"><stop style="stop-color:#a5a5a5" offset="0"/><stop style="stop-color:#c9c9c9" offset="1"/></linearGradient><polygon points="378.1 584.03 370.24 581.51 330.3 541.63 338.15 544.15" class="st18"/></g><g><defs><path id="SVGID_1105_" d="M654.09,574.56l-7.86-2.52c-5.96-8.91-12.81-17.28-20.49-24.98c-14.29-14.32-30.7-25.54-48.51-33.4 l7.86,2.52c17.8,7.86,34.21,19.08,48.51,33.4C641.28,557.28,648.12,565.65,654.09,574.56z"/></defs><linearGradient id="SVGID_18_" x1="651.221" x2="582.349" y1="577.433" y2="508.561" gradientUnits="userSpaceOnUse"><stop style="stop-color:#dedede" offset="0"/><stop style="stop-color:#b1b1b1" offset="1"/></linearGradient><use style="overflow:visible;fill:url(#SVGID_18_)" xlink:href="#SVGID_1105_"/><clipPath id="SVGID_19_"><use style="overflow:visible" xlink:href="#SVGID_1105_"/></clipPath><g style="clip-path:url(#SVGID_19_);enable-background:new"><linearGradient id="SVGID_20_" x1="600.026" x2="631.299" y1="553.147" y2="535.092" gradientUnits="userSpaceOnUse"><stop style="stop-color:#dedede" offset="0"/><stop style="stop-color:#b1b1b1" offset="1"/></linearGradient><path d="M654.09,574.56l-7.86-2.52c-5.96-8.91-12.81-17.28-20.49-24.98c-14.29-14.32-30.7-25.54-48.51-33.4 l7.86,2.52c17.8,7.86,34.21,19.08,48.51,33.4C641.28,557.28,648.12,565.65,654.09,574.56" class="st21"/></g></g><g><defs><path id="SVGID_1109_" d="M533.66,596.67l7.86,2.52c0.22,0.07,0.44,0.14,0.66,0.22c10.67,3.59,20.46,9.65,28.73,17.94 c7.9,7.9,13.89,17.33,17.77,27.71l-7.86-2.52c-3.87-10.38-9.87-19.81-17.77-27.71c-8.27-8.29-18.06-14.35-28.73-17.94 C534.1,596.81,533.88,596.74,533.66,596.67z"/></defs><linearGradient id="SVGID_21_" x1="551.008" x2="572.262" y1="626.726" y2="614.455" gradientUnits="userSpaceOnUse"><stop style="stop-color:#dedede" offset="0"/><stop style="stop-color:#b1b1b1" offset="1"/></linearGradient><use style="overflow:visible;fill:url(#SVGID_21_)" xlink:href="#SVGID_1109_"/><clipPath id="SVGID_22_"><use style="overflow:visible" xlink:href="#SVGID_1109_"/></clipPath><g style="clip-path:url(#SVGID_22_);enable-background:new"><linearGradient id="SVGID_23_" x1="551.008" x2="572.262" y1="626.726" y2="614.455" gradientUnits="userSpaceOnUse"><stop style="stop-color:#dedede" offset="0"/><stop style="stop-color:#b1b1b1" offset="1"/></linearGradient><path d="M588.67,645.05l-7.86-2.52c-3.87-10.38-9.87-19.81-17.77-27.71c-8.27-8.29-18.06-14.35-28.73-17.94 c-0.22-0.07-0.44-0.14-0.66-0.22l7.86,2.52c0.22,0.07,0.44,0.14,0.66,0.22c10.67,3.59,20.46,9.65,28.73,17.94 C578.8,625.25,584.8,634.67,588.67,645.05" class="st24"/></g></g></g></g></g></svg>