<svg xmlns="http://www.w3.org/2000/svg" xmlns:xlink="http://www.w3.org/1999/xlink" style="enable-background:new 0 0 1024 1024" x="0" y="0" version="1.1" viewBox="0 0 1024 1024" xml:space="preserve"><style type="text/css">.st2{fill:url(#SVGID_1_)}.st7{fill:url(#SVGID_6_)}.st8{fill:url(#SVGID_7_)}.st10{fill:url(#SVGID_9_)}.st11{fill:url(#SVGID_10_)}.st12{fill:url(#SVGID_11_)}.st13{fill:url(#SVGID_12_)}.st18{fill:url(#SVGID_17_)}.st19{fill:url(#SVGID_18_)}.st20{fill:url(#SVGID_19_)}.st1009{enable-background:new}.st1188{fill:#999}.st1296{fill:#8a8a8a}.st1367{fill:#4d4d4d}.st1374{fill:#949494}.st1375{fill:#8f8f8f}.st1376{fill:#858585}.st1378{fill:#434343}.st1380{fill:#454545}.st1381{fill:#484848}.st1382{fill:#4a4a4a}.st1383{opacity:.94}</style><g id="暂无相关搜索"><linearGradient id="SVGID_1_" x1="512" x2="512" y1="762.474" y2="822.465" gradientUnits="userSpaceOnUse"><stop style="stop-color:#e8e8e8" offset="0"/><stop style="stop-color:#f8f8f8;stop-opacity:.5" offset=".6"/><stop style="stop-color:#fff;stop-opacity:0" offset="1"/></linearGradient><path d="M735.24,822.46c0-16.56-99.95-59.99-223.24-59.99s-223.24,43.43-223.24,59.99H735.24z" class="st2"/><g><linearGradient id="SVGID_2_" x1="361.267" x2="361.267" y1="211.806" y2="374.691" gradientUnits="userSpaceOnUse"><stop style="stop-color:#e8e8e8" offset="0"/><stop style="stop-color:#f9f9f9;stop-opacity:.1" offset=".6"/><stop style="stop-color:#fff;stop-opacity:0" offset="1"/></linearGradient><path d="M490.07,316.8c0-25.47-20.42-46.17-45.78-46.63c0.65-3.18,1-6.47,1-9.84 c0-26.8-21.73-48.53-48.53-48.53c-18.02,0-33.73,9.83-42.1,24.41c-5.16-2.26-10.85-3.52-16.84-3.52 c-17.85,0-33.08,11.12-39.19,26.81c-2.71-0.39-5.47-0.6-8.29-0.6c-31.97,0-57.89,25.92-57.89,57.89 c0,31.97,25.92,57.89,57.89,57.89c12.99,0,24.98-4.28,34.64-11.5h113.44c1.64,0.17,3.3,0.27,4.99,0.27c1.69,0,3.35-0.09,4.99-0.27 l0,0l0,0C471.83,360.7,490.07,340.88,490.07,316.8z" style="fill:url(#SVGID_2_)"/><linearGradient id="SVGID_3_" x1="599.607" x2="599.607" y1="199.806" y2="412.185" gradientUnits="userSpaceOnUse"><stop style="stop-color:#e8e8e8" offset="0"/><stop style="stop-color:#f6f6f6;stop-opacity:.1" offset=".8"/><stop style="stop-color:#fff;stop-opacity:0" offset="1"/></linearGradient><path d="M791.54,336.24c0-35.03-28.4-63.43-63.43-63.43c-4.51,0-8.91,0.48-13.15,1.37 c-7.38-42.25-44.22-74.38-88.59-74.38c-32.19,0-60.41,16.92-76.31,42.34c-3.05-0.43-6.16-0.67-9.33-0.67 c-26.26,0-48.95,15.28-59.67,37.43c-2.17-0.21-4.36-0.33-6.58-0.33c-36.89,0-66.8,29.91-66.8,66.8c0,36.89,29.91,66.8,66.8,66.8 c14.82,0,28.5-4.83,39.58-13h206.23c2.56,0.32,5.17,0.49,7.82,0.49c2.62,0,5.2-0.18,7.74-0.49h0.32v-0.04 C767.39,395.18,791.54,368.54,791.54,336.24z" style="fill:url(#SVGID_3_)"/></g><g><linearGradient id="SVGID_4_" x1="235.687" x2="406.37" y1="431.328" y2="431.328" gradientUnits="userSpaceOnUse"><stop style="stop-color:#ebebeb" offset="0"/><stop style="stop-color:#c5c5c7" offset="1"/></linearGradient><path d="M237.69,505.49c-1.07,0-1.96-0.85-2-1.93c-0.04-1.1,0.83-2.03,1.93-2.06 c27.55-0.9,58.24-36.09,58.55-36.44c1.92-2.32,3.54-4.65,4.87-6.96c-1.15,0.01-2.31-0.02-3.46-0.08l-0.16-0.01 c-8.87-1.16-19.1-6.66-21.48-14.94c-1.21-4.21-0.84-10.72,7.8-17.87l0.25-0.18c8.15-4.84,16.4-4.12,21.54,1.9 c4.91,5.75,6.37,15.74,2.09,26.77c56.25-6.79,94.51-94.36,94.91-95.29c0.44-1.01,1.61-1.48,2.63-1.05 c1.01,0.44,1.48,1.61,1.05,2.63c-0.11,0.25-11.07,25.54-29.71,50.07c-22.37,29.44-46.68,45.82-70.77,47.84 c-1.65,3.23-3.81,6.5-6.51,9.76c-1.32,1.53-32.16,36.9-61.47,37.86C237.73,505.49,237.71,505.49,237.69,505.49z M297.86,454.02 c1.76,0.09,3.51,0.09,5.24,0.02c4.55-10.25,3.6-19.6-0.61-24.53c-3.82-4.47-9.91-4.89-16.32-1.14c-3.82,3.19-7.96,8.1-6.39,13.58 C281.44,447.68,289.2,452.86,297.86,454.02z" style="fill:url(#SVGID_4_)"/></g><linearGradient id="SVGID_5_" x1="-1118.543" x2="-1190.134" y1="2440.732" y2="2430.515" gradientTransform="matrix(0.7901 -0.613 0.613 0.7901 -359.3596 -2034.4983)" gradientUnits="userSpaceOnUse"><stop style="stop-color:#ebebeb" offset="0"/><stop style="stop-color:#c5c5c7" offset="1"/></linearGradient><path d="M199.89,630.77c6.88-3.23,52.77-18.14,35.41-52.36c0,0,6.26-9.15,10.41-10.88 c0.34-0.14,0.37-0.6,0.06-0.79l-1.26-0.79c-0.2-0.13-0.44-0.16-0.67-0.08c-1.21,0.42-5.3,2.33-11.12,10.19 c0,0-45.06-6.04-33.89,54.15C198.91,630.7,199.44,630.98,199.89,630.77z" style="fill:url(#SVGID_5_)"/><g><linearGradient id="SVGID_6_" x1="973.345" x2="948.81" y1="-45.676" y2="-61.307" gradientTransform="matrix(0.9763 0.2164 -0.2164 0.9763 -155.1213 549.162)" gradientUnits="userSpaceOnUse"><stop style="stop-color:#ebebeb" offset="0"/><stop style="stop-color:#c5c5c7" offset="1"/></linearGradient><path d="M771.99,741.9c-0.53-0.12-1.01-0.45-1.3-0.96c-0.55-0.96-0.22-2.18,0.74-2.73 c25.03-14.35,34.88-32.72,38.74-45.61c4.19-13.99,2.44-24.76,2.42-24.86c-0.18-1.09,0.55-2.12,1.63-2.31 c1.08-0.18,2.12,0.54,2.31,1.63c0.08,0.47,1.93,11.64-2.47,26.49c-4.04,13.65-14.37,33.07-40.64,48.13 C772.96,741.94,772.46,742,771.99,741.9z" class="st7"/></g><linearGradient id="SVGID_7_" x1="720.001" x2="720.001" y1="763.675" y2="792.518" gradientUnits="userSpaceOnUse"><stop style="stop-color:#ebebeb" offset="0"/><stop style="stop-color:#c5c5c7" offset="1"/></linearGradient><path d="M744.1,763.96c0,0-1.87,6.76-6.92,7.45s-10.38-14.57-23.07-3.99c-14.89,12.43-14.5,12.6-19.73,12.94 c-3.99,0.25,9.98,15.21,29.76,11.59c11.04-2.98,15.28-10.51,14.28-15.17c-0.16-0.74,0.1-1.51,0.68-2c1.84-1.56,5.58-4.89,6.94-7.31 c0.52-0.92,0.2-2.09-0.67-2.7L744.1,763.96z" class="st8"/><g class="st1009"><defs><path id="SVGID_1214_" d="M456.11,473.42c11.52-0.4,22.6,1.21,32.96,4.52l9.03,2.89 c-10.35-3.32-21.44-4.92-32.96-4.52C462.44,475.45,458.82,474.29,456.11,473.42z" class="st1009"/></defs><clipPath id="SVGID_8_"><use style="overflow:visible" xlink:href="#SVGID_1214_"/></clipPath><g style="clip-path:url(#SVGID_8_);enable-background:new"><path d="M465.15,476.32l-9.03-2.89c11.53-0.4,22.62,1.21,32.98,4.53l9.03,2.89 C487.76,477.53,476.67,475.91,465.15,476.32" class="st1367"/></g></g><g><linearGradient id="SVGID_9_" x1="535.523" x2="613.407" y1="700.497" y2="700.497" gradientUnits="userSpaceOnUse"><stop style="stop-color:#a5a5a5" offset="0"/><stop style="stop-color:#bfbfbf" offset="1"/></linearGradient><path d="M609.8,749.39l-62.47-62.58c-3.69-3.69-3.71-9.94-0.06-13.89l16.22-17.53c0.08-0.09,0.16-0.16,0.24-0.24 c0.18-0.18,0.36-0.36,0.55-0.53c0.1-0.09,0.2-0.16,0.31-0.25c0.17-0.14,0.34-0.27,0.51-0.39c0.12-0.08,0.24-0.16,0.37-0.24 c0.15-0.1,0.31-0.19,0.47-0.28c0.13-0.07,0.26-0.14,0.39-0.2c0.16-0.08,0.32-0.16,0.48-0.22c0.12-0.05,0.25-0.1,0.37-0.15 c0.23-0.09,0.46-0.16,0.7-0.23c0.11-0.03,0.21-0.07,0.32-0.09c0.32-0.08,0.65-0.15,0.98-0.19c0.02,0,0.03-0.01,0.05-0.01 c0.3-0.04,0.61-0.07,0.91-0.08c1.04-0.04,2.08,0.1,3.07,0.42l-9.03-2.89c-0.99-0.32-2.03-0.46-3.07-0.42 c-0.3,0.01-0.61,0.04-0.91,0.08c0,0,0,0-0.01,0c-0.01,0-0.03,0.01-0.04,0.01c-0.33,0.05-0.65,0.11-0.98,0.19 c-0.11,0.03-0.21,0.06-0.32,0.09c-0.24,0.07-0.47,0.14-0.7,0.23c-0.06,0.02-0.12,0.04-0.18,0.06c-0.06,0.03-0.13,0.06-0.19,0.09 c-0.16,0.07-0.32,0.15-0.49,0.23c-0.13,0.06-0.26,0.13-0.39,0.2c-0.16,0.09-0.31,0.18-0.47,0.28c-0.08,0.05-0.17,0.09-0.25,0.15 c-0.04,0.03-0.08,0.06-0.12,0.09c-0.18,0.12-0.35,0.26-0.52,0.39c-0.1,0.08-0.21,0.16-0.3,0.24c-0.19,0.17-0.38,0.35-0.56,0.53 c-0.06,0.06-0.13,0.11-0.19,0.18c-0.02,0.02-0.04,0.04-0.06,0.06l-16.22,17.53c-3.65,3.95-3.63,10.2,0.06,13.89l62.47,62.58 c1.05,1.05,2.29,1.79,3.6,2.21l9.03,2.89C612.09,751.18,610.85,750.44,609.8,749.39z" class="st10"/><g><linearGradient id="SVGID_10_" x1="544.554" x2="642.083" y1="702.159" y2="702.159" gradientUnits="userSpaceOnUse"><stop style="stop-color:#ebebeb" offset="0"/><stop style="stop-color:#c5c5c7" offset="1"/></linearGradient><path d="M570.15,652.29c2.42-0.08,4.84,0.79,6.68,2.64l62.47,62.58c3.69,3.69,3.71,9.94,0.06,13.89l-16.22,17.53 c-1.83,1.97-4.24,3.01-6.66,3.1c-2.42,0.08-4.84-0.79-6.68-2.63l-62.47-62.58c-3.69-3.69-3.71-9.94-0.06-13.89l16.22-17.53 C565.32,653.42,567.73,652.38,570.15,652.29z" class="st11"/></g><g><linearGradient id="SVGID_11_" x1="499.462" x2="542.085" y1="654.028" y2="654.028" gradientUnits="userSpaceOnUse"><stop style="stop-color:#a5a5a5" offset="0"/><stop style="stop-color:#d1d1d1" offset="1"/></linearGradient><polygon points="542.09 674.35 539.07 673.38 499.46 633.71 502.47 634.67" class="st12"/></g><g><linearGradient id="SVGID_12_" x1="503.334" x2="560.729" y1="645.011" y2="645.011" gradientUnits="userSpaceOnUse"><stop style="stop-color:#ebebeb" offset="0"/><stop style="stop-color:#c5c5c7" offset="1"/></linearGradient><path d="M518.08,615.68c2.42-0.08,4.84,0.79,6.69,2.63l35.96,35.89l-18.64,20.15l-35.97-35.88 c-3.69-3.69-3.71-9.95-0.06-13.9l5.36-5.79C513.25,616.8,515.66,615.77,518.08,615.68z" class="st13"/></g><g class="st1009"><defs><path id="SVGID_1220_" d="M410.3,655.37l-9.03-2.89c10.36,3.32,21.45,4.93,32.98,4.53l9.03,2.89 C431.75,660.31,420.65,658.69,410.3,655.37z" class="st1009"/></defs><clipPath id="SVGID_13_"><use style="overflow:visible" xlink:href="#SVGID_1220_"/></clipPath><g style="clip-path:url(#SVGID_13_);enable-background:new"><path d="M410.3,655.37l-9.03-2.89c10.36,3.32,21.45,4.93,32.98,4.53l9.03,2.89 C431.75,660.31,420.65,658.69,410.3,655.37" class="st1188"/></g></g><g class="st1009"><defs><path id="SVGID_1222_" d="M466.33,448.95l9.03,2.89c40.24,12.9,69.37,51.59,69.56,98.19 c0.25,58.61-45.35,107.9-101.65,109.86l-9.03-2.89c56.3-1.97,101.89-51.25,101.65-109.86 C535.7,500.54,506.57,461.85,466.33,448.95z" class="st1009"/></defs><clipPath id="SVGID_14_"><use style="overflow:visible" xlink:href="#SVGID_1222_"/></clipPath><g style="clip-path:url(#SVGID_14_);enable-background:new"><path d="M443.27,659.9l-9.03-2.89c3.33-0.12,6.62-0.4,9.86-0.84l9.03,2.89 C449.89,659.51,446.6,659.79,443.27,659.9" class="st1188"/><path d="M453.13,659.07l-9.03-2.89c8.29-1.12,16.29-3.27,23.87-6.31l9.03,2.89 C469.42,655.8,461.42,657.95,453.13,659.07" class="st1374"/><path d="M477.01,652.75l-9.03-2.89c6.82-2.74,13.3-6.19,19.36-10.28l9.03,2.89 C490.3,646.56,483.82,650.02,477.01,652.75" class="st1375"/><path d="M496.37,642.47l-9.03-2.89c6.69-4.51,12.87-9.79,18.42-15.7l9.03,2.89 C509.23,632.69,503.06,637.96,496.37,642.47" class="st1296"/><path d="M514.78,626.77l-9.03-2.89c18.71-19.95,30.26-47.15,30.14-76.73c-0.2-46.61-29.33-85.3-69.56-98.19 l9.03,2.89c40.24,12.9,69.37,51.59,69.56,98.19C545.05,579.62,533.49,606.83,514.78,626.77" class="st1376"/></g></g><g class="st1009"><defs><path id="SVGID_1224_" d="M401.29,652.49c-11.78-3.77-22.6-9.75-32.03-17.5c1.7,0.55,3.41,1.09,5.11,1.64 c0.58,0.19,1.17,0.37,1.75,0.56c0.17,0.05,0.4,0.13,0.57,0.18c0.33,0.1,0.76,0.24,1.09,0.35c0.16,0.05,0.35,0.17,0.52,0.17 c9.43,7.74,20.25,13.72,32.03,17.5C407.61,654.51,403.99,653.35,401.29,652.49z" class="st1009"/></defs><clipPath id="SVGID_15_"><use style="overflow:visible" xlink:href="#SVGID_1224_"/></clipPath><g style="clip-path:url(#SVGID_15_);enable-background:new"><path d="M410.3,655.37l-9.03-2.89c-40.24-12.9-69.37-51.59-69.56-98.2c-0.12-29.58,11.43-56.78,30.14-76.72 l9.03,2.89c-18.71,19.94-30.26,47.15-30.14,76.72C340.93,603.79,370.06,642.48,410.3,655.37" class="st1378"/></g></g><g class="st1009"><defs><path id="SVGID_1226_" d="M331.7,554.28c-0.25-58.6,45.35-107.89,101.65-109.85l9.03,2.89 c-56.3,1.97-101.89,51.25-101.65,109.85l0,0c0.14,32.98,14.76,62,37.55,80.71c-0.32-0.1-0.74-0.24-1.05-0.34 c-0.34-0.11-0.78-0.25-1.12-0.36c-0.35-0.11-0.81-0.26-1.16-0.37c-0.35-0.11-0.83-0.27-1.18-0.38 c-0.35-0.11-0.83-0.27-1.18-0.38c-0.35-0.11-0.81-0.26-1.16-0.37c-0.34-0.11-0.78-0.25-1.12-0.36c-0.32-0.1-0.74-0.24-1.06-0.34 C346.46,616.27,331.84,587.26,331.7,554.28z" class="st1009"/></defs><clipPath id="SVGID_16_"><use style="overflow:visible" xlink:href="#SVGID_1226_"/></clipPath><g style="clip-path:url(#SVGID_16_);enable-background:new"><path d="M410.3,655.37l-9.03-2.89c-40.24-12.9-69.37-51.59-69.56-98.2c-0.12-29.58,11.43-56.78,30.14-76.72 l9.03,2.89c-18.71,19.94-30.26,47.15-30.14,76.72C340.93,603.79,370.06,642.48,410.3,655.37" class="st1378"/><path d="M370.87,480.45l-9.03-2.89c5.55-5.91,11.73-11.19,18.42-15.7l9.03,2.89 C382.6,469.26,376.42,474.53,370.87,480.45" class="st1380"/><path d="M389.29,464.75l-9.03-2.89c6.06-4.09,12.55-7.55,19.36-10.28l9.03,2.89 C401.83,457.2,395.35,460.66,389.29,464.75" class="st1381"/><path d="M408.65,454.47l-9.03-2.89c7.59-3.04,15.58-5.19,23.87-6.31l9.03,2.89 C424.23,449.27,416.23,451.42,408.65,454.47" class="st1382"/><path d="M432.52,448.15l-9.03-2.89c3.24-0.44,6.53-0.72,9.86-0.84l9.03,2.89 C439.06,447.43,435.77,447.71,432.52,448.15" class="st1367"/></g></g><g class="st1383"><linearGradient id="SVGID_17_" x1="370.108" x2="515.547" y1="481.143" y2="626.076" gradientUnits="userSpaceOnUse"><stop style="stop-color:#fee38d" offset="0"/><stop style="stop-color:#f25c19" offset="1"/></linearGradient><path d="M442.38,447.32c56.3-1.97,102.29,44.12,102.54,102.72c0.25,58.61-45.35,107.9-101.65,109.86 s-102.29-44.12-102.54-102.73C340.49,498.57,386.08,449.28,442.38,447.32z" class="st18"/></g><linearGradient id="SVGID_18_" x1="343.202" x2="452.038" y1="635.117" y2="428.196" gradientUnits="userSpaceOnUse"><stop style="stop-color:#e36905" offset="0"/><stop style="stop-color:#fabb6a" offset="1"/></linearGradient><path d="M469.44,439.21c-11.35-3.64-23.51-5.4-36.14-4.96c-0.94,0.03-1.87,0.08-2.81,0.14 c-0.31,0.02-0.63,0.05-0.94,0.07c-0.62,0.04-1.24,0.08-1.85,0.14c-0.37,0.03-0.74,0.07-1.11,0.11c-0.56,0.05-1.11,0.11-1.67,0.17 c-0.39,0.04-0.78,0.1-1.17,0.14c-0.42,0.05-0.84,0.1-1.26,0.16c-0.09,0.01-0.18,0.03-0.27,0.04c-1,0.14-2,0.29-3,0.45 c-0.05,0.01-0.09,0.01-0.14,0.02c-1.04,0.17-2.07,0.37-3.11,0.57c-0.32,0.06-0.64,0.13-0.97,0.2c-0.71,0.15-1.42,0.3-2.12,0.46 c-0.38,0.09-0.75,0.18-1.13,0.27c-0.66,0.16-1.33,0.32-1.98,0.49c-0.37,0.1-0.74,0.19-1.1,0.29c-0.7,0.19-1.41,0.39-2.11,0.59 c-0.31,0.09-0.61,0.17-0.92,0.27c-1,0.3-1.99,0.61-2.97,0.94c-0.1,0.03-0.2,0.07-0.3,0.11c-0.88,0.3-1.76,0.6-2.64,0.92 c-0.32,0.12-0.64,0.24-0.97,0.36c-0.66,0.25-1.31,0.5-1.96,0.75c-0.16,0.06-0.32,0.12-0.49,0.19c-0.22,0.09-0.43,0.18-0.65,0.27 c-0.51,0.21-1.01,0.42-1.51,0.63c-0.39,0.17-0.79,0.34-1.18,0.51c-0.5,0.22-1,0.44-1.49,0.67c-0.39,0.18-0.77,0.35-1.15,0.53 c-0.5,0.24-1,0.48-1.5,0.72c-0.37,0.18-0.74,0.36-1.11,0.55c-0.51,0.26-1.01,0.52-1.52,0.78c-0.35,0.18-0.71,0.36-1.06,0.55 c-0.53,0.29-1.06,0.58-1.59,0.87c-0.32,0.18-0.63,0.35-0.95,0.52c-0.62,0.35-1.23,0.71-1.85,1.08c-0.22,0.13-0.44,0.25-0.65,0.38 c-0.83,0.5-1.64,1-2.46,1.52c-0.2,0.13-0.39,0.26-0.59,0.38c-0.61,0.4-1.23,0.79-1.83,1.2c-0.05,0.03-0.09,0.06-0.14,0.09 c-0.19,0.13-0.37,0.26-0.56,0.39c-0.62,0.42-1.24,0.85-1.85,1.28c-0.3,0.21-0.6,0.43-0.9,0.65c-0.54,0.39-1.08,0.79-1.61,1.19 c-0.31,0.23-0.61,0.46-0.92,0.7c-0.53,0.41-1.06,0.83-1.59,1.25c-0.28,0.23-0.57,0.45-0.85,0.68c-0.61,0.5-1.22,1-1.83,1.52 c-0.18,0.15-0.36,0.3-0.54,0.45c-0.78,0.67-1.55,1.34-2.31,2.03c-0.2,0.18-0.39,0.36-0.59,0.54c-0.56,0.51-1.12,1.03-1.67,1.55 c-0.27,0.25-0.53,0.51-0.8,0.77c-0.48,0.46-0.96,0.93-1.43,1.4c-0.28,0.27-0.55,0.55-0.82,0.83c-0.47,0.48-0.94,0.96-1.4,1.45 c-0.17,0.18-0.34,0.35-0.51,0.53c-0.09,0.1-0.18,0.2-0.28,0.3c-0.32,0.35-0.64,0.69-0.96,1.04c-0.31,0.34-0.62,0.68-0.93,1.02 c-0.31,0.35-0.62,0.71-0.93,1.07c-0.3,0.35-0.6,0.69-0.9,1.05c-0.31,0.36-0.61,0.73-0.91,1.09c-0.29,0.36-0.59,0.71-0.88,1.07 c-0.3,0.37-0.59,0.74-0.89,1.11c-0.29,0.36-0.57,0.72-0.86,1.09c-0.29,0.38-0.58,0.76-0.86,1.14c-0.28,0.37-0.56,0.74-0.83,1.11 c-0.28,0.38-0.56,0.77-0.84,1.16c-0.27,0.38-0.54,0.75-0.81,1.13c-0.27,0.39-0.54,0.78-0.81,1.18c-0.26,0.38-0.52,0.76-0.78,1.15 c-0.26,0.4-0.52,0.8-0.78,1.2c-0.25,0.39-0.51,0.77-0.75,1.17c-0.26,0.4-0.51,0.81-0.76,1.22c-0.24,0.39-0.49,0.79-0.73,1.18 c-0.25,0.41-0.49,0.82-0.73,1.24c-0.23,0.4-0.47,0.8-0.7,1.2c-0.24,0.42-0.47,0.84-0.71,1.26c-0.22,0.4-0.45,0.81-0.67,1.21 c-0.23,0.43-0.45,0.85-0.68,1.28c-0.22,0.41-0.43,0.82-0.64,1.23c-0.22,0.43-0.43,0.87-0.65,1.3c-0.21,0.41-0.41,0.83-0.61,1.24 c-0.21,0.44-0.42,0.88-0.63,1.33c-0.2,0.42-0.39,0.83-0.58,1.25c-0.2,0.45-0.4,0.9-0.6,1.35c-0.19,0.42-0.37,0.84-0.55,1.26 c-0.19,0.45-0.38,0.91-0.57,1.36c-0.18,0.43-0.35,0.85-0.53,1.28c-0.18,0.46-0.36,0.92-0.54,1.38c-0.17,0.43-0.33,0.86-0.5,1.29 c-0.17,0.46-0.34,0.93-0.5,1.4c-0.16,0.44-0.32,0.87-0.47,1.31c-0.16,0.47-0.32,0.94-0.47,1.41c-0.15,0.44-0.3,0.88-0.44,1.32 c-0.15,0.48-0.29,0.95-0.44,1.43c-0.14,0.44-0.27,0.88-0.4,1.33c-0.14,0.48-0.27,0.96-0.41,1.44c-0.13,0.45-0.26,0.9-0.38,1.35 c-0.13,0.48-0.25,0.97-0.37,1.45c-0.12,0.45-0.24,0.91-0.35,1.36c-0.12,0.49-0.23,0.99-0.34,1.48c-0.1,0.45-0.21,0.9-0.31,1.35 c-0.11,0.5-0.21,1-0.31,1.51c-0.09,0.45-0.19,0.9-0.28,1.36c-0.1,0.51-0.19,1.02-0.28,1.54c-0.08,0.45-0.17,0.9-0.24,1.35 c-0.09,0.52-0.16,1.05-0.25,1.58c-0.07,0.44-0.14,0.88-0.21,1.33c-0.08,0.54-0.14,1.07-0.21,1.61c-0.06,0.44-0.12,0.88-0.17,1.32 c-0.06,0.55-0.12,1.09-0.18,1.64c-0.05,0.44-0.1,0.87-0.14,1.31c-0.05,0.56-0.09,1.13-0.14,1.69c-0.03,0.43-0.07,0.85-0.1,1.28 c-0.04,0.58-0.07,1.17-0.1,1.76c-0.02,0.41-0.05,0.82-0.07,1.23c-0.03,0.66-0.05,1.31-0.06,1.97c-0.01,0.34-0.03,0.68-0.03,1.03 c-0.02,1-0.03,2.01-0.02,3.02c0.21,51.07,32.14,93.47,76.24,107.61l9.03,2.89c-44.09-14.13-76.02-56.53-76.24-107.61 c0-1.01,0-2.01,0.02-3.02c0.01-0.34,0.02-0.69,0.03-1.03c0.02-0.66,0.04-1.32,0.06-1.97c0.02-0.41,0.05-0.82,0.07-1.23 c0.03-0.59,0.06-1.17,0.1-1.76c0.03-0.42,0.07-0.83,0.1-1.24c0.05-0.57,0.09-1.15,0.14-1.72c0.04-0.42,0.09-0.84,0.13-1.27 c0.06-0.56,0.11-1.12,0.18-1.68c0.05-0.44,0.11-0.88,0.17-1.32c0.07-0.54,0.13-1.08,0.21-1.61c0.06-0.44,0.14-0.89,0.21-1.33 c0.08-0.53,0.16-1.05,0.25-1.58c0.08-0.45,0.16-0.9,0.24-1.35c0.09-0.51,0.18-1.03,0.28-1.54c0.09-0.45,0.18-0.9,0.28-1.36 c0.1-0.5,0.2-1.01,0.31-1.51c0.1-0.45,0.2-0.9,0.31-1.34c0.11-0.5,0.22-1,0.35-1.49c0.11-0.45,0.23-0.89,0.34-1.34 c0.13-0.49,0.25-0.98,0.38-1.47c0.12-0.45,0.25-0.89,0.37-1.33c0.14-0.49,0.27-0.97,0.41-1.46c0.13-0.44,0.27-0.88,0.4-1.33 c0.15-0.48,0.29-0.96,0.44-1.43c0.14-0.44,0.29-0.88,0.44-1.32c0.16-0.47,0.31-0.94,0.47-1.41c0.15-0.44,0.31-0.87,0.47-1.31 c0.17-0.47,0.33-0.93,0.5-1.39c0.16-0.43,0.33-0.86,0.5-1.3c0.18-0.46,0.35-0.92,0.53-1.38c0.17-0.43,0.35-0.85,0.53-1.28 c0.19-0.45,0.37-0.91,0.56-1.36c0.18-0.43,0.37-0.85,0.56-1.27c0.2-0.45,0.39-0.9,0.59-1.34c0.19-0.42,0.39-0.84,0.58-1.25 c0.21-0.44,0.41-0.88,0.62-1.32c0.2-0.42,0.41-0.83,0.62-1.25c0.22-0.43,0.43-0.87,0.65-1.3c0.21-0.41,0.43-0.82,0.64-1.22 c0.23-0.43,0.45-0.86,0.68-1.29c0.22-0.4,0.44-0.8,0.67-1.2c0.24-0.42,0.47-0.85,0.71-1.27c0.23-0.4,0.46-0.79,0.69-1.19 c0.24-0.42,0.49-0.84,0.74-1.25c0.24-0.39,0.48-0.78,0.72-1.17c0.25-0.41,0.5-0.82,0.76-1.23c0.25-0.39,0.5-0.77,0.75-1.16 c0.26-0.4,0.52-0.81,0.79-1.21c0.26-0.38,0.52-0.76,0.78-1.14c0.27-0.39,0.54-0.79,0.81-1.18c0.26-0.38,0.53-0.75,0.8-1.12 c0.28-0.39,0.56-0.78,0.84-1.16c0.27-0.37,0.55-0.74,0.83-1.1c0.29-0.38,0.57-0.76,0.87-1.14c0.28-0.36,0.57-0.72,0.85-1.08 c0.3-0.37,0.59-0.75,0.89-1.12c0.29-0.36,0.58-0.71,0.87-1.06c0.3-0.37,0.61-0.73,0.92-1.1c0.3-0.35,0.6-0.69,0.9-1.04 c0.31-0.36,0.62-0.72,0.94-1.08c0.3-0.34,0.61-0.68,0.92-1.02c0.32-0.35,0.64-0.7,0.96-1.05c0.26-0.28,0.52-0.55,0.79-0.83 c0.46-0.49,0.93-0.97,1.4-1.45c0.27-0.28,0.55-0.55,0.82-0.83c0.47-0.47,0.95-0.94,1.43-1.41c0.27-0.26,0.53-0.51,0.8-0.77 c0.56-0.53,1.12-1.05,1.68-1.56c0.2-0.18,0.39-0.36,0.58-0.54c0.76-0.69,1.53-1.36,2.31-2.03c0.18-0.15,0.36-0.3,0.53-0.45 c0.61-0.51,1.22-1.02,1.84-1.52c0.28-0.23,0.56-0.45,0.84-0.67c0.53-0.42,1.06-0.84,1.6-1.25c0.31-0.23,0.61-0.47,0.92-0.7 c0.53-0.4,1.07-0.8,1.61-1.19c0.3-0.22,0.6-0.44,0.9-0.65c0.61-0.43,1.23-0.86,1.85-1.28c0.23-0.16,0.46-0.32,0.7-0.48 c0.6-0.4,1.21-0.8,1.82-1.19c0.2-0.13,0.4-0.27,0.61-0.4c0.81-0.52,1.63-1.02,2.46-1.52c0.21-0.13,0.43-0.25,0.64-0.38 c0.62-0.36,1.23-0.73,1.85-1.08c0.31-0.18,0.63-0.35,0.95-0.53c0.53-0.29,1.06-0.59,1.59-0.87c0.35-0.19,0.7-0.37,1.05-0.55 c0.5-0.26,1.01-0.53,1.52-0.78c0.37-0.19,0.74-0.37,1.12-0.55c0.5-0.24,0.99-0.48,1.5-0.72c0.38-0.18,0.77-0.36,1.15-0.53 c0.5-0.23,1-0.45,1.5-0.67c0.39-0.17,0.78-0.34,1.17-0.51c0.5-0.21,1.01-0.42,1.51-0.63c0.38-0.15,0.76-0.31,1.13-0.46 c0.65-0.26,1.31-0.51,1.96-0.75c0.32-0.12,0.64-0.24,0.96-0.36c0.87-0.32,1.75-0.63,2.64-0.92c0.1-0.03,0.2-0.07,0.3-0.11 c0.98-0.33,1.98-0.64,2.97-0.94c0.3-0.09,0.61-0.18,0.92-0.27c0.7-0.2,1.4-0.4,2.11-0.59c0.37-0.1,0.73-0.19,1.1-0.29 c0.66-0.17,1.32-0.34,1.99-0.49c0.37-0.09,0.75-0.18,1.13-0.26c0.7-0.16,1.41-0.31,2.12-0.46c0.33-0.07,0.65-0.14,0.98-0.2 c1.03-0.2,2.06-0.4,3.1-0.57c0.05-0.01,0.1-0.02,0.16-0.02c0.99-0.16,1.98-0.31,2.98-0.45c0.51-0.07,1.03-0.13,1.54-0.2 c0.39-0.05,0.78-0.1,1.16-0.14c0.55-0.06,1.11-0.11,1.67-0.17c0.37-0.04,0.74-0.08,1.11-0.11c0.62-0.05,1.25-0.1,1.87-0.14 c0.31-0.02,0.61-0.05,0.92-0.07c0.93-0.06,1.87-0.1,2.81-0.14c12.63-0.44,24.78,1.32,36.14,4.96L469.44,439.21z" class="st19"/><g><linearGradient id="SVGID_19_" x1="363.144" x2="522.511" y1="474.202" y2="633.014" gradientUnits="userSpaceOnUse"><stop style="stop-color:#fef7e2" offset="0"/><stop style="stop-color:#ffbd8a" offset="1"/></linearGradient><path d="M442.34,437.14c61.69-2.15,112.1,48.34,112.37,112.56S505,667.93,443.32,670.08s-112.1-48.35-112.37-112.57 C330.68,493.29,380.65,439.29,442.34,437.14z M443.27,659.9c56.3-1.97,101.89-51.25,101.65-109.86 c-0.25-58.6-46.24-104.69-102.54-102.72s-101.89,51.25-101.65,109.85C340.98,615.78,386.97,661.87,443.27,659.9" class="st20"/></g></g></g></svg>